%TF.GenerationSoftware,KiCad,Pcbnew,(6.0.0-0)*%
%TF.CreationDate,2022-06-01T15:58:03+02:00*%
%TF.ProjectId,Zumo_PiZero,5a756d6f-5f50-4695-9a65-726f2e6b6963,rev?*%
%TF.SameCoordinates,Original*%
%TF.FileFunction,Legend,Top*%
%TF.FilePolarity,Positive*%
%FSLAX46Y46*%
G04 Gerber Fmt 4.6, Leading zero omitted, Abs format (unit mm)*
G04 Created by KiCad (PCBNEW (6.0.0-0)) date 2022-06-01 15:58:03*
%MOMM*%
%LPD*%
G01*
G04 APERTURE LIST*
G04 Aperture macros list*
%AMRoundRect*
0 Rectangle with rounded corners*
0 $1 Rounding radius*
0 $2 $3 $4 $5 $6 $7 $8 $9 X,Y pos of 4 corners*
0 Add a 4 corners polygon primitive as box body*
4,1,4,$2,$3,$4,$5,$6,$7,$8,$9,$2,$3,0*
0 Add four circle primitives for the rounded corners*
1,1,$1+$1,$2,$3*
1,1,$1+$1,$4,$5*
1,1,$1+$1,$6,$7*
1,1,$1+$1,$8,$9*
0 Add four rect primitives between the rounded corners*
20,1,$1+$1,$2,$3,$4,$5,0*
20,1,$1+$1,$4,$5,$6,$7,0*
20,1,$1+$1,$6,$7,$8,$9,0*
20,1,$1+$1,$8,$9,$2,$3,0*%
G04 Aperture macros list end*
%ADD10C,1.000000*%
%ADD11C,0.150000*%
%ADD12C,0.300000*%
%ADD13C,0.120000*%
%ADD14C,0.254000*%
%ADD15C,0.398780*%
%ADD16C,0.152400*%
%ADD17C,0.127000*%
%ADD18RoundRect,0.150000X-0.650000X-0.150000X0.650000X-0.150000X0.650000X0.150000X-0.650000X0.150000X0*%
%ADD19RoundRect,0.135000X-0.185000X0.135000X-0.185000X-0.135000X0.185000X-0.135000X0.185000X0.135000X0*%
%ADD20R,1.700000X1.700000*%
%ADD21RoundRect,0.250000X-0.625000X0.350000X-0.625000X-0.350000X0.625000X-0.350000X0.625000X0.350000X0*%
%ADD22C,3.800000*%
%ADD23RoundRect,0.140000X-0.140000X-0.170000X0.140000X-0.170000X0.140000X0.170000X-0.140000X0.170000X0*%
%ADD24RoundRect,0.135000X0.135000X0.185000X-0.135000X0.185000X-0.135000X-0.185000X0.135000X-0.185000X0*%
%ADD25RoundRect,0.101600X-0.674370X0.299720X-0.674370X-0.299720X0.674370X-0.299720X0.674370X0.299720X0*%
%ADD26RoundRect,0.101600X-0.999490X0.599440X-0.999490X-0.599440X0.999490X-0.599440X0.999490X0.599440X0*%
%ADD27R,0.449999X1.400000*%
%ADD28R,2.560000X2.460000*%
%ADD29RoundRect,0.140000X0.170000X-0.140000X0.170000X0.140000X-0.170000X0.140000X-0.170000X-0.140000X0*%
%ADD30RoundRect,0.140000X0.140000X0.170000X-0.140000X0.170000X-0.140000X-0.170000X0.140000X-0.170000X0*%
%ADD31R,1.200000X1.400000*%
%ADD32R,2.000000X2.000000*%
%ADD33O,1.700000X1.700000*%
%ADD34RoundRect,0.150000X0.150000X-0.512500X0.150000X0.512500X-0.150000X0.512500X-0.150000X-0.512500X0*%
%ADD35R,1.420000X0.610000*%
%ADD36R,3.910000X3.750000*%
%ADD37RoundRect,0.250000X-0.250000X-0.475000X0.250000X-0.475000X0.250000X0.475000X-0.250000X0.475000X0*%
%ADD38RoundRect,0.140000X-0.170000X0.140000X-0.170000X-0.140000X0.170000X-0.140000X0.170000X0.140000X0*%
%ADD39R,1.000000X1.000000*%
%ADD40C,0.900000*%
%ADD41R,1.000000X0.800000*%
%ADD42R,0.700000X1.500000*%
%ADD43RoundRect,0.135000X-0.135000X-0.185000X0.135000X-0.185000X0.135000X0.185000X-0.135000X0.185000X0*%
%ADD44RoundRect,0.135000X0.185000X-0.135000X0.185000X0.135000X-0.185000X0.135000X-0.185000X-0.135000X0*%
%ADD45RoundRect,0.218750X-0.256250X0.218750X-0.256250X-0.218750X0.256250X-0.218750X0.256250X0.218750X0*%
%ADD46RoundRect,0.075000X0.662500X0.075000X-0.662500X0.075000X-0.662500X-0.075000X0.662500X-0.075000X0*%
%ADD47RoundRect,0.075000X0.075000X0.662500X-0.075000X0.662500X-0.075000X-0.662500X0.075000X-0.662500X0*%
%ADD48RoundRect,0.075000X-0.350000X-0.075000X0.350000X-0.075000X0.350000X0.075000X-0.350000X0.075000X0*%
%ADD49RoundRect,0.075000X0.075000X-0.350000X0.075000X0.350000X-0.075000X0.350000X-0.075000X-0.350000X0*%
%ADD50R,1.000000X1.500000*%
%ADD51R,1.800000X1.000000*%
%ADD52R,0.800000X1.000000*%
%ADD53R,1.500000X0.700000*%
G04 APERTURE END LIST*
D10*
X105000000Y-89000000D02*
X105000000Y-91000000D01*
X106000000Y-90000000D02*
X105000000Y-89000000D01*
X98000000Y-84000000D02*
X100000000Y-84000000D01*
X99000000Y-90000000D02*
X99000000Y-83000000D01*
X99000000Y-83000000D02*
X98000000Y-84000000D01*
X99000000Y-90000000D02*
X106000000Y-90000000D01*
X100000000Y-84000000D02*
X99000000Y-83000000D01*
X105000000Y-91000000D02*
X106000000Y-90000000D01*
D11*
X116913095Y-89477380D02*
X116579761Y-89001190D01*
X116341666Y-89477380D02*
X116341666Y-88477380D01*
X116722619Y-88477380D01*
X116817857Y-88525000D01*
X116865476Y-88572619D01*
X116913095Y-88667857D01*
X116913095Y-88810714D01*
X116865476Y-88905952D01*
X116817857Y-88953571D01*
X116722619Y-89001190D01*
X116341666Y-89001190D01*
X117341666Y-89477380D02*
X117341666Y-88477380D01*
X117675000Y-89191666D01*
X118008333Y-88477380D01*
X118008333Y-89477380D01*
X118484523Y-89477380D02*
X118484523Y-88477380D01*
X118722619Y-88477380D01*
X118865476Y-88525000D01*
X118960714Y-88620238D01*
X119008333Y-88715476D01*
X119055952Y-88905952D01*
X119055952Y-89048809D01*
X119008333Y-89239285D01*
X118960714Y-89334523D01*
X118865476Y-89429761D01*
X118722619Y-89477380D01*
X118484523Y-89477380D01*
X107363095Y-85552380D02*
X107363095Y-84552380D01*
X107696428Y-85266666D01*
X108029761Y-84552380D01*
X108029761Y-85552380D01*
X108839285Y-85028571D02*
X108505952Y-85028571D01*
X108505952Y-85552380D02*
X108505952Y-84552380D01*
X108982142Y-84552380D01*
D12*
X118800000Y-106778571D02*
X118800000Y-107135714D01*
X118442857Y-106992857D02*
X118800000Y-107135714D01*
X119157142Y-106992857D01*
X118585714Y-107421428D02*
X118800000Y-107135714D01*
X119014285Y-107421428D01*
D11*
X107386904Y-89477380D02*
X106910714Y-89477380D01*
X106910714Y-88477380D01*
X107720238Y-89477380D02*
X107720238Y-88477380D01*
X108053571Y-89191666D01*
X108386904Y-88477380D01*
X108386904Y-89477380D01*
X108815476Y-89429761D02*
X108958333Y-89477380D01*
X109196428Y-89477380D01*
X109291666Y-89429761D01*
X109339285Y-89382142D01*
X109386904Y-89286904D01*
X109386904Y-89191666D01*
X109339285Y-89096428D01*
X109291666Y-89048809D01*
X109196428Y-89001190D01*
X109005952Y-88953571D01*
X108910714Y-88905952D01*
X108863095Y-88858333D01*
X108815476Y-88763095D01*
X108815476Y-88667857D01*
X108863095Y-88572619D01*
X108910714Y-88525000D01*
X109005952Y-88477380D01*
X109244047Y-88477380D01*
X109386904Y-88525000D01*
X107363095Y-94577380D02*
X106886904Y-94577380D01*
X106886904Y-93577380D01*
X107696428Y-94577380D02*
X107696428Y-93577380D01*
X108029761Y-94291666D01*
X108363095Y-93577380D01*
X108363095Y-94577380D01*
X108839285Y-94577380D02*
X108839285Y-93577380D01*
X109077380Y-93577380D01*
X109220238Y-93625000D01*
X109315476Y-93720238D01*
X109363095Y-93815476D01*
X109410714Y-94005952D01*
X109410714Y-94148809D01*
X109363095Y-94339285D01*
X109315476Y-94434523D01*
X109220238Y-94529761D01*
X109077380Y-94577380D01*
X108839285Y-94577380D01*
D12*
X91600000Y-86135714D02*
X91671428Y-86207142D01*
X91600000Y-86278571D01*
X91528571Y-86207142D01*
X91600000Y-86135714D01*
X91600000Y-86278571D01*
X93479000Y-108088714D02*
X93550428Y-108160142D01*
X93479000Y-108231571D01*
X93407571Y-108160142D01*
X93479000Y-108088714D01*
X93479000Y-108231571D01*
D11*
X116936904Y-94577380D02*
X116603571Y-94101190D01*
X116365476Y-94577380D02*
X116365476Y-93577380D01*
X116746428Y-93577380D01*
X116841666Y-93625000D01*
X116889285Y-93672619D01*
X116936904Y-93767857D01*
X116936904Y-93910714D01*
X116889285Y-94005952D01*
X116841666Y-94053571D01*
X116746428Y-94101190D01*
X116365476Y-94101190D01*
X117365476Y-94577380D02*
X117365476Y-93577380D01*
X117698809Y-94291666D01*
X118032142Y-93577380D01*
X118032142Y-94577380D01*
X118460714Y-94529761D02*
X118603571Y-94577380D01*
X118841666Y-94577380D01*
X118936904Y-94529761D01*
X118984523Y-94482142D01*
X119032142Y-94386904D01*
X119032142Y-94291666D01*
X118984523Y-94196428D01*
X118936904Y-94148809D01*
X118841666Y-94101190D01*
X118651190Y-94053571D01*
X118555952Y-94005952D01*
X118508333Y-93958333D01*
X118460714Y-93863095D01*
X118460714Y-93767857D01*
X118508333Y-93672619D01*
X118555952Y-93625000D01*
X118651190Y-93577380D01*
X118889285Y-93577380D01*
X119032142Y-93625000D01*
%TO.C,U7*%
X116052380Y-84200000D02*
X116290476Y-84200000D01*
X116195238Y-84438095D02*
X116290476Y-84200000D01*
X116195238Y-83961904D01*
X116480952Y-84342857D02*
X116290476Y-84200000D01*
X116480952Y-84057142D01*
D13*
%TO.C,U6*%
X98522000Y-112865500D02*
X101269500Y-112865500D01*
X101269500Y-112865500D02*
X101269500Y-112583000D01*
X98522000Y-112865500D02*
X95774500Y-112865500D01*
X95774500Y-112865500D02*
X95774500Y-112583000D01*
X98522000Y-107370500D02*
X101269500Y-107370500D01*
X101269500Y-107370500D02*
X101269500Y-107653000D01*
X98522000Y-107370500D02*
X95774500Y-107370500D01*
X95774500Y-107370500D02*
X95774500Y-107653000D01*
X95774500Y-107653000D02*
X94122000Y-107653000D01*
%TO.C,R1*%
X89380000Y-135856359D02*
X89380000Y-136163641D01*
X88620000Y-135856359D02*
X88620000Y-136163641D01*
%TO.C,kibuzzard-6296F475*%
G36*
X116946083Y-79810816D02*
G01*
X117063003Y-79888683D01*
X117143727Y-80005126D01*
X117170635Y-80146810D01*
X117143013Y-80288018D01*
X117060145Y-80403033D01*
X116942987Y-80479471D01*
X116812495Y-80504950D01*
X116627710Y-80504950D01*
X116627710Y-79784860D01*
X116810590Y-79784860D01*
X116946083Y-79810816D01*
G37*
G36*
X113371430Y-79026035D02*
G01*
X117666570Y-79026035D01*
X117666570Y-81259965D01*
X113371430Y-81259965D01*
X113371430Y-80131570D01*
X113530180Y-80131570D01*
X113543277Y-80277481D01*
X113582568Y-80412319D01*
X113648052Y-80536085D01*
X113739730Y-80648778D01*
X113849148Y-80742539D01*
X113967854Y-80809512D01*
X114095846Y-80849695D01*
X114233125Y-80863090D01*
X114383144Y-80852732D01*
X114513160Y-80821656D01*
X114623174Y-80769864D01*
X114713185Y-80697355D01*
X114723678Y-80674495D01*
X114918925Y-80674495D01*
X114921782Y-80741170D01*
X114939880Y-80792605D01*
X114989410Y-80831181D01*
X115084660Y-80844040D01*
X115182767Y-80831181D01*
X115233250Y-80792605D01*
X115251347Y-80743075D01*
X115254205Y-80676400D01*
X115254205Y-80049655D01*
X115307439Y-80119082D01*
X115376972Y-80210522D01*
X115462803Y-80323975D01*
X115564932Y-80459442D01*
X115683359Y-80616922D01*
X115818085Y-80796415D01*
X115865710Y-80832610D01*
X115968580Y-80844040D01*
X116066687Y-80831181D01*
X116117170Y-80792605D01*
X116135268Y-80743075D01*
X116138125Y-80676400D01*
X116138125Y-80672590D01*
X116290525Y-80672590D01*
X116313385Y-80794510D01*
X116363867Y-80830229D01*
X116458165Y-80842135D01*
X116806780Y-80842135D01*
X116947095Y-80829157D01*
X117076576Y-80790224D01*
X117195221Y-80725335D01*
X117303033Y-80634490D01*
X117392627Y-80525488D01*
X117456623Y-80406128D01*
X117495021Y-80276410D01*
X117507820Y-80136333D01*
X117494723Y-79996791D01*
X117455432Y-79868680D01*
X117389948Y-79751999D01*
X117298270Y-79646748D01*
X117189328Y-79559653D01*
X117072051Y-79497443D01*
X116946440Y-79460117D01*
X116812495Y-79447675D01*
X116460070Y-79445770D01*
X116361962Y-79458629D01*
X116311480Y-79497205D01*
X116293383Y-79546735D01*
X116290525Y-79613410D01*
X116290525Y-80672590D01*
X116138125Y-80672590D01*
X116138125Y-79619125D01*
X116126695Y-79521970D01*
X116102883Y-79481965D01*
X116053353Y-79459105D01*
X115965723Y-79449580D01*
X115875235Y-79461010D01*
X115820943Y-79505778D01*
X115802845Y-79611505D01*
X115802845Y-80255395D01*
X115750352Y-80186656D01*
X115683042Y-80097280D01*
X115600915Y-79987266D01*
X115503972Y-79856615D01*
X115392212Y-79705326D01*
X115265635Y-79533400D01*
X115221820Y-79483870D01*
X115175147Y-79460058D01*
X115084660Y-79449580D01*
X114991315Y-79461010D01*
X114937022Y-79505778D01*
X114918925Y-79611505D01*
X114918925Y-80674495D01*
X114723678Y-80674495D01*
X114766525Y-80581150D01*
X114766525Y-80162050D01*
X114747475Y-80055370D01*
X114621745Y-80002030D01*
X114286465Y-80002030D01*
X114195025Y-80019175D01*
X114163592Y-80061085D01*
X114155020Y-80142048D01*
X114162640Y-80222058D01*
X114195025Y-80266825D01*
X114278845Y-80282065D01*
X114429340Y-80282065D01*
X114429340Y-80489710D01*
X114340281Y-80515428D01*
X114240745Y-80524000D01*
X114103585Y-80495187D01*
X113981665Y-80408747D01*
X113918165Y-80326409D01*
X113880065Y-80233064D01*
X113867365Y-80128713D01*
X113895464Y-79979646D01*
X113979760Y-79862013D01*
X114100251Y-79785574D01*
X114236935Y-79760095D01*
X114339805Y-79773192D01*
X114427435Y-79812483D01*
X114543640Y-79864870D01*
X114607934Y-79839629D01*
X114678895Y-79763905D01*
X114722710Y-79656272D01*
X114671275Y-79571500D01*
X114535173Y-79488950D01*
X114393568Y-79439420D01*
X114246460Y-79422910D01*
X114106442Y-79435590D01*
X113975950Y-79473631D01*
X113854982Y-79537031D01*
X113743540Y-79625792D01*
X113650195Y-79733485D01*
X113583520Y-79853678D01*
X113543515Y-79986373D01*
X113530180Y-80131570D01*
X113371430Y-80131570D01*
X113371430Y-79026035D01*
G37*
%TO.C,R11*%
X120969000Y-97529359D02*
X120969000Y-97836641D01*
X121729000Y-97529359D02*
X121729000Y-97836641D01*
%TO.C,R7*%
X144337000Y-112405359D02*
X144337000Y-112712641D01*
X143577000Y-112405359D02*
X143577000Y-112712641D01*
%TO.C,kibuzzard-6296F4D2*%
G36*
X137979400Y-104243195D02*
G01*
X138010833Y-104309870D01*
X138005118Y-104378450D01*
X137913678Y-104418455D01*
X137796520Y-104445125D01*
X137761278Y-104554663D01*
X137795568Y-104664200D01*
X137898438Y-104690870D01*
X138005118Y-104706110D01*
X138040360Y-104744210D01*
X138050838Y-104816600D01*
X138020834Y-104913755D01*
X137930823Y-104946140D01*
X137618403Y-104946140D01*
X137618403Y-104224145D01*
X137885103Y-104224145D01*
X137979400Y-104243195D01*
G37*
G36*
X137122468Y-103490085D02*
G01*
X139293532Y-103490085D01*
X139293532Y-105685915D01*
X137122468Y-105685915D01*
X137122468Y-105111875D01*
X137281218Y-105111875D01*
X137292647Y-105210935D01*
X137343130Y-105265227D01*
X137448857Y-105283325D01*
X137949873Y-105283325D01*
X138064490Y-105269038D01*
X138167042Y-105226175D01*
X138257530Y-105154738D01*
X138328333Y-105062133D01*
X138371830Y-104955771D01*
X138388023Y-104835650D01*
X138375534Y-104728758D01*
X138338069Y-104629063D01*
X138275628Y-104536565D01*
X138329920Y-104426551D01*
X138343726Y-104334635D01*
X138464222Y-104334635D01*
X138524230Y-104452745D01*
X138639483Y-104519420D01*
X138772833Y-104460365D01*
X138797598Y-104437505D01*
X138797598Y-105117590D01*
X138800455Y-105187123D01*
X138818553Y-105239510D01*
X138869511Y-105276657D01*
X138965237Y-105289040D01*
X139063345Y-105276181D01*
X139113828Y-105237605D01*
X139131925Y-105187123D01*
X139134782Y-105121400D01*
X139134782Y-104060315D01*
X139125258Y-103959350D01*
X139098588Y-103918393D01*
X139049058Y-103896485D01*
X138958570Y-103886960D01*
X138850938Y-103936490D01*
X138845223Y-103940300D01*
X138532802Y-104222240D01*
X138464222Y-104334635D01*
X138343726Y-104334635D01*
X138348018Y-104306060D01*
X138334259Y-104195993D01*
X138292984Y-104096933D01*
X138224193Y-104008880D01*
X138139102Y-103941147D01*
X138041313Y-103900507D01*
X137930823Y-103886960D01*
X137450763Y-103886960D01*
X137352655Y-103899819D01*
X137302173Y-103938395D01*
X137284075Y-103987925D01*
X137281218Y-104054600D01*
X137281218Y-105111875D01*
X137122468Y-105111875D01*
X137122468Y-103490085D01*
G37*
%TO.C,kibuzzard-6296F43B*%
G36*
X113641940Y-71405082D02*
G01*
X117396060Y-71405082D01*
X117396060Y-73640918D01*
X113641940Y-73640918D01*
X113641940Y-72803988D01*
X113800690Y-72803988D01*
X113821645Y-72906858D01*
X113825455Y-72925907D01*
X113846410Y-72975438D01*
X113893559Y-73051161D01*
X113947375Y-73110693D01*
X114057442Y-73184776D01*
X114184442Y-73229226D01*
X114328375Y-73244043D01*
X114473367Y-73229332D01*
X114601002Y-73185199D01*
X114711280Y-73111645D01*
X114795947Y-73015442D01*
X114846747Y-72903365D01*
X114863680Y-72775413D01*
X114847964Y-72678258D01*
X114800815Y-72592532D01*
X114740807Y-72530620D01*
X114684610Y-72489663D01*
X114684610Y-72476328D01*
X114767160Y-72416532D01*
X114798418Y-72365837D01*
X114939880Y-72365837D01*
X114977980Y-72468708D01*
X115374220Y-73146888D01*
X115391365Y-73167843D01*
X115443752Y-73208800D01*
X115521857Y-73228803D01*
X115604725Y-73203085D01*
X115665685Y-73144983D01*
X115864519Y-72803988D01*
X116174320Y-72803988D01*
X116195275Y-72906858D01*
X116199085Y-72925907D01*
X116220040Y-72975438D01*
X116267189Y-73051161D01*
X116321005Y-73110693D01*
X116431072Y-73184776D01*
X116558072Y-73229226D01*
X116702005Y-73244043D01*
X116846997Y-73229332D01*
X116974632Y-73185199D01*
X117084910Y-73111645D01*
X117169577Y-73015442D01*
X117220377Y-72903365D01*
X117237310Y-72775413D01*
X117221594Y-72678258D01*
X117174445Y-72592532D01*
X117114438Y-72530620D01*
X117058240Y-72489663D01*
X117058240Y-72476328D01*
X117140790Y-72416532D01*
X117190320Y-72336204D01*
X117206830Y-72235345D01*
X117191802Y-72127924D01*
X117146717Y-72027912D01*
X117071575Y-71935307D01*
X116970398Y-71861224D01*
X116847208Y-71816774D01*
X116702005Y-71801957D01*
X116607469Y-71808625D01*
X116521982Y-71828627D01*
X116396253Y-71887682D01*
X116317195Y-71962930D01*
X116275285Y-72022937D01*
X116231470Y-72152478D01*
X116255283Y-72220581D01*
X116326720Y-72280112D01*
X116431495Y-72314402D01*
X116503885Y-72290590D01*
X116557225Y-72219153D01*
X116568655Y-72196292D01*
X116618185Y-72150572D01*
X116725818Y-72127712D01*
X116831545Y-72163907D01*
X116869645Y-72240107D01*
X116833450Y-72295829D01*
X116724865Y-72314402D01*
X116625805Y-72323928D01*
X116572941Y-72375839D01*
X116555320Y-72482042D01*
X116568179Y-72579674D01*
X116606755Y-72628727D01*
X116656285Y-72647778D01*
X116742963Y-72651587D01*
X116853453Y-72690640D01*
X116900125Y-72781128D01*
X116852500Y-72873520D01*
X116791540Y-72904238D01*
X116703910Y-72914478D01*
X116623900Y-72903047D01*
X116519125Y-72811608D01*
X116461975Y-72712548D01*
X116361010Y-72693497D01*
X116220993Y-72721120D01*
X116174320Y-72803988D01*
X115864519Y-72803988D01*
X116060020Y-72468708D01*
X116098120Y-72363933D01*
X116073355Y-72299163D01*
X115999060Y-72238203D01*
X115894285Y-72198197D01*
X115833325Y-72214390D01*
X115799987Y-72246775D01*
X115768555Y-72299162D01*
X115519000Y-72779222D01*
X115269445Y-72299162D01*
X115218962Y-72222010D01*
X115153240Y-72196292D01*
X115038940Y-72238203D01*
X114964645Y-72299639D01*
X114939880Y-72365837D01*
X114798418Y-72365837D01*
X114816690Y-72336204D01*
X114833200Y-72235345D01*
X114818172Y-72127924D01*
X114773087Y-72027912D01*
X114697945Y-71935307D01*
X114596768Y-71861224D01*
X114473578Y-71816774D01*
X114328375Y-71801957D01*
X114233839Y-71808625D01*
X114148352Y-71828627D01*
X114022622Y-71887682D01*
X113943565Y-71962930D01*
X113901655Y-72022937D01*
X113857840Y-72152478D01*
X113881652Y-72220581D01*
X113953090Y-72280112D01*
X114057865Y-72314402D01*
X114130255Y-72290590D01*
X114183595Y-72219153D01*
X114195025Y-72196292D01*
X114244555Y-72150572D01*
X114352187Y-72127712D01*
X114457915Y-72163907D01*
X114496015Y-72240107D01*
X114459820Y-72295829D01*
X114351235Y-72314402D01*
X114252175Y-72323928D01*
X114199311Y-72375839D01*
X114181690Y-72482042D01*
X114194549Y-72579674D01*
X114233125Y-72628727D01*
X114282655Y-72647778D01*
X114369332Y-72651587D01*
X114479822Y-72690640D01*
X114526495Y-72781128D01*
X114478870Y-72873520D01*
X114417910Y-72904238D01*
X114330280Y-72914478D01*
X114250270Y-72903047D01*
X114145495Y-72811608D01*
X114088345Y-72712548D01*
X113987380Y-72693497D01*
X113847362Y-72721120D01*
X113800690Y-72803988D01*
X113641940Y-72803988D01*
X113641940Y-71405082D01*
G37*
%TO.C,kibuzzard-62975D6B*%
G36*
X139515625Y-85391984D02*
G01*
X145008375Y-85391984D01*
X145008375Y-88182016D01*
X139515625Y-88182016D01*
X139515625Y-87447797D01*
X140011719Y-87447797D01*
X140026006Y-87571622D01*
X140089109Y-87637702D01*
X140221269Y-87659728D01*
X140343903Y-87643655D01*
X140407006Y-87595434D01*
X140429628Y-87532331D01*
X140433200Y-87450178D01*
X140433200Y-87181097D01*
X140733237Y-87181097D01*
X140807056Y-87176334D01*
X140899660Y-87395674D01*
X140961573Y-87539343D01*
X140992794Y-87607341D01*
X141036847Y-87653775D01*
X141113047Y-87676397D01*
X141235681Y-87643059D01*
X141346409Y-87574003D01*
X141383319Y-87490659D01*
X141347600Y-87366834D01*
X141309376Y-87279919D01*
X141478569Y-87279919D01*
X141540481Y-87416841D01*
X141561912Y-87443034D01*
X141630969Y-87515663D01*
X141738125Y-87590672D01*
X141900050Y-87658537D01*
X142003039Y-87679076D01*
X142111981Y-87685922D01*
X142255121Y-87671899D01*
X142392440Y-87629830D01*
X142523937Y-87559716D01*
X142614425Y-87482027D01*
X142685862Y-87377550D01*
X142732297Y-87250451D01*
X142747775Y-87104897D01*
X142732595Y-86962320D01*
X142687053Y-86844150D01*
X142618890Y-86753960D01*
X142535844Y-86695322D01*
X142441189Y-86655734D01*
X142338200Y-86622694D01*
X142235211Y-86596798D01*
X142140556Y-86578641D01*
X141989347Y-86523872D01*
X141928625Y-86417906D01*
X141979822Y-86315512D01*
X142108409Y-86278603D01*
X142235806Y-86309559D01*
X142272716Y-86340516D01*
X142300100Y-86364328D01*
X142423925Y-86411953D01*
X142508459Y-86382188D01*
X142590612Y-86292891D01*
X142647762Y-86161922D01*
X142599554Y-86085722D01*
X142843025Y-86085722D01*
X142854931Y-86185734D01*
X142902556Y-86241694D01*
X143014475Y-86259553D01*
X143471675Y-86259553D01*
X143471675Y-87454941D01*
X143475247Y-87537094D01*
X143496678Y-87599006D01*
X143558591Y-87647822D01*
X143676462Y-87662109D01*
X143795525Y-87647822D01*
X143858628Y-87599006D01*
X143880059Y-87538284D01*
X143883631Y-87457322D01*
X143883631Y-86259553D01*
X144338450Y-86259553D01*
X144459894Y-86238122D01*
X144500375Y-86186925D01*
X144512281Y-86088103D01*
X144500375Y-85988091D01*
X144452750Y-85932131D01*
X144340831Y-85914272D01*
X143016856Y-85914272D01*
X142895413Y-85935703D01*
X142854931Y-85986900D01*
X142843025Y-86085722D01*
X142599554Y-86085722D01*
X142573944Y-86045241D01*
X142514412Y-85999997D01*
X142351297Y-85924988D01*
X142227174Y-85897305D01*
X142090550Y-85888078D01*
X141923730Y-85905408D01*
X141782046Y-85957399D01*
X141665497Y-86044050D01*
X141578846Y-86153984D01*
X141526855Y-86275825D01*
X141509525Y-86409572D01*
X141524705Y-86550959D01*
X141570247Y-86670319D01*
X141638410Y-86764080D01*
X141721456Y-86828672D01*
X141815516Y-86875404D01*
X141916719Y-86915587D01*
X142017922Y-86947437D01*
X142111981Y-86969166D01*
X142263191Y-87022744D01*
X142323912Y-87114422D01*
X142299306Y-87214964D01*
X142225487Y-87275289D01*
X142102456Y-87295397D01*
X141988156Y-87258487D01*
X141892906Y-87181097D01*
X141786941Y-87091800D01*
X141707169Y-87062034D01*
X141580962Y-87119184D01*
X141504167Y-87209374D01*
X141478569Y-87279919D01*
X141309376Y-87279919D01*
X141280925Y-87215228D01*
X141226950Y-87090609D01*
X141185675Y-86992978D01*
X141284894Y-86866507D01*
X141344425Y-86718870D01*
X141364269Y-86550066D01*
X141348791Y-86402428D01*
X141302356Y-86269078D01*
X141232109Y-86155969D01*
X141145194Y-86069053D01*
X141012108Y-85984386D01*
X140876377Y-85933586D01*
X140738000Y-85916653D01*
X140223650Y-85916653D01*
X140101016Y-85932727D01*
X140037912Y-85980947D01*
X140015291Y-86044050D01*
X140011719Y-86126203D01*
X140011719Y-87447797D01*
X139515625Y-87447797D01*
X139515625Y-85391984D01*
G37*
G36*
X140876112Y-86391713D02*
G01*
X140945169Y-86550066D01*
X140876112Y-86707228D01*
X140738000Y-86759616D01*
X140433200Y-86759616D01*
X140433200Y-86338134D01*
X140733237Y-86338134D01*
X140876112Y-86391713D01*
G37*
%TO.C,kibuzzard-6296F5B2*%
G36*
X126585430Y-98787035D02*
G01*
X130880570Y-98787035D01*
X130880570Y-101020965D01*
X126585430Y-101020965D01*
X126585430Y-99892570D01*
X126744180Y-99892570D01*
X126757277Y-100038481D01*
X126796568Y-100173319D01*
X126862052Y-100297085D01*
X126953730Y-100409778D01*
X127063148Y-100503539D01*
X127181854Y-100570512D01*
X127309846Y-100610695D01*
X127447125Y-100624090D01*
X127597144Y-100613732D01*
X127727160Y-100582656D01*
X127837174Y-100530864D01*
X127927185Y-100458355D01*
X127937678Y-100435495D01*
X128132925Y-100435495D01*
X128135782Y-100502170D01*
X128153880Y-100553605D01*
X128203410Y-100592181D01*
X128298660Y-100605040D01*
X128396767Y-100592181D01*
X128447250Y-100553605D01*
X128465347Y-100504075D01*
X128468205Y-100437400D01*
X128468205Y-99810655D01*
X128521439Y-99880082D01*
X128590972Y-99971522D01*
X128676803Y-100084975D01*
X128778932Y-100220442D01*
X128897359Y-100377922D01*
X129032085Y-100557415D01*
X129079710Y-100593610D01*
X129182580Y-100605040D01*
X129280687Y-100592181D01*
X129331170Y-100553605D01*
X129349268Y-100504075D01*
X129352125Y-100437400D01*
X129352125Y-100433590D01*
X129504525Y-100433590D01*
X129527385Y-100555510D01*
X129577867Y-100591229D01*
X129672165Y-100603135D01*
X130020780Y-100603135D01*
X130161095Y-100590157D01*
X130290576Y-100551224D01*
X130409221Y-100486335D01*
X130517033Y-100395490D01*
X130606627Y-100286488D01*
X130670623Y-100167128D01*
X130709021Y-100037410D01*
X130721820Y-99897333D01*
X130708723Y-99757791D01*
X130669432Y-99629680D01*
X130603948Y-99512999D01*
X130512270Y-99407748D01*
X130403328Y-99320653D01*
X130286051Y-99258443D01*
X130160440Y-99221117D01*
X130026495Y-99208675D01*
X129674070Y-99206770D01*
X129575962Y-99219629D01*
X129525480Y-99258205D01*
X129507383Y-99307735D01*
X129504525Y-99374410D01*
X129504525Y-100433590D01*
X129352125Y-100433590D01*
X129352125Y-99380125D01*
X129340695Y-99282970D01*
X129316883Y-99242965D01*
X129267353Y-99220105D01*
X129179723Y-99210580D01*
X129089235Y-99222010D01*
X129034943Y-99266778D01*
X129016845Y-99372505D01*
X129016845Y-100016395D01*
X128964352Y-99947656D01*
X128897042Y-99858280D01*
X128814915Y-99748266D01*
X128717972Y-99617615D01*
X128606212Y-99466326D01*
X128479635Y-99294400D01*
X128435820Y-99244870D01*
X128389147Y-99221058D01*
X128298660Y-99210580D01*
X128205315Y-99222010D01*
X128151022Y-99266778D01*
X128132925Y-99372505D01*
X128132925Y-100435495D01*
X127937678Y-100435495D01*
X127980525Y-100342150D01*
X127980525Y-99923050D01*
X127961475Y-99816370D01*
X127835745Y-99763030D01*
X127500465Y-99763030D01*
X127409025Y-99780175D01*
X127377592Y-99822085D01*
X127369020Y-99903048D01*
X127376640Y-99983058D01*
X127409025Y-100027825D01*
X127492845Y-100043065D01*
X127643340Y-100043065D01*
X127643340Y-100250710D01*
X127554281Y-100276428D01*
X127454745Y-100285000D01*
X127317585Y-100256187D01*
X127195665Y-100169747D01*
X127132165Y-100087409D01*
X127094065Y-99994064D01*
X127081365Y-99889713D01*
X127109464Y-99740646D01*
X127193760Y-99623013D01*
X127314251Y-99546574D01*
X127450935Y-99521095D01*
X127553805Y-99534192D01*
X127641435Y-99573483D01*
X127757640Y-99625870D01*
X127821934Y-99600629D01*
X127892895Y-99524905D01*
X127936710Y-99417272D01*
X127885275Y-99332500D01*
X127749173Y-99249950D01*
X127607568Y-99200420D01*
X127460460Y-99183910D01*
X127320442Y-99196590D01*
X127189950Y-99234631D01*
X127068982Y-99298031D01*
X126957540Y-99386792D01*
X126864195Y-99494485D01*
X126797520Y-99614678D01*
X126757515Y-99747373D01*
X126744180Y-99892570D01*
X126585430Y-99892570D01*
X126585430Y-98787035D01*
G37*
G36*
X130160083Y-99571816D02*
G01*
X130277003Y-99649683D01*
X130357727Y-99766126D01*
X130384635Y-99907810D01*
X130357013Y-100049018D01*
X130274145Y-100164033D01*
X130156987Y-100240471D01*
X130026495Y-100265950D01*
X129841710Y-100265950D01*
X129841710Y-99545860D01*
X130024590Y-99545860D01*
X130160083Y-99571816D01*
G37*
%TO.C,C5*%
X123536157Y-111043940D02*
X123751829Y-111043940D01*
X123536157Y-111763940D02*
X123751829Y-111763940D01*
%TO.C,C18*%
X114452164Y-92464999D02*
X114667836Y-92464999D01*
X114452164Y-91744999D02*
X114667836Y-91744999D01*
%TO.C,kibuzzard-6296F296*%
G36*
X111971662Y-70092538D02*
G01*
X111718298Y-70092538D01*
X111844028Y-69831553D01*
X111971662Y-70092538D01*
G37*
G36*
X108258182Y-68878418D02*
G01*
X112703818Y-68878418D01*
X112703818Y-71087582D01*
X108258182Y-71087582D01*
X108258182Y-70502113D01*
X108416932Y-70502113D01*
X108428362Y-70599268D01*
X108478845Y-70653560D01*
X108584572Y-70671658D01*
X109270372Y-70671658D01*
X109369432Y-70652608D01*
X109401817Y-70610698D01*
X109411342Y-70529735D01*
X109407868Y-70500208D01*
X109535167Y-70500208D01*
X109538025Y-70568788D01*
X109556122Y-70618318D01*
X109606605Y-70656894D01*
X109700902Y-70669753D01*
X109798058Y-70656894D01*
X109849492Y-70618318D01*
X109867590Y-70569740D01*
X109870447Y-70504017D01*
X109870447Y-69862032D01*
X109905690Y-69909419D01*
X109992367Y-70028720D01*
X110086189Y-70157069D01*
X110142862Y-70231602D01*
X110158102Y-70252557D01*
X110208585Y-70291610D01*
X110286690Y-70311612D01*
X110366700Y-70289705D01*
X110413372Y-70255415D01*
X110447662Y-70210648D01*
X110489096Y-70154212D01*
X110563868Y-70049675D01*
X110644354Y-69938471D01*
X110702932Y-69862032D01*
X110702932Y-70500208D01*
X110712458Y-70599268D01*
X110739127Y-70637368D01*
X110788657Y-70660228D01*
X110876288Y-70669753D01*
X110967728Y-70658323D01*
X111022020Y-70608316D01*
X111034829Y-70534497D01*
X111144893Y-70534497D01*
X111172515Y-70599268D01*
X111255383Y-70656418D01*
X111357300Y-70688803D01*
X111418260Y-70670705D01*
X111452550Y-70635463D01*
X111482078Y-70580218D01*
X111581138Y-70374478D01*
X112108823Y-70374478D01*
X112207883Y-70580218D01*
X112237410Y-70637368D01*
X112271700Y-70673563D01*
X112332660Y-70690707D01*
X112434578Y-70658323D01*
X112517445Y-70599744D01*
X112545068Y-70534497D01*
X112512683Y-70437343D01*
X111998333Y-69374352D01*
X111935468Y-69300058D01*
X111845933Y-69275293D01*
X111755445Y-69301962D01*
X111691628Y-69372447D01*
X111177278Y-70437343D01*
X111144893Y-70534497D01*
X111034829Y-70534497D01*
X111040118Y-70504017D01*
X111040118Y-69446742D01*
X111037260Y-69380067D01*
X111019162Y-69328632D01*
X110968918Y-69290056D01*
X110871525Y-69277197D01*
X110772703Y-69290056D01*
X110718172Y-69328632D01*
X110666128Y-69395155D01*
X110596862Y-69484995D01*
X110510375Y-69598152D01*
X110406667Y-69734626D01*
X110285737Y-69894418D01*
X109853302Y-69326728D01*
X109841872Y-69315297D01*
X109793295Y-69289580D01*
X109704712Y-69277197D01*
X109607557Y-69289580D01*
X109556122Y-69326728D01*
X109538025Y-69377210D01*
X109535167Y-69442932D01*
X109535167Y-70500208D01*
X109407868Y-70500208D01*
X109401817Y-70448773D01*
X109363717Y-70404005D01*
X109272277Y-70389718D01*
X108754117Y-70389718D01*
X108754117Y-69444837D01*
X108744592Y-69345777D01*
X108692681Y-69292914D01*
X108586477Y-69275293D01*
X108488370Y-69288151D01*
X108437887Y-69326728D01*
X108419790Y-69377210D01*
X108416932Y-69442932D01*
X108416932Y-70502113D01*
X108258182Y-70502113D01*
X108258182Y-68878418D01*
G37*
%TO.C,R6*%
X140803641Y-92539000D02*
X140496359Y-92539000D01*
X140803641Y-93299000D02*
X140496359Y-93299000D01*
D14*
%TO.C,J4*%
X84665305Y-104931900D02*
X84665305Y-105683740D01*
X83014305Y-99684260D02*
X84665305Y-99684260D01*
X84665305Y-99684260D02*
X84665305Y-100436100D01*
X84665305Y-105683740D02*
X83014305Y-105683740D01*
X80413345Y-101185400D02*
X80413345Y-104182600D01*
D15*
X85452705Y-100184640D02*
G75*
G03*
X85452705Y-100184640I-139700J0D01*
G01*
%TO.C,kibuzzard-6296FD33*%
G36*
X132054196Y-83243371D02*
G01*
X132054196Y-82381887D01*
X132384925Y-82381887D01*
X132395492Y-82498569D01*
X132427192Y-82607313D01*
X132480026Y-82708119D01*
X132553994Y-82800988D01*
X132643737Y-82878775D01*
X132743898Y-82934338D01*
X132854478Y-82967675D01*
X132975475Y-82978788D01*
X133097068Y-82967873D01*
X133209433Y-82935131D01*
X133312571Y-82880561D01*
X133406481Y-82804163D01*
X133484616Y-82712980D01*
X133540427Y-82614059D01*
X133573913Y-82507399D01*
X133585075Y-82393000D01*
X133576443Y-82267984D01*
X133550547Y-82159638D01*
X133507387Y-82067959D01*
X133446963Y-81992950D01*
X133350125Y-81948500D01*
X133000875Y-81948500D01*
X132911975Y-81964375D01*
X132867525Y-82069150D01*
X132867525Y-82348550D01*
X132881813Y-82424750D01*
X132916737Y-82450944D01*
X132984206Y-82458087D01*
X133050881Y-82451738D01*
X133088188Y-82424750D01*
X133100888Y-82354900D01*
X133100888Y-82229487D01*
X133273925Y-82229487D01*
X133295356Y-82303703D01*
X133302500Y-82386650D01*
X133278489Y-82500950D01*
X133206456Y-82602550D01*
X133137841Y-82655467D01*
X133060053Y-82687217D01*
X132973094Y-82697800D01*
X132848872Y-82674384D01*
X132750844Y-82604138D01*
X132687145Y-82503728D01*
X132665913Y-82389825D01*
X132676827Y-82304100D01*
X132709569Y-82231075D01*
X132753225Y-82134238D01*
X132732191Y-82080659D01*
X132669087Y-82021525D01*
X132579394Y-81985012D01*
X132508750Y-82027875D01*
X132439958Y-82141293D01*
X132398683Y-82259297D01*
X132384925Y-82381887D01*
X132054196Y-82381887D01*
X132054196Y-81683388D01*
X132407150Y-81683388D01*
X132416675Y-81761175D01*
X132453981Y-81806419D01*
X132542087Y-81821500D01*
X133427913Y-81821500D01*
X133483475Y-81819119D01*
X133526338Y-81804038D01*
X133558484Y-81762763D01*
X133569200Y-81683388D01*
X133558484Y-81601631D01*
X133526338Y-81559563D01*
X133485063Y-81544481D01*
X133429500Y-81542100D01*
X132907212Y-81542100D01*
X132965068Y-81497738D01*
X133041268Y-81439794D01*
X133135813Y-81368269D01*
X133248701Y-81283161D01*
X133379935Y-81184472D01*
X133529513Y-81072200D01*
X133559675Y-81032512D01*
X133569200Y-80946787D01*
X133558484Y-80865031D01*
X133526338Y-80822962D01*
X133485063Y-80807881D01*
X133429500Y-80805500D01*
X132548438Y-80805500D01*
X132467475Y-80815025D01*
X132434138Y-80834869D01*
X132415088Y-80876144D01*
X132407150Y-80949169D01*
X132416675Y-81024575D01*
X132453981Y-81069819D01*
X132542087Y-81084900D01*
X133078663Y-81084900D01*
X133021380Y-81128644D01*
X132946900Y-81184736D01*
X132855222Y-81253175D01*
X132746346Y-81333961D01*
X132620272Y-81427094D01*
X132477000Y-81532575D01*
X132435725Y-81569087D01*
X132415881Y-81607981D01*
X132407150Y-81683388D01*
X132054196Y-81683388D01*
X132054196Y-80537212D01*
X132403975Y-80537212D01*
X132414691Y-80618969D01*
X132446837Y-80661038D01*
X132488112Y-80676119D01*
X132543675Y-80678500D01*
X133426325Y-80678500D01*
X133527925Y-80659450D01*
X133557691Y-80617381D01*
X133567613Y-80538800D01*
X133567613Y-80248288D01*
X133556798Y-80131358D01*
X133524353Y-80023458D01*
X133470279Y-79924586D01*
X133394575Y-79834744D01*
X133303740Y-79760082D01*
X133204273Y-79706752D01*
X133096175Y-79674754D01*
X132979444Y-79664088D01*
X132863159Y-79675002D01*
X132756400Y-79707744D01*
X132659166Y-79762314D01*
X132571456Y-79838713D01*
X132498878Y-79929498D01*
X132447036Y-80027228D01*
X132415931Y-80131904D01*
X132405563Y-80243525D01*
X132403975Y-80537212D01*
X132054196Y-80537212D01*
X132054196Y-79002629D01*
X133915804Y-79002629D01*
X133915804Y-83243371D01*
X132054196Y-83243371D01*
G37*
G36*
X133105848Y-79968094D02*
G01*
X133201694Y-80037150D01*
X133265392Y-80134781D01*
X133286625Y-80243525D01*
X133286625Y-80397513D01*
X132686550Y-80397513D01*
X132686550Y-80245113D01*
X132708180Y-80132202D01*
X132773069Y-80034769D01*
X132870105Y-79967498D01*
X132988175Y-79945075D01*
X133105848Y-79968094D01*
G37*
D16*
%TO.C,U7*%
X110350000Y-86075000D02*
X110350000Y-89075000D01*
X115650000Y-84024999D02*
X115650000Y-89075000D01*
D13*
%TO.C,C16*%
X103462000Y-107833836D02*
X103462000Y-107618164D01*
X104182000Y-107833836D02*
X104182000Y-107618164D01*
%TO.C,C1*%
X103610000Y-135377836D02*
X103610000Y-135162164D01*
X102890000Y-135377836D02*
X102890000Y-135162164D01*
%TO.C,R15*%
X95420000Y-101846359D02*
X95420000Y-102153641D01*
X96180000Y-101846359D02*
X96180000Y-102153641D01*
%TO.C,C12*%
X92802836Y-90387000D02*
X92587164Y-90387000D01*
X92802836Y-91107000D02*
X92587164Y-91107000D01*
%TO.C,Y1*%
X121705521Y-104276790D02*
X125005521Y-104276790D01*
X125005521Y-104276790D02*
X125005521Y-100276790D01*
%TO.C,kibuzzard-6296FD33*%
G36*
X132054196Y-72703371D02*
G01*
X132054196Y-71841887D01*
X132384925Y-71841887D01*
X132395492Y-71958569D01*
X132427192Y-72067313D01*
X132480026Y-72168119D01*
X132553994Y-72260988D01*
X132643737Y-72338775D01*
X132743898Y-72394338D01*
X132854478Y-72427675D01*
X132975475Y-72438788D01*
X133097068Y-72427873D01*
X133209433Y-72395131D01*
X133312571Y-72340561D01*
X133406481Y-72264163D01*
X133484616Y-72172980D01*
X133540427Y-72074059D01*
X133573913Y-71967399D01*
X133585075Y-71853000D01*
X133576443Y-71727984D01*
X133550547Y-71619638D01*
X133507387Y-71527959D01*
X133446963Y-71452950D01*
X133350125Y-71408500D01*
X133000875Y-71408500D01*
X132911975Y-71424375D01*
X132867525Y-71529150D01*
X132867525Y-71808550D01*
X132881813Y-71884750D01*
X132916737Y-71910944D01*
X132984206Y-71918087D01*
X133050881Y-71911738D01*
X133088188Y-71884750D01*
X133100888Y-71814900D01*
X133100888Y-71689487D01*
X133273925Y-71689487D01*
X133295356Y-71763703D01*
X133302500Y-71846650D01*
X133278489Y-71960950D01*
X133206456Y-72062550D01*
X133137841Y-72115467D01*
X133060053Y-72147217D01*
X132973094Y-72157800D01*
X132848872Y-72134384D01*
X132750844Y-72064138D01*
X132687145Y-71963728D01*
X132665913Y-71849825D01*
X132676827Y-71764100D01*
X132709569Y-71691075D01*
X132753225Y-71594238D01*
X132732191Y-71540659D01*
X132669087Y-71481525D01*
X132579394Y-71445012D01*
X132508750Y-71487875D01*
X132439958Y-71601293D01*
X132398683Y-71719297D01*
X132384925Y-71841887D01*
X132054196Y-71841887D01*
X132054196Y-71143388D01*
X132407150Y-71143388D01*
X132416675Y-71221175D01*
X132453981Y-71266419D01*
X132542087Y-71281500D01*
X133427913Y-71281500D01*
X133483475Y-71279119D01*
X133526338Y-71264038D01*
X133558484Y-71222763D01*
X133569200Y-71143388D01*
X133558484Y-71061631D01*
X133526338Y-71019563D01*
X133485063Y-71004481D01*
X133429500Y-71002100D01*
X132907212Y-71002100D01*
X132965068Y-70957738D01*
X133041268Y-70899794D01*
X133135813Y-70828269D01*
X133248701Y-70743161D01*
X133379935Y-70644472D01*
X133529513Y-70532200D01*
X133559675Y-70492512D01*
X133569200Y-70406787D01*
X133558484Y-70325031D01*
X133526338Y-70282962D01*
X133485063Y-70267881D01*
X133429500Y-70265500D01*
X132548438Y-70265500D01*
X132467475Y-70275025D01*
X132434138Y-70294869D01*
X132415088Y-70336144D01*
X132407150Y-70409169D01*
X132416675Y-70484575D01*
X132453981Y-70529819D01*
X132542087Y-70544900D01*
X133078663Y-70544900D01*
X133021380Y-70588644D01*
X132946900Y-70644736D01*
X132855222Y-70713175D01*
X132746346Y-70793961D01*
X132620272Y-70887094D01*
X132477000Y-70992575D01*
X132435725Y-71029087D01*
X132415881Y-71067981D01*
X132407150Y-71143388D01*
X132054196Y-71143388D01*
X132054196Y-69997212D01*
X132403975Y-69997212D01*
X132414691Y-70078969D01*
X132446837Y-70121038D01*
X132488112Y-70136119D01*
X132543675Y-70138500D01*
X133426325Y-70138500D01*
X133527925Y-70119450D01*
X133557691Y-70077381D01*
X133567613Y-69998800D01*
X133567613Y-69708288D01*
X133556798Y-69591358D01*
X133524353Y-69483458D01*
X133470279Y-69384586D01*
X133394575Y-69294744D01*
X133303740Y-69220082D01*
X133204273Y-69166752D01*
X133096175Y-69134754D01*
X132979444Y-69124088D01*
X132863159Y-69135002D01*
X132756400Y-69167744D01*
X132659166Y-69222314D01*
X132571456Y-69298713D01*
X132498878Y-69389498D01*
X132447036Y-69487228D01*
X132415931Y-69591904D01*
X132405563Y-69703525D01*
X132403975Y-69997212D01*
X132054196Y-69997212D01*
X132054196Y-68462629D01*
X133915804Y-68462629D01*
X133915804Y-72703371D01*
X132054196Y-72703371D01*
G37*
G36*
X133105848Y-69428094D02*
G01*
X133201694Y-69497150D01*
X133265392Y-69594781D01*
X133286625Y-69703525D01*
X133286625Y-69857513D01*
X132686550Y-69857513D01*
X132686550Y-69705113D01*
X132708180Y-69592202D01*
X132773069Y-69494769D01*
X132870105Y-69427498D01*
X132988175Y-69405075D01*
X133105848Y-69428094D01*
G37*
D17*
%TO.C,SW3*%
X132103000Y-86105000D02*
X132103000Y-87605000D01*
X135103000Y-87605000D02*
X135103000Y-86105000D01*
X132103000Y-87605000D02*
X135103000Y-87605000D01*
D14*
X130603000Y-88605000D02*
X136603000Y-88605000D01*
X136603000Y-85105000D02*
X130603000Y-85105000D01*
D17*
X135103000Y-86105000D02*
X132103000Y-86105000D01*
D14*
X129180000Y-84855000D02*
G75*
G03*
X129180000Y-84855000I-127000J0D01*
G01*
D13*
%TO.C,R13*%
X94380000Y-101846359D02*
X94380000Y-102153641D01*
X93620000Y-101846359D02*
X93620000Y-102153641D01*
%TO.C,C9*%
X124141444Y-106614082D02*
X123925772Y-106614082D01*
X124141444Y-105894082D02*
X123925772Y-105894082D01*
%TO.C,J5*%
X105471000Y-71253000D02*
X105471000Y-84013000D01*
X105471000Y-71253000D02*
X108131000Y-71253000D01*
X108131000Y-71253000D02*
X108131000Y-84013000D01*
X105471000Y-68653000D02*
X106801000Y-68653000D01*
X105471000Y-84013000D02*
X108131000Y-84013000D01*
X105471000Y-69983000D02*
X105471000Y-68653000D01*
%TO.C,kibuzzard-6296FB94*%
G36*
X81044994Y-106469196D02*
G01*
X84955006Y-106469196D01*
X84955006Y-108330804D01*
X81044994Y-108330804D01*
X81044994Y-107390475D01*
X81309577Y-107390475D01*
X81320491Y-107512068D01*
X81353233Y-107624433D01*
X81407804Y-107727571D01*
X81484202Y-107821481D01*
X81575384Y-107899616D01*
X81674305Y-107955427D01*
X81780965Y-107988913D01*
X81895365Y-108000075D01*
X82020380Y-107991443D01*
X82128727Y-107965547D01*
X82220405Y-107922387D01*
X82295415Y-107861963D01*
X82304159Y-107842913D01*
X82466865Y-107842913D01*
X82469246Y-107898475D01*
X82484327Y-107941338D01*
X82525602Y-107973484D01*
X82604977Y-107984200D01*
X82686733Y-107973484D01*
X82728802Y-107941338D01*
X82743883Y-107900063D01*
X82746265Y-107844500D01*
X82746265Y-107322212D01*
X82790626Y-107380068D01*
X82848570Y-107456268D01*
X82920096Y-107550813D01*
X83005203Y-107663701D01*
X83103893Y-107794935D01*
X83216165Y-107944513D01*
X83255852Y-107974675D01*
X83341577Y-107984200D01*
X83423333Y-107973484D01*
X83465402Y-107941338D01*
X83480483Y-107900063D01*
X83482865Y-107844500D01*
X83482865Y-107841325D01*
X83609865Y-107841325D01*
X83628915Y-107942925D01*
X83670983Y-107972691D01*
X83749565Y-107982613D01*
X84040077Y-107982613D01*
X84157006Y-107971798D01*
X84264907Y-107939353D01*
X84363778Y-107885279D01*
X84453621Y-107809575D01*
X84528283Y-107718740D01*
X84581613Y-107619273D01*
X84613611Y-107511175D01*
X84624277Y-107394444D01*
X84613363Y-107278159D01*
X84580621Y-107171400D01*
X84526051Y-107074166D01*
X84449652Y-106986456D01*
X84358867Y-106913878D01*
X84261136Y-106862036D01*
X84156461Y-106830931D01*
X84044840Y-106820563D01*
X83751152Y-106818975D01*
X83669396Y-106829691D01*
X83627327Y-106861837D01*
X83612246Y-106903112D01*
X83609865Y-106958675D01*
X83609865Y-107841325D01*
X83482865Y-107841325D01*
X83482865Y-106963438D01*
X83473340Y-106882475D01*
X83453496Y-106849138D01*
X83412221Y-106830088D01*
X83339196Y-106822150D01*
X83263790Y-106831675D01*
X83218546Y-106868981D01*
X83203465Y-106957087D01*
X83203465Y-107493663D01*
X83159720Y-107436380D01*
X83103628Y-107361900D01*
X83035190Y-107270222D01*
X82954403Y-107161346D01*
X82861270Y-107035272D01*
X82755790Y-106892000D01*
X82719277Y-106850725D01*
X82680383Y-106830881D01*
X82604977Y-106822150D01*
X82527190Y-106831675D01*
X82481946Y-106868981D01*
X82466865Y-106957087D01*
X82466865Y-107842913D01*
X82304159Y-107842913D01*
X82339865Y-107765125D01*
X82339865Y-107415875D01*
X82323990Y-107326975D01*
X82219215Y-107282525D01*
X81939815Y-107282525D01*
X81863615Y-107296813D01*
X81837421Y-107331737D01*
X81830277Y-107399206D01*
X81836627Y-107465881D01*
X81863615Y-107503188D01*
X81933465Y-107515888D01*
X82058877Y-107515888D01*
X82058877Y-107688925D01*
X81984661Y-107710356D01*
X81901715Y-107717500D01*
X81787415Y-107693489D01*
X81685815Y-107621456D01*
X81632898Y-107552841D01*
X81601148Y-107475053D01*
X81590565Y-107388094D01*
X81613980Y-107263872D01*
X81684227Y-107165844D01*
X81784636Y-107102145D01*
X81898540Y-107080913D01*
X81984265Y-107091827D01*
X82057290Y-107124569D01*
X82154127Y-107168225D01*
X82207705Y-107147191D01*
X82266840Y-107084087D01*
X82303352Y-106994394D01*
X82260490Y-106923750D01*
X82147072Y-106854958D01*
X82029067Y-106813683D01*
X81906477Y-106799925D01*
X81789796Y-106810492D01*
X81681052Y-106842192D01*
X81580246Y-106895026D01*
X81487377Y-106968994D01*
X81409590Y-107058737D01*
X81354027Y-107158898D01*
X81320690Y-107269478D01*
X81309577Y-107390475D01*
X81044994Y-107390475D01*
X81044994Y-106469196D01*
G37*
G36*
X84156163Y-107123180D02*
G01*
X84253596Y-107188069D01*
X84320866Y-107285105D01*
X84343290Y-107403175D01*
X84320271Y-107520848D01*
X84251215Y-107616694D01*
X84153583Y-107680392D01*
X84044840Y-107701625D01*
X83890852Y-107701625D01*
X83890852Y-107101550D01*
X84043252Y-107101550D01*
X84156163Y-107123180D01*
G37*
%TO.C,U2*%
X107160000Y-134500000D02*
X107160000Y-133700000D01*
X104040000Y-134500000D02*
X104040000Y-133700000D01*
X104040000Y-134500000D02*
X104040000Y-136300000D01*
X107160000Y-134500000D02*
X107160000Y-135300000D01*
%TO.C,D1*%
X93659000Y-132450000D02*
X96000000Y-132450000D01*
X93660000Y-137550000D02*
X93659000Y-132450000D01*
X100770000Y-137550000D02*
X93660000Y-137550000D01*
X96000000Y-132450000D02*
X100770000Y-132450000D01*
X100770000Y-132450000D02*
X100770000Y-137550000D01*
X94493203Y-131978000D02*
G75*
G03*
X94493203Y-131978000I-27203J0D01*
G01*
X94703929Y-131978000D02*
G75*
G03*
X94703929Y-131978000I-237929J0D01*
G01*
X94586308Y-131978000D02*
G75*
G03*
X94586308Y-131978000I-120308J0D01*
G01*
%TO.C,kibuzzard-6296F481*%
G36*
X113598125Y-76501275D02*
G01*
X117439875Y-76501275D01*
X117439875Y-78704725D01*
X113598125Y-78704725D01*
X113598125Y-78124970D01*
X113756875Y-78124970D01*
X113768305Y-78224030D01*
X113818787Y-78276894D01*
X113924515Y-78294515D01*
X114022622Y-78281656D01*
X114073105Y-78243080D01*
X114091202Y-78192598D01*
X114094060Y-78126875D01*
X114094060Y-77911610D01*
X114334090Y-77911610D01*
X114393145Y-77907800D01*
X114467228Y-78083272D01*
X114516758Y-78198207D01*
X114541735Y-78252605D01*
X114576977Y-78289753D01*
X114637937Y-78307850D01*
X114736045Y-78281180D01*
X114824627Y-78225935D01*
X114854155Y-78159260D01*
X114844813Y-78126875D01*
X114958930Y-78126875D01*
X114970360Y-78224030D01*
X115020842Y-78278322D01*
X115126570Y-78296420D01*
X115880950Y-78296420D01*
X115980010Y-78284990D01*
X116032874Y-78234508D01*
X116050495Y-78128780D01*
X116049746Y-78123065D01*
X116174320Y-78123065D01*
X116185750Y-78222125D01*
X116236232Y-78276417D01*
X116341960Y-78294515D01*
X116842975Y-78294515D01*
X116957593Y-78280228D01*
X117060145Y-78237365D01*
X117150633Y-78165928D01*
X117221435Y-78073323D01*
X117264933Y-77966961D01*
X117281125Y-77846840D01*
X117268637Y-77739948D01*
X117231172Y-77640253D01*
X117168730Y-77547755D01*
X117223023Y-77437741D01*
X117241120Y-77317250D01*
X117227362Y-77207183D01*
X117186087Y-77108123D01*
X117117295Y-77020070D01*
X117032205Y-76952337D01*
X116934415Y-76911697D01*
X116823925Y-76898150D01*
X116343865Y-76898150D01*
X116245758Y-76911009D01*
X116195275Y-76949585D01*
X116177178Y-76999115D01*
X116174320Y-77065790D01*
X116174320Y-78123065D01*
X116049746Y-78123065D01*
X116037636Y-78030672D01*
X115999060Y-77980190D01*
X115948578Y-77962093D01*
X115882855Y-77959235D01*
X115296115Y-77959235D01*
X115296115Y-77766830D01*
X115669495Y-77766830D01*
X115768555Y-77755400D01*
X115822847Y-77704918D01*
X115840945Y-77599190D01*
X115828086Y-77501083D01*
X115789510Y-77450600D01*
X115739028Y-77432503D01*
X115673305Y-77429645D01*
X115296115Y-77429645D01*
X115296115Y-77237240D01*
X115880950Y-77237240D01*
X115980010Y-77225810D01*
X116032874Y-77175328D01*
X116050495Y-77069600D01*
X116037636Y-76971492D01*
X115999060Y-76921010D01*
X115948578Y-76902912D01*
X115882855Y-76900055D01*
X115132285Y-76900055D01*
X114995125Y-76935297D01*
X114958930Y-77067695D01*
X114958930Y-78126875D01*
X114844813Y-78126875D01*
X114825580Y-78060200D01*
X114772240Y-77938915D01*
X114729060Y-77839220D01*
X114696040Y-77761115D01*
X114775415Y-77659938D01*
X114823040Y-77541828D01*
X114838915Y-77406785D01*
X114826532Y-77288675D01*
X114789385Y-77181995D01*
X114733187Y-77091507D01*
X114663655Y-77021975D01*
X114557187Y-76954242D01*
X114448602Y-76913602D01*
X114337900Y-76900055D01*
X113926420Y-76900055D01*
X113828312Y-76912914D01*
X113777830Y-76951490D01*
X113759732Y-77001973D01*
X113756875Y-77067695D01*
X113756875Y-78124970D01*
X113598125Y-78124970D01*
X113598125Y-76501275D01*
G37*
G36*
X114448390Y-77280103D02*
G01*
X114503635Y-77406785D01*
X114448390Y-77532515D01*
X114337900Y-77574425D01*
X114094060Y-77574425D01*
X114094060Y-77237240D01*
X114334090Y-77237240D01*
X114448390Y-77280103D01*
G37*
G36*
X116872503Y-77254385D02*
G01*
X116903935Y-77321060D01*
X116898220Y-77389640D01*
X116806780Y-77429645D01*
X116689623Y-77456315D01*
X116654380Y-77565852D01*
X116688670Y-77675390D01*
X116791540Y-77702060D01*
X116898220Y-77717300D01*
X116933463Y-77755400D01*
X116943940Y-77827790D01*
X116913936Y-77924945D01*
X116823925Y-77957330D01*
X116511505Y-77957330D01*
X116511505Y-77235335D01*
X116778205Y-77235335D01*
X116872503Y-77254385D01*
G37*
%TO.C,C17*%
X113188748Y-94376999D02*
X113711252Y-94376999D01*
X113188748Y-92906999D02*
X113711252Y-92906999D01*
%TO.C,kibuzzard-6296F5A0*%
G36*
X129761938Y-94469194D02*
G01*
X129877905Y-94547775D01*
X129938759Y-94625245D01*
X129975272Y-94717955D01*
X129987443Y-94825905D01*
X129975378Y-94933643D01*
X129939183Y-95025718D01*
X129878858Y-95102130D01*
X129763605Y-95179283D01*
X129635017Y-95205000D01*
X129506192Y-95178568D01*
X129390225Y-95099272D01*
X129329371Y-95021697D01*
X129292858Y-94929939D01*
X129280687Y-94824000D01*
X129292753Y-94718061D01*
X129328948Y-94626303D01*
X129389273Y-94548727D01*
X129504525Y-94469432D01*
X129633113Y-94443000D01*
X129761938Y-94469194D01*
G37*
G36*
X127796931Y-94486101D02*
G01*
X127913850Y-94563967D01*
X127994574Y-94680411D01*
X128021482Y-94822095D01*
X127993860Y-94963303D01*
X127910992Y-95078317D01*
X127793835Y-95154756D01*
X127663342Y-95180235D01*
X127478557Y-95180235D01*
X127478557Y-94460145D01*
X127661437Y-94460145D01*
X127796931Y-94486101D01*
G37*
G36*
X126982622Y-93708940D02*
G01*
X130483378Y-93708940D01*
X130483378Y-95939060D01*
X126982622Y-95939060D01*
X126982622Y-95347875D01*
X127141372Y-95347875D01*
X127164233Y-95469795D01*
X127214715Y-95505514D01*
X127309012Y-95517420D01*
X127657627Y-95517420D01*
X127797943Y-95504442D01*
X127927423Y-95465509D01*
X128046069Y-95400620D01*
X128106404Y-95349780D01*
X128482493Y-95349780D01*
X128493922Y-95446935D01*
X128544405Y-95501227D01*
X128650132Y-95519325D01*
X128748240Y-95506466D01*
X128798722Y-95467890D01*
X128816820Y-95418360D01*
X128819677Y-95351685D01*
X128819677Y-94833525D01*
X128943503Y-94833525D01*
X128956183Y-94973304D01*
X128994223Y-95103083D01*
X129057624Y-95222859D01*
X129146385Y-95332635D01*
X129253244Y-95424313D01*
X129370937Y-95489798D01*
X129499465Y-95529088D01*
X129638827Y-95542185D01*
X129777893Y-95528910D01*
X129905528Y-95489083D01*
X130021733Y-95422706D01*
X130126508Y-95329778D01*
X130213185Y-95217978D01*
X130275098Y-95094986D01*
X130312245Y-94960803D01*
X130324628Y-94815427D01*
X130311650Y-94670588D01*
X130272716Y-94538012D01*
X130207827Y-94417699D01*
X130116983Y-94309650D01*
X130008517Y-94220472D01*
X129890764Y-94156774D01*
X129763724Y-94118555D01*
X129627398Y-94105815D01*
X129497858Y-94119150D01*
X129372128Y-94159155D01*
X129255446Y-94222496D01*
X129153053Y-94305840D01*
X129067328Y-94410377D01*
X129000653Y-94537297D01*
X128957790Y-94680411D01*
X128943503Y-94833525D01*
X128819677Y-94833525D01*
X128819677Y-94292505D01*
X128810153Y-94193445D01*
X128758241Y-94140581D01*
X128652038Y-94122960D01*
X128553930Y-94135819D01*
X128503448Y-94174395D01*
X128485350Y-94224877D01*
X128482493Y-94290600D01*
X128482493Y-95349780D01*
X128106404Y-95349780D01*
X128153880Y-95309775D01*
X128243475Y-95200773D01*
X128307471Y-95081413D01*
X128345868Y-94951695D01*
X128358667Y-94811617D01*
X128345571Y-94672076D01*
X128306280Y-94543965D01*
X128240796Y-94427284D01*
X128149117Y-94322032D01*
X128040175Y-94234938D01*
X127922899Y-94172728D01*
X127797288Y-94135402D01*
X127663342Y-94122960D01*
X127310917Y-94121055D01*
X127212810Y-94133914D01*
X127162327Y-94172490D01*
X127144230Y-94222020D01*
X127141372Y-94288695D01*
X127141372Y-95347875D01*
X126982622Y-95347875D01*
X126982622Y-93708940D01*
G37*
%TO.C,J6*%
X117869000Y-69983000D02*
X117869000Y-68653000D01*
X120529000Y-71253000D02*
X120529000Y-84013000D01*
X117869000Y-84013000D02*
X120529000Y-84013000D01*
X117869000Y-71253000D02*
X120529000Y-71253000D01*
X117869000Y-68653000D02*
X119199000Y-68653000D01*
X117869000Y-71253000D02*
X117869000Y-84013000D01*
%TO.C,C13*%
X97968000Y-89110164D02*
X97968000Y-89325836D01*
X97248000Y-89110164D02*
X97248000Y-89325836D01*
%TO.C,C7*%
X124429261Y-99930692D02*
X124644933Y-99930692D01*
X124429261Y-99210692D02*
X124644933Y-99210692D01*
%TO.C,kibuzzard-6296F456*%
G36*
X108603940Y-79025082D02*
G01*
X112358060Y-79025082D01*
X112358060Y-81260918D01*
X108603940Y-81260918D01*
X108603940Y-80423988D01*
X108762690Y-80423988D01*
X108783645Y-80526858D01*
X108787455Y-80545907D01*
X108808410Y-80595438D01*
X108855559Y-80671161D01*
X108909375Y-80730693D01*
X109019442Y-80804776D01*
X109146442Y-80849226D01*
X109290375Y-80864043D01*
X109435367Y-80849332D01*
X109563002Y-80805199D01*
X109673280Y-80731645D01*
X109757947Y-80635442D01*
X109808747Y-80523365D01*
X109825680Y-80395413D01*
X109809964Y-80298258D01*
X109762815Y-80212532D01*
X109702807Y-80150620D01*
X109646610Y-80109663D01*
X109646610Y-80096328D01*
X109729160Y-80036532D01*
X109760418Y-79985837D01*
X109901880Y-79985837D01*
X109939980Y-80088708D01*
X110336220Y-80766888D01*
X110353365Y-80787843D01*
X110405752Y-80828800D01*
X110483857Y-80848803D01*
X110566725Y-80823085D01*
X110627685Y-80764983D01*
X110826519Y-80423988D01*
X111136320Y-80423988D01*
X111157275Y-80526858D01*
X111161085Y-80545907D01*
X111182040Y-80595438D01*
X111229189Y-80671161D01*
X111283005Y-80730693D01*
X111393072Y-80804776D01*
X111520072Y-80849226D01*
X111664005Y-80864043D01*
X111808997Y-80849332D01*
X111936632Y-80805199D01*
X112046910Y-80731645D01*
X112131577Y-80635442D01*
X112182377Y-80523365D01*
X112199310Y-80395413D01*
X112183594Y-80298258D01*
X112136445Y-80212532D01*
X112076438Y-80150620D01*
X112020240Y-80109663D01*
X112020240Y-80096328D01*
X112102790Y-80036532D01*
X112152320Y-79956204D01*
X112168830Y-79855345D01*
X112153802Y-79747924D01*
X112108717Y-79647912D01*
X112033575Y-79555307D01*
X111932398Y-79481224D01*
X111809208Y-79436774D01*
X111664005Y-79421957D01*
X111569469Y-79428625D01*
X111483982Y-79448627D01*
X111358253Y-79507682D01*
X111279195Y-79582930D01*
X111237285Y-79642937D01*
X111193470Y-79772478D01*
X111217283Y-79840581D01*
X111288720Y-79900112D01*
X111393495Y-79934402D01*
X111465885Y-79910590D01*
X111519225Y-79839153D01*
X111530655Y-79816292D01*
X111580185Y-79770572D01*
X111687818Y-79747712D01*
X111793545Y-79783907D01*
X111831645Y-79860107D01*
X111795450Y-79915829D01*
X111686865Y-79934402D01*
X111587805Y-79943928D01*
X111534941Y-79995839D01*
X111517320Y-80102042D01*
X111530179Y-80199674D01*
X111568755Y-80248727D01*
X111618285Y-80267778D01*
X111704963Y-80271587D01*
X111815453Y-80310640D01*
X111862125Y-80401128D01*
X111814500Y-80493520D01*
X111753540Y-80524238D01*
X111665910Y-80534478D01*
X111585900Y-80523047D01*
X111481125Y-80431608D01*
X111423975Y-80332548D01*
X111323010Y-80313497D01*
X111182993Y-80341120D01*
X111136320Y-80423988D01*
X110826519Y-80423988D01*
X111022020Y-80088708D01*
X111060120Y-79983933D01*
X111035355Y-79919163D01*
X110961060Y-79858203D01*
X110856285Y-79818197D01*
X110795325Y-79834390D01*
X110761987Y-79866775D01*
X110730555Y-79919162D01*
X110481000Y-80399222D01*
X110231445Y-79919162D01*
X110180962Y-79842010D01*
X110115240Y-79816292D01*
X110000940Y-79858203D01*
X109926645Y-79919639D01*
X109901880Y-79985837D01*
X109760418Y-79985837D01*
X109778690Y-79956204D01*
X109795200Y-79855345D01*
X109780172Y-79747924D01*
X109735087Y-79647912D01*
X109659945Y-79555307D01*
X109558768Y-79481224D01*
X109435578Y-79436774D01*
X109290375Y-79421957D01*
X109195839Y-79428625D01*
X109110352Y-79448627D01*
X108984622Y-79507682D01*
X108905565Y-79582930D01*
X108863655Y-79642937D01*
X108819840Y-79772478D01*
X108843652Y-79840581D01*
X108915090Y-79900112D01*
X109019865Y-79934402D01*
X109092255Y-79910590D01*
X109145595Y-79839153D01*
X109157025Y-79816292D01*
X109206555Y-79770572D01*
X109314187Y-79747712D01*
X109419915Y-79783907D01*
X109458015Y-79860107D01*
X109421820Y-79915829D01*
X109313235Y-79934402D01*
X109214175Y-79943928D01*
X109161311Y-79995839D01*
X109143690Y-80102042D01*
X109156549Y-80199674D01*
X109195125Y-80248727D01*
X109244655Y-80267778D01*
X109331332Y-80271587D01*
X109441822Y-80310640D01*
X109488495Y-80401128D01*
X109440870Y-80493520D01*
X109379910Y-80524238D01*
X109292280Y-80534478D01*
X109212270Y-80523047D01*
X109107495Y-80431608D01*
X109050345Y-80332548D01*
X108949380Y-80313497D01*
X108809362Y-80341120D01*
X108762690Y-80423988D01*
X108603940Y-80423988D01*
X108603940Y-79025082D01*
G37*
%TO.C,TP3*%
X116975000Y-91225000D02*
X116975000Y-89825000D01*
X118375000Y-89825000D02*
X118375000Y-91225000D01*
X118375000Y-91225000D02*
X116975000Y-91225000D01*
X116975000Y-89825000D02*
X118375000Y-89825000D01*
%TO.C,kibuzzard-6296F48A*%
G36*
X113475252Y-73958418D02*
G01*
X117562748Y-73958418D01*
X117562748Y-76167582D01*
X113475252Y-76167582D01*
X113475252Y-75580208D01*
X113634002Y-75580208D01*
X113645432Y-75679268D01*
X113695915Y-75732131D01*
X113801642Y-75749753D01*
X113899750Y-75736894D01*
X113950232Y-75698318D01*
X113968330Y-75647835D01*
X113971187Y-75582113D01*
X113971187Y-75366848D01*
X114211217Y-75366848D01*
X114270272Y-75363037D01*
X114344356Y-75538509D01*
X114393886Y-75653444D01*
X114418862Y-75707843D01*
X114454105Y-75744990D01*
X114515065Y-75763087D01*
X114613172Y-75736418D01*
X114701755Y-75681173D01*
X114731282Y-75614497D01*
X114721940Y-75582113D01*
X114836057Y-75582113D01*
X114847487Y-75679268D01*
X114897970Y-75733560D01*
X115003697Y-75751658D01*
X115758077Y-75751658D01*
X115857137Y-75740228D01*
X115910001Y-75689745D01*
X115922543Y-75614497D01*
X116003823Y-75614497D01*
X116031445Y-75679268D01*
X116114313Y-75736418D01*
X116216230Y-75768803D01*
X116277190Y-75750705D01*
X116311480Y-75715463D01*
X116341008Y-75660218D01*
X116440068Y-75454478D01*
X116967753Y-75454478D01*
X117066813Y-75660218D01*
X117096340Y-75717368D01*
X117130630Y-75753563D01*
X117191590Y-75770707D01*
X117293508Y-75738323D01*
X117376375Y-75679744D01*
X117403998Y-75614497D01*
X117371613Y-75517343D01*
X116857263Y-74454352D01*
X116794398Y-74380058D01*
X116704863Y-74355293D01*
X116614375Y-74381962D01*
X116550557Y-74452447D01*
X116036208Y-75517343D01*
X116003823Y-75614497D01*
X115922543Y-75614497D01*
X115927623Y-75584017D01*
X115914764Y-75485910D01*
X115876187Y-75435427D01*
X115825705Y-75417330D01*
X115759982Y-75414472D01*
X115173242Y-75414472D01*
X115173242Y-75222067D01*
X115546622Y-75222067D01*
X115645683Y-75210638D01*
X115699975Y-75160155D01*
X115718072Y-75054427D01*
X115705214Y-74956320D01*
X115666637Y-74905837D01*
X115616155Y-74887740D01*
X115550432Y-74884883D01*
X115173242Y-74884883D01*
X115173242Y-74692478D01*
X115758077Y-74692478D01*
X115857137Y-74681047D01*
X115910001Y-74630565D01*
X115927623Y-74524837D01*
X115914764Y-74426730D01*
X115876187Y-74376247D01*
X115825705Y-74358150D01*
X115759982Y-74355293D01*
X115009412Y-74355293D01*
X114872252Y-74390535D01*
X114836057Y-74522932D01*
X114836057Y-75582113D01*
X114721940Y-75582113D01*
X114702707Y-75515438D01*
X114649367Y-75394152D01*
X114606187Y-75294457D01*
X114573167Y-75216353D01*
X114652542Y-75115176D01*
X114700167Y-74997066D01*
X114716042Y-74862022D01*
X114703660Y-74743913D01*
X114666512Y-74637232D01*
X114610315Y-74546745D01*
X114540782Y-74477212D01*
X114434314Y-74409479D01*
X114325729Y-74368839D01*
X114215027Y-74355293D01*
X113803547Y-74355293D01*
X113705440Y-74368151D01*
X113654957Y-74406728D01*
X113636860Y-74457210D01*
X113634002Y-74522932D01*
X113634002Y-75580208D01*
X113475252Y-75580208D01*
X113475252Y-73958418D01*
G37*
G36*
X116830592Y-75172538D02*
G01*
X116577228Y-75172538D01*
X116702958Y-74911553D01*
X116830592Y-75172538D01*
G37*
G36*
X114325517Y-74735340D02*
G01*
X114380762Y-74862022D01*
X114325517Y-74987752D01*
X114215027Y-75029663D01*
X113971187Y-75029663D01*
X113971187Y-74692478D01*
X114211217Y-74692478D01*
X114325517Y-74735340D01*
G37*
%TO.C,C19*%
X112001164Y-92470999D02*
X112216836Y-92470999D01*
X112001164Y-91750999D02*
X112216836Y-91750999D01*
%TO.C,kibuzzard-6296F425*%
G36*
X111908083Y-72190816D02*
G01*
X112025003Y-72268683D01*
X112105727Y-72385126D01*
X112132635Y-72526810D01*
X112105013Y-72668018D01*
X112022145Y-72783033D01*
X111904987Y-72859471D01*
X111774495Y-72884950D01*
X111589710Y-72884950D01*
X111589710Y-72164860D01*
X111772590Y-72164860D01*
X111908083Y-72190816D01*
G37*
G36*
X108333430Y-71406035D02*
G01*
X112628570Y-71406035D01*
X112628570Y-73639965D01*
X108333430Y-73639965D01*
X108333430Y-72511570D01*
X108492180Y-72511570D01*
X108505277Y-72657481D01*
X108544568Y-72792319D01*
X108610052Y-72916085D01*
X108701730Y-73028778D01*
X108811148Y-73122539D01*
X108929854Y-73189512D01*
X109057846Y-73229695D01*
X109195125Y-73243090D01*
X109345144Y-73232732D01*
X109475160Y-73201656D01*
X109585174Y-73149864D01*
X109675185Y-73077355D01*
X109685678Y-73054495D01*
X109880925Y-73054495D01*
X109883782Y-73121170D01*
X109901880Y-73172605D01*
X109951410Y-73211181D01*
X110046660Y-73224040D01*
X110144767Y-73211181D01*
X110195250Y-73172605D01*
X110213347Y-73123075D01*
X110216205Y-73056400D01*
X110216205Y-72429655D01*
X110269439Y-72499082D01*
X110338972Y-72590522D01*
X110424803Y-72703975D01*
X110526932Y-72839442D01*
X110645359Y-72996922D01*
X110780085Y-73176415D01*
X110827710Y-73212610D01*
X110930580Y-73224040D01*
X111028687Y-73211181D01*
X111079170Y-73172605D01*
X111097268Y-73123075D01*
X111100125Y-73056400D01*
X111100125Y-73052590D01*
X111252525Y-73052590D01*
X111275385Y-73174510D01*
X111325867Y-73210229D01*
X111420165Y-73222135D01*
X111768780Y-73222135D01*
X111909095Y-73209157D01*
X112038576Y-73170224D01*
X112157221Y-73105335D01*
X112265033Y-73014490D01*
X112354627Y-72905488D01*
X112418623Y-72786128D01*
X112457021Y-72656410D01*
X112469820Y-72516333D01*
X112456723Y-72376791D01*
X112417432Y-72248680D01*
X112351948Y-72131999D01*
X112260270Y-72026748D01*
X112151328Y-71939653D01*
X112034051Y-71877443D01*
X111908440Y-71840117D01*
X111774495Y-71827675D01*
X111422070Y-71825770D01*
X111323962Y-71838629D01*
X111273480Y-71877205D01*
X111255383Y-71926735D01*
X111252525Y-71993410D01*
X111252525Y-73052590D01*
X111100125Y-73052590D01*
X111100125Y-71999125D01*
X111088695Y-71901970D01*
X111064883Y-71861965D01*
X111015353Y-71839105D01*
X110927723Y-71829580D01*
X110837235Y-71841010D01*
X110782943Y-71885778D01*
X110764845Y-71991505D01*
X110764845Y-72635395D01*
X110712352Y-72566656D01*
X110645042Y-72477280D01*
X110562915Y-72367266D01*
X110465972Y-72236615D01*
X110354212Y-72085326D01*
X110227635Y-71913400D01*
X110183820Y-71863870D01*
X110137147Y-71840058D01*
X110046660Y-71829580D01*
X109953315Y-71841010D01*
X109899022Y-71885778D01*
X109880925Y-71991505D01*
X109880925Y-73054495D01*
X109685678Y-73054495D01*
X109728525Y-72961150D01*
X109728525Y-72542050D01*
X109709475Y-72435370D01*
X109583745Y-72382030D01*
X109248465Y-72382030D01*
X109157025Y-72399175D01*
X109125592Y-72441085D01*
X109117020Y-72522048D01*
X109124640Y-72602058D01*
X109157025Y-72646825D01*
X109240845Y-72662065D01*
X109391340Y-72662065D01*
X109391340Y-72869710D01*
X109302281Y-72895428D01*
X109202745Y-72904000D01*
X109065585Y-72875187D01*
X108943665Y-72788747D01*
X108880165Y-72706409D01*
X108842065Y-72613064D01*
X108829365Y-72508713D01*
X108857464Y-72359646D01*
X108941760Y-72242013D01*
X109062251Y-72165574D01*
X109198935Y-72140095D01*
X109301805Y-72153192D01*
X109389435Y-72192483D01*
X109505640Y-72244870D01*
X109569934Y-72219629D01*
X109640895Y-72143905D01*
X109684710Y-72036272D01*
X109633275Y-71951500D01*
X109497173Y-71868950D01*
X109355568Y-71819420D01*
X109208460Y-71802910D01*
X109068442Y-71815590D01*
X108937950Y-71853631D01*
X108816982Y-71917031D01*
X108705540Y-72005792D01*
X108612195Y-72113485D01*
X108545520Y-72233678D01*
X108505515Y-72366373D01*
X108492180Y-72511570D01*
X108333430Y-72511570D01*
X108333430Y-71406035D01*
G37*
%TO.C,SW2*%
X120350000Y-140930000D02*
X120350000Y-141720000D01*
X125200000Y-139880000D02*
X125400000Y-139880000D01*
X127250000Y-141720000D02*
X127250000Y-140930000D01*
X122200000Y-139880000D02*
X123900000Y-139880000D01*
X122600000Y-144230000D02*
X123500000Y-144230000D01*
X123700000Y-144020000D02*
X123500000Y-144230000D01*
X122400000Y-142730000D02*
X122400000Y-144020000D01*
X120950000Y-142730000D02*
X126650000Y-142730000D01*
X122400000Y-144020000D02*
X122600000Y-144230000D01*
X123700000Y-144020000D02*
X123700000Y-142730000D01*
%TO.C,R14*%
X121736359Y-92170000D02*
X122043641Y-92170000D01*
X121736359Y-92930000D02*
X122043641Y-92930000D01*
D17*
%TO.C,SW4*%
X142506000Y-106413000D02*
X141006000Y-106413000D01*
X141006000Y-109413000D02*
X142506000Y-109413000D01*
D14*
X143506000Y-110913000D02*
X143506000Y-104913000D01*
X140006000Y-104913000D02*
X140006000Y-110913000D01*
D17*
X142506000Y-109413000D02*
X142506000Y-106413000D01*
X141006000Y-106413000D02*
X141006000Y-109413000D01*
D14*
X139883000Y-112463000D02*
G75*
G03*
X139883000Y-112463000I-127000J0D01*
G01*
D13*
%TO.C,C4*%
X131960836Y-89424000D02*
X131745164Y-89424000D01*
X131960836Y-90144000D02*
X131745164Y-90144000D01*
%TO.C,kibuzzard-6296F44E*%
G36*
X111792593Y-77260100D02*
G01*
X111824025Y-77326775D01*
X111818310Y-77395355D01*
X111726870Y-77435360D01*
X111609713Y-77462030D01*
X111574470Y-77571567D01*
X111608760Y-77681105D01*
X111711630Y-77707775D01*
X111818310Y-77723015D01*
X111853553Y-77761115D01*
X111864030Y-77833505D01*
X111834026Y-77930660D01*
X111744015Y-77963045D01*
X111431595Y-77963045D01*
X111431595Y-77241050D01*
X111698295Y-77241050D01*
X111792593Y-77260100D01*
G37*
G36*
X108602035Y-76506990D02*
G01*
X112359965Y-76506990D01*
X112359965Y-78699010D01*
X108602035Y-78699010D01*
X108602035Y-78132590D01*
X108760785Y-78132590D01*
X108772215Y-78229745D01*
X108822697Y-78284037D01*
X108928425Y-78302135D01*
X109614225Y-78302135D01*
X109713285Y-78283085D01*
X109745670Y-78241175D01*
X109755195Y-78160213D01*
X109751945Y-78132590D01*
X109879020Y-78132590D01*
X109890450Y-78229745D01*
X109940932Y-78284037D01*
X110046660Y-78302135D01*
X110801040Y-78302135D01*
X110900100Y-78290705D01*
X110952964Y-78240223D01*
X110970585Y-78134495D01*
X110969836Y-78128780D01*
X111094410Y-78128780D01*
X111105840Y-78227840D01*
X111156322Y-78282132D01*
X111262050Y-78300230D01*
X111763065Y-78300230D01*
X111877683Y-78285942D01*
X111980235Y-78243080D01*
X112070723Y-78171643D01*
X112141525Y-78079038D01*
X112185023Y-77972676D01*
X112201215Y-77852555D01*
X112188727Y-77745663D01*
X112151262Y-77645968D01*
X112088820Y-77553470D01*
X112143113Y-77443456D01*
X112161210Y-77322965D01*
X112147452Y-77212898D01*
X112106177Y-77113838D01*
X112037385Y-77025785D01*
X111952295Y-76958052D01*
X111854505Y-76917412D01*
X111744015Y-76903865D01*
X111263955Y-76903865D01*
X111165848Y-76916724D01*
X111115365Y-76955300D01*
X111097268Y-77004830D01*
X111094410Y-77071505D01*
X111094410Y-78128780D01*
X110969836Y-78128780D01*
X110957726Y-78036387D01*
X110919150Y-77985905D01*
X110868668Y-77967808D01*
X110802945Y-77964950D01*
X110216205Y-77964950D01*
X110216205Y-77772545D01*
X110589585Y-77772545D01*
X110688645Y-77761115D01*
X110742938Y-77710633D01*
X110761035Y-77604905D01*
X110748176Y-77506798D01*
X110709600Y-77456315D01*
X110659117Y-77438217D01*
X110593395Y-77435360D01*
X110216205Y-77435360D01*
X110216205Y-77242955D01*
X110801040Y-77242955D01*
X110900100Y-77231525D01*
X110952964Y-77181043D01*
X110970585Y-77075315D01*
X110957726Y-76977207D01*
X110919150Y-76926725D01*
X110868668Y-76908627D01*
X110802945Y-76905770D01*
X110052375Y-76905770D01*
X109915215Y-76941012D01*
X109879020Y-77073410D01*
X109879020Y-78132590D01*
X109751945Y-78132590D01*
X109745670Y-78079250D01*
X109707570Y-78034483D01*
X109616130Y-78020195D01*
X109097970Y-78020195D01*
X109097970Y-77075315D01*
X109088445Y-76976255D01*
X109036534Y-76923391D01*
X108930330Y-76905770D01*
X108832222Y-76918629D01*
X108781740Y-76957205D01*
X108763642Y-77007687D01*
X108760785Y-77073410D01*
X108760785Y-78132590D01*
X108602035Y-78132590D01*
X108602035Y-76506990D01*
G37*
%TO.C,R2*%
X102380000Y-127153641D02*
X102380000Y-126846359D01*
X101620000Y-127153641D02*
X101620000Y-126846359D01*
%TO.C,R5*%
X140803641Y-99649000D02*
X140496359Y-99649000D01*
X140803641Y-98889000D02*
X140496359Y-98889000D01*
%TO.C,C6*%
X123833836Y-105327000D02*
X123618164Y-105327000D01*
X123833836Y-104607000D02*
X123618164Y-104607000D01*
%TO.C,D5*%
X96865000Y-97977500D02*
X96865000Y-100262500D01*
X98335000Y-97977500D02*
X96865000Y-97977500D01*
X98335000Y-100262500D02*
X98335000Y-97977500D01*
%TO.C,kibuzzard-6296F5BA*%
G36*
X126855940Y-101326082D02*
G01*
X130610060Y-101326082D01*
X130610060Y-103561918D01*
X126855940Y-103561918D01*
X126855940Y-102724988D01*
X127014690Y-102724988D01*
X127035645Y-102827858D01*
X127039455Y-102846907D01*
X127060410Y-102896438D01*
X127107559Y-102972161D01*
X127161375Y-103031693D01*
X127271442Y-103105776D01*
X127398442Y-103150226D01*
X127542375Y-103165043D01*
X127687367Y-103150332D01*
X127815002Y-103106199D01*
X127925280Y-103032645D01*
X128009947Y-102936442D01*
X128060747Y-102824365D01*
X128077680Y-102696413D01*
X128061964Y-102599258D01*
X128014815Y-102513532D01*
X127954807Y-102451620D01*
X127898610Y-102410663D01*
X127898610Y-102397328D01*
X127981160Y-102337532D01*
X128012418Y-102286837D01*
X128153880Y-102286837D01*
X128191980Y-102389708D01*
X128588220Y-103067888D01*
X128605365Y-103088843D01*
X128657752Y-103129800D01*
X128735857Y-103149803D01*
X128818725Y-103124085D01*
X128879685Y-103065983D01*
X129078519Y-102724988D01*
X129388320Y-102724988D01*
X129409275Y-102827858D01*
X129413085Y-102846907D01*
X129434040Y-102896438D01*
X129481189Y-102972161D01*
X129535005Y-103031693D01*
X129645072Y-103105776D01*
X129772072Y-103150226D01*
X129916005Y-103165043D01*
X130060997Y-103150332D01*
X130188632Y-103106199D01*
X130298910Y-103032645D01*
X130383577Y-102936442D01*
X130434377Y-102824365D01*
X130451310Y-102696413D01*
X130435594Y-102599258D01*
X130388445Y-102513532D01*
X130328438Y-102451620D01*
X130272240Y-102410663D01*
X130272240Y-102397328D01*
X130354790Y-102337532D01*
X130404320Y-102257204D01*
X130420830Y-102156345D01*
X130405802Y-102048924D01*
X130360717Y-101948912D01*
X130285575Y-101856307D01*
X130184398Y-101782224D01*
X130061208Y-101737774D01*
X129916005Y-101722957D01*
X129821469Y-101729625D01*
X129735982Y-101749627D01*
X129610253Y-101808682D01*
X129531195Y-101883930D01*
X129489285Y-101943937D01*
X129445470Y-102073478D01*
X129469283Y-102141581D01*
X129540720Y-102201112D01*
X129645495Y-102235402D01*
X129717885Y-102211590D01*
X129771225Y-102140153D01*
X129782655Y-102117292D01*
X129832185Y-102071572D01*
X129939818Y-102048712D01*
X130045545Y-102084907D01*
X130083645Y-102161107D01*
X130047450Y-102216829D01*
X129938865Y-102235402D01*
X129839805Y-102244928D01*
X129786941Y-102296839D01*
X129769320Y-102403042D01*
X129782179Y-102500674D01*
X129820755Y-102549727D01*
X129870285Y-102568778D01*
X129956963Y-102572587D01*
X130067453Y-102611640D01*
X130114125Y-102702128D01*
X130066500Y-102794520D01*
X130005540Y-102825238D01*
X129917910Y-102835478D01*
X129837900Y-102824047D01*
X129733125Y-102732608D01*
X129675975Y-102633548D01*
X129575010Y-102614497D01*
X129434993Y-102642120D01*
X129388320Y-102724988D01*
X129078519Y-102724988D01*
X129274020Y-102389708D01*
X129312120Y-102284933D01*
X129287355Y-102220163D01*
X129213060Y-102159203D01*
X129108285Y-102119197D01*
X129047325Y-102135390D01*
X129013987Y-102167775D01*
X128982555Y-102220162D01*
X128733000Y-102700222D01*
X128483445Y-102220162D01*
X128432962Y-102143010D01*
X128367240Y-102117292D01*
X128252940Y-102159203D01*
X128178645Y-102220639D01*
X128153880Y-102286837D01*
X128012418Y-102286837D01*
X128030690Y-102257204D01*
X128047200Y-102156345D01*
X128032172Y-102048924D01*
X127987087Y-101948912D01*
X127911945Y-101856307D01*
X127810768Y-101782224D01*
X127687578Y-101737774D01*
X127542375Y-101722957D01*
X127447839Y-101729625D01*
X127362352Y-101749627D01*
X127236622Y-101808682D01*
X127157565Y-101883930D01*
X127115655Y-101943937D01*
X127071840Y-102073478D01*
X127095652Y-102141581D01*
X127167090Y-102201112D01*
X127271865Y-102235402D01*
X127344255Y-102211590D01*
X127397595Y-102140153D01*
X127409025Y-102117292D01*
X127458555Y-102071572D01*
X127566187Y-102048712D01*
X127671915Y-102084907D01*
X127710015Y-102161107D01*
X127673820Y-102216829D01*
X127565235Y-102235402D01*
X127466175Y-102244928D01*
X127413311Y-102296839D01*
X127395690Y-102403042D01*
X127408549Y-102500674D01*
X127447125Y-102549727D01*
X127496655Y-102568778D01*
X127583332Y-102572587D01*
X127693822Y-102611640D01*
X127740495Y-102702128D01*
X127692870Y-102794520D01*
X127631910Y-102825238D01*
X127544280Y-102835478D01*
X127464270Y-102824047D01*
X127359495Y-102732608D01*
X127302345Y-102633548D01*
X127201380Y-102614497D01*
X127061362Y-102642120D01*
X127014690Y-102724988D01*
X126855940Y-102724988D01*
X126855940Y-101326082D01*
G37*
%TO.C,kibuzzard-6296F631*%
G36*
X136948988Y-72610938D02*
G01*
X136948988Y-71724477D01*
X137345863Y-71724477D01*
X137359727Y-71857933D01*
X137401319Y-71971281D01*
X137470640Y-72064520D01*
X137558587Y-72133841D01*
X137656060Y-72175433D01*
X137763057Y-72189297D01*
X137876167Y-72177153D01*
X137971655Y-72140720D01*
X138046664Y-72086189D01*
X138098337Y-72019752D01*
X138135723Y-71944505D01*
X138167870Y-71863542D01*
X138193349Y-71782580D01*
X138210732Y-71707332D01*
X138253595Y-71586365D01*
X138326938Y-71537787D01*
X138407371Y-71557472D01*
X138455631Y-71616527D01*
X138471717Y-71714952D01*
X138442190Y-71806392D01*
X138380278Y-71882592D01*
X138308840Y-71967365D01*
X138285027Y-72031182D01*
X138330747Y-72132147D01*
X138402899Y-72193584D01*
X138459335Y-72214062D01*
X138568872Y-72164532D01*
X138589828Y-72147387D01*
X138647930Y-72092142D01*
X138707938Y-72006417D01*
X138762230Y-71876877D01*
X138778661Y-71794486D01*
X138784137Y-71707332D01*
X138772919Y-71592821D01*
X138739264Y-71482966D01*
X138683173Y-71377767D01*
X138621022Y-71305377D01*
X138537440Y-71248227D01*
X138435761Y-71211080D01*
X138319318Y-71198697D01*
X138205256Y-71210842D01*
X138110720Y-71247275D01*
X138038568Y-71301806D01*
X137991658Y-71368242D01*
X137959987Y-71443966D01*
X137933555Y-71526357D01*
X137912838Y-71608749D01*
X137898313Y-71684472D01*
X137854498Y-71805440D01*
X137769725Y-71854017D01*
X137687810Y-71813060D01*
X137658282Y-71710190D01*
X137683047Y-71608272D01*
X137707812Y-71578745D01*
X137726862Y-71556837D01*
X137764963Y-71457777D01*
X137741150Y-71390150D01*
X137669712Y-71324427D01*
X137564937Y-71278707D01*
X137471592Y-71337762D01*
X137435398Y-71385387D01*
X137375390Y-71515880D01*
X137353244Y-71615178D01*
X137345863Y-71724477D01*
X136948988Y-71724477D01*
X136948988Y-70628150D01*
X137366818Y-70628150D01*
X137416347Y-70735782D01*
X137420158Y-70741497D01*
X137702098Y-71053917D01*
X137814492Y-71122497D01*
X137932603Y-71062490D01*
X137999278Y-70947237D01*
X137940223Y-70813887D01*
X137917363Y-70789122D01*
X138597447Y-70789122D01*
X138666980Y-70786265D01*
X138719368Y-70768167D01*
X138756515Y-70717209D01*
X138768897Y-70621482D01*
X138756039Y-70523375D01*
X138717463Y-70472892D01*
X138666980Y-70454795D01*
X138601258Y-70451937D01*
X137540172Y-70451937D01*
X137439207Y-70461462D01*
X137398250Y-70488132D01*
X137376343Y-70537662D01*
X137366818Y-70628150D01*
X136948988Y-70628150D01*
X136948988Y-70055062D01*
X139181012Y-70055062D01*
X139181012Y-72610938D01*
X136948988Y-72610938D01*
G37*
%TO.C,kibuzzard-6296FA71*%
G36*
X117444002Y-137650783D02*
G01*
X120881998Y-137650783D01*
X120881998Y-139509217D01*
X117444002Y-139509217D01*
X117444002Y-138587937D01*
X117576294Y-138587937D01*
X117586861Y-138704420D01*
X117618561Y-138812569D01*
X117671395Y-138912383D01*
X117745362Y-139003863D01*
X117834411Y-139080261D01*
X117932489Y-139134831D01*
X118039596Y-139167573D01*
X118155731Y-139178488D01*
X118271619Y-139167425D01*
X118377981Y-139134236D01*
X118474819Y-139078921D01*
X118543337Y-139018150D01*
X118830419Y-139018150D01*
X118839944Y-139099113D01*
X118882012Y-139144356D01*
X118970119Y-139159437D01*
X119051875Y-139148722D01*
X119093944Y-139116575D01*
X119109025Y-139075300D01*
X119111406Y-139019737D01*
X119111406Y-139018150D01*
X119841656Y-139018150D01*
X119851181Y-139099113D01*
X119893250Y-139144356D01*
X119981356Y-139159437D01*
X120063113Y-139148722D01*
X120105181Y-139116575D01*
X120120262Y-139075300D01*
X120122644Y-139019737D01*
X120122644Y-138719700D01*
X120433794Y-138719700D01*
X120514756Y-138711762D01*
X120560000Y-138668503D01*
X120575081Y-138580000D01*
X120564763Y-138497847D01*
X120533806Y-138454587D01*
X120491738Y-138439506D01*
X120435381Y-138437125D01*
X120122644Y-138437125D01*
X120122644Y-138276787D01*
X120608419Y-138276787D01*
X120664775Y-138274406D01*
X120706844Y-138260119D01*
X120740181Y-138218050D01*
X120749706Y-138137087D01*
X120740181Y-138056125D01*
X120707638Y-138013262D01*
X120666363Y-137998181D01*
X120611594Y-137995800D01*
X119986119Y-137995800D01*
X119871819Y-138025169D01*
X119841656Y-138135500D01*
X119841656Y-139018150D01*
X119111406Y-139018150D01*
X119111406Y-138719700D01*
X119422556Y-138719700D01*
X119503519Y-138711762D01*
X119548762Y-138668503D01*
X119563844Y-138580000D01*
X119553525Y-138497847D01*
X119522569Y-138454587D01*
X119480500Y-138439506D01*
X119424144Y-138437125D01*
X119111406Y-138437125D01*
X119111406Y-138276787D01*
X119597181Y-138276787D01*
X119653538Y-138274406D01*
X119695606Y-138260119D01*
X119728944Y-138218050D01*
X119738469Y-138137087D01*
X119728944Y-138056125D01*
X119696400Y-138013262D01*
X119655125Y-137998181D01*
X119600356Y-137995800D01*
X118974881Y-137995800D01*
X118860581Y-138025169D01*
X118830419Y-138135500D01*
X118830419Y-139018150D01*
X118543337Y-139018150D01*
X118562131Y-139001481D01*
X118634362Y-138908315D01*
X118685956Y-138805822D01*
X118716912Y-138694002D01*
X118727231Y-138572856D01*
X118716416Y-138452157D01*
X118683972Y-138341677D01*
X118629898Y-138241416D01*
X118554194Y-138151375D01*
X118463805Y-138077060D01*
X118365678Y-138023978D01*
X118259812Y-137992129D01*
X118146206Y-137981512D01*
X118038256Y-137992625D01*
X117933481Y-138025962D01*
X117836247Y-138078747D01*
X117750919Y-138148200D01*
X117679481Y-138235314D01*
X117623919Y-138341081D01*
X117588200Y-138460342D01*
X117576294Y-138587937D01*
X117444002Y-138587937D01*
X117444002Y-137650783D01*
G37*
G36*
X118258323Y-138284328D02*
G01*
X118354962Y-138349812D01*
X118405674Y-138414371D01*
X118436101Y-138491629D01*
X118446244Y-138581587D01*
X118436190Y-138671369D01*
X118406027Y-138748099D01*
X118355756Y-138811775D01*
X118259712Y-138876069D01*
X118152556Y-138897500D01*
X118045202Y-138875473D01*
X117948562Y-138809394D01*
X117897851Y-138744747D01*
X117867424Y-138668283D01*
X117857281Y-138580000D01*
X117867335Y-138491717D01*
X117897498Y-138415253D01*
X117947769Y-138350606D01*
X118043812Y-138284527D01*
X118150969Y-138262500D01*
X118258323Y-138284328D01*
G37*
%TO.C,U5*%
X116610000Y-100690000D02*
X116610000Y-101140000D01*
X116610000Y-107910000D02*
X116610000Y-107460000D01*
X116160000Y-107910000D02*
X116610000Y-107910000D01*
X116160000Y-100690000D02*
X116610000Y-100690000D01*
X109840000Y-107910000D02*
X109390000Y-107910000D01*
X109390000Y-100690000D02*
X109390000Y-101140000D01*
X109840000Y-100690000D02*
X109390000Y-100690000D01*
X109390000Y-107910000D02*
X109390000Y-107460000D01*
X116610000Y-107460000D02*
X117900000Y-107460000D01*
%TO.C,R8*%
X87636359Y-90720000D02*
X87943641Y-90720000D01*
X87636359Y-91480000D02*
X87943641Y-91480000D01*
%TO.C,kibuzzard-6296FD01*%
G36*
X125029623Y-136469990D02*
G01*
X129370377Y-136469990D01*
X129370377Y-138330010D01*
X125029623Y-138330010D01*
X125029623Y-137728613D01*
X125294206Y-137728613D01*
X125335481Y-137819894D01*
X125349769Y-137837356D01*
X125395806Y-137885775D01*
X125467244Y-137935781D01*
X125575194Y-137981025D01*
X125643853Y-137994717D01*
X125716481Y-137999281D01*
X125811908Y-137989933D01*
X125903453Y-137961887D01*
X125991119Y-137915144D01*
X126051444Y-137863352D01*
X126099069Y-137793700D01*
X126130025Y-137708967D01*
X126140344Y-137611931D01*
X126130223Y-137516880D01*
X126099862Y-137438100D01*
X126054420Y-137377973D01*
X125999056Y-137338881D01*
X125935953Y-137312489D01*
X125867294Y-137290462D01*
X125798634Y-137273198D01*
X125735531Y-137261094D01*
X125634725Y-137224581D01*
X125594244Y-137153937D01*
X125628375Y-137085675D01*
X125714100Y-137061069D01*
X125799031Y-137081706D01*
X125823637Y-137102344D01*
X125841894Y-137118219D01*
X125924444Y-137149969D01*
X125980800Y-137130125D01*
X126035569Y-137070594D01*
X126073669Y-136983281D01*
X126038517Y-136927719D01*
X126203844Y-136927719D01*
X126221306Y-137005506D01*
X126527694Y-137886569D01*
X126538806Y-137910381D01*
X126582462Y-137958006D01*
X126665806Y-137981819D01*
X126753119Y-137945306D01*
X126778519Y-137913556D01*
X126792806Y-137886569D01*
X126800998Y-137862312D01*
X126823032Y-137797161D01*
X126858910Y-137691116D01*
X126908630Y-137544177D01*
X126972194Y-137356344D01*
X127157931Y-137904031D01*
X127203175Y-137955625D01*
X127284137Y-137981819D01*
X127365100Y-137955625D01*
X127407169Y-137913556D01*
X127418281Y-137886569D01*
X127433109Y-137843706D01*
X127805631Y-137843706D01*
X127846906Y-137943719D01*
X127945331Y-137986581D01*
X128566044Y-137986581D01*
X128664469Y-137967531D01*
X128698600Y-137926256D01*
X128708919Y-137846087D01*
X128699394Y-137765125D01*
X128662088Y-137719088D01*
X128569219Y-137704006D01*
X128278706Y-137704006D01*
X128278706Y-137696069D01*
X128318394Y-137680194D01*
X128416819Y-137626616D01*
X128527944Y-137538906D01*
X128579537Y-137481756D01*
X128623194Y-137408731D01*
X128652959Y-137325387D01*
X128662881Y-137237281D01*
X128649652Y-137128185D01*
X128609965Y-137027378D01*
X128543819Y-136934862D01*
X128456418Y-136861220D01*
X128352966Y-136817035D01*
X128233462Y-136802306D01*
X128114047Y-136816858D01*
X128010860Y-136860515D01*
X127923900Y-136933275D01*
X127858195Y-137024380D01*
X127818772Y-137123069D01*
X127805631Y-137229344D01*
X127813569Y-137310306D01*
X127856828Y-137355550D01*
X127945331Y-137370631D01*
X128026294Y-137361106D01*
X128069156Y-137332531D01*
X128084237Y-137292844D01*
X128086619Y-137240456D01*
X128086619Y-137230931D01*
X128092969Y-137194419D01*
X128135037Y-137120600D01*
X128223144Y-137083294D01*
X128302519Y-137097581D01*
X128344587Y-137128538D01*
X128369194Y-137171400D01*
X128380306Y-137211881D01*
X128365423Y-137281334D01*
X128320775Y-137346819D01*
X128255092Y-137406945D01*
X128177106Y-137460325D01*
X128092969Y-137510728D01*
X128008831Y-137561925D01*
X127930845Y-137618678D01*
X127865162Y-137685750D01*
X127820514Y-137761355D01*
X127805631Y-137843706D01*
X127433109Y-137843706D01*
X127723081Y-137005506D01*
X127742131Y-136927719D01*
X127715541Y-136870569D01*
X127635769Y-136826119D01*
X127561156Y-136810244D01*
X127507975Y-136826912D01*
X127478606Y-136861044D01*
X127457969Y-136915019D01*
X127283344Y-137448419D01*
X127100781Y-136897556D01*
X127056331Y-136845962D01*
X126980925Y-136819769D01*
X126915044Y-136830881D01*
X126865434Y-136866600D01*
X126834081Y-136922956D01*
X126661044Y-137445244D01*
X126486419Y-136915019D01*
X126450700Y-136837231D01*
X126393550Y-136811831D01*
X126310206Y-136827706D01*
X126230434Y-136870966D01*
X126203844Y-136927719D01*
X126038517Y-136927719D01*
X126024456Y-136905494D01*
X125984769Y-136875331D01*
X125876025Y-136825325D01*
X125793277Y-136806870D01*
X125702194Y-136800719D01*
X125590981Y-136812272D01*
X125496524Y-136846933D01*
X125418825Y-136904700D01*
X125361058Y-136977990D01*
X125326397Y-137059217D01*
X125314844Y-137148381D01*
X125324964Y-137242639D01*
X125355325Y-137322212D01*
X125400767Y-137384720D01*
X125456131Y-137427781D01*
X125518837Y-137458936D01*
X125586306Y-137485725D01*
X125653775Y-137506958D01*
X125716481Y-137521444D01*
X125817287Y-137557163D01*
X125857769Y-137618281D01*
X125841365Y-137685309D01*
X125792152Y-137725526D01*
X125710131Y-137738931D01*
X125633931Y-137714325D01*
X125570431Y-137662731D01*
X125499787Y-137603200D01*
X125446606Y-137583356D01*
X125362469Y-137621456D01*
X125311272Y-137681583D01*
X125294206Y-137728613D01*
X125029623Y-137728613D01*
X125029623Y-136469990D01*
G37*
%TO.C,kibuzzard-6296F463*%
G36*
X112013573Y-82340100D02*
G01*
X112045005Y-82406775D01*
X112039290Y-82475355D01*
X111947850Y-82515360D01*
X111830693Y-82542030D01*
X111795450Y-82651567D01*
X111829740Y-82761105D01*
X111932610Y-82787775D01*
X112039290Y-82803015D01*
X112074533Y-82841115D01*
X112085010Y-82913505D01*
X112055006Y-83010660D01*
X111964995Y-83043045D01*
X111652575Y-83043045D01*
X111652575Y-82321050D01*
X111919275Y-82321050D01*
X112013573Y-82340100D01*
G37*
G36*
X108381055Y-81586990D02*
G01*
X112580945Y-81586990D01*
X112580945Y-83779010D01*
X108381055Y-83779010D01*
X108381055Y-83212590D01*
X108539805Y-83212590D01*
X108551235Y-83309745D01*
X108601717Y-83364037D01*
X108707445Y-83382135D01*
X109393245Y-83382135D01*
X109492305Y-83363085D01*
X109524690Y-83321175D01*
X109534215Y-83240213D01*
X109530741Y-83210685D01*
X109658040Y-83210685D01*
X109660897Y-83279265D01*
X109678995Y-83328795D01*
X109729478Y-83367371D01*
X109823775Y-83380230D01*
X109920930Y-83367371D01*
X109972365Y-83328795D01*
X109990463Y-83280218D01*
X109993320Y-83214495D01*
X109993320Y-82572510D01*
X110028563Y-82619897D01*
X110115240Y-82739198D01*
X110209061Y-82867547D01*
X110265735Y-82942080D01*
X110280975Y-82963035D01*
X110331458Y-83002087D01*
X110409563Y-83022090D01*
X110489573Y-83000182D01*
X110536245Y-82965893D01*
X110570535Y-82921125D01*
X110611969Y-82864689D01*
X110686740Y-82760153D01*
X110767226Y-82648948D01*
X110825805Y-82572510D01*
X110825805Y-83210685D01*
X110835330Y-83309745D01*
X110862000Y-83347845D01*
X110911530Y-83370705D01*
X110999160Y-83380230D01*
X111090600Y-83368800D01*
X111144893Y-83318794D01*
X111162990Y-83214495D01*
X111162990Y-83208780D01*
X111315390Y-83208780D01*
X111326820Y-83307840D01*
X111377303Y-83362132D01*
X111483030Y-83380230D01*
X111984045Y-83380230D01*
X112098663Y-83365942D01*
X112201215Y-83323080D01*
X112291703Y-83251643D01*
X112362505Y-83159038D01*
X112406003Y-83052676D01*
X112422195Y-82932555D01*
X112409707Y-82825663D01*
X112372242Y-82725968D01*
X112309800Y-82633470D01*
X112364093Y-82523456D01*
X112382190Y-82402965D01*
X112368432Y-82292898D01*
X112327157Y-82193838D01*
X112258365Y-82105785D01*
X112173275Y-82038052D01*
X112075485Y-81997412D01*
X111964995Y-81983865D01*
X111484935Y-81983865D01*
X111386828Y-81996724D01*
X111336345Y-82035300D01*
X111318248Y-82084830D01*
X111315390Y-82151505D01*
X111315390Y-83208780D01*
X111162990Y-83208780D01*
X111162990Y-82157220D01*
X111160133Y-82090545D01*
X111142035Y-82039110D01*
X111091791Y-82000534D01*
X110994397Y-81987675D01*
X110895576Y-82000534D01*
X110841045Y-82039110D01*
X110789000Y-82105633D01*
X110719735Y-82195472D01*
X110633248Y-82308629D01*
X110529539Y-82445104D01*
X110408610Y-82604895D01*
X109976175Y-82037205D01*
X109964745Y-82025775D01*
X109916167Y-82000058D01*
X109827585Y-81987675D01*
X109730430Y-82000057D01*
X109678995Y-82037205D01*
X109660897Y-82087687D01*
X109658040Y-82153410D01*
X109658040Y-83210685D01*
X109530741Y-83210685D01*
X109524690Y-83159250D01*
X109486590Y-83114483D01*
X109395150Y-83100195D01*
X108876990Y-83100195D01*
X108876990Y-82155315D01*
X108867465Y-82056255D01*
X108815554Y-82003391D01*
X108709350Y-81985770D01*
X108611242Y-81998629D01*
X108560760Y-82037205D01*
X108542662Y-82087687D01*
X108539805Y-82153410D01*
X108539805Y-83212590D01*
X108381055Y-83212590D01*
X108381055Y-81586990D01*
G37*
%TO.C,R12*%
X119867000Y-97825641D02*
X119867000Y-97518359D01*
X120627000Y-97825641D02*
X120627000Y-97518359D01*
D11*
%TO.C,U4*%
X96566000Y-85344000D02*
X96041000Y-85344000D01*
X96566000Y-89644000D02*
X96041000Y-89644000D01*
X92266000Y-85344000D02*
X92266000Y-85869000D01*
X96566000Y-89644000D02*
X96566000Y-89119000D01*
X92266000Y-85344000D02*
X92791000Y-85344000D01*
X92266000Y-89644000D02*
X92266000Y-89119000D01*
X92266000Y-89644000D02*
X92791000Y-89644000D01*
X96566000Y-85344000D02*
X96566000Y-85869000D01*
D13*
%TO.C,J2*%
X139395000Y-78453000D02*
X131655000Y-78453000D01*
X136795000Y-73253000D02*
X136795000Y-75853000D01*
X131655000Y-73253000D02*
X131655000Y-78453000D01*
X138065000Y-73253000D02*
X139395000Y-73253000D01*
X139395000Y-73253000D02*
X139395000Y-74583000D01*
X136795000Y-75853000D02*
X139395000Y-75853000D01*
X136795000Y-73253000D02*
X131655000Y-73253000D01*
X139395000Y-75853000D02*
X139395000Y-78453000D01*
%TO.C,C15*%
X95377836Y-83790000D02*
X95162164Y-83790000D01*
X95377836Y-84510000D02*
X95162164Y-84510000D01*
%TO.C,SW1*%
X107000000Y-143990000D02*
X106800000Y-144200000D01*
X108500000Y-139850000D02*
X108700000Y-139850000D01*
X107000000Y-143990000D02*
X107000000Y-142700000D01*
X105700000Y-142700000D02*
X105700000Y-143990000D01*
X105700000Y-143990000D02*
X105900000Y-144200000D01*
X105500000Y-139850000D02*
X107200000Y-139850000D01*
X110550000Y-141690000D02*
X110550000Y-140900000D01*
X104250000Y-142700000D02*
X109950000Y-142700000D01*
X105900000Y-144200000D02*
X106800000Y-144200000D01*
X103650000Y-140900000D02*
X103650000Y-141690000D01*
%TO.C,kibuzzard-6296FD26*%
G36*
X134598958Y-83273533D02*
G01*
X134598958Y-82835119D01*
X134931275Y-82835119D01*
X134958263Y-82915288D01*
X135006681Y-82985534D01*
X135059863Y-83008950D01*
X135136063Y-82985138D01*
X136025063Y-82546988D01*
X136081419Y-82493806D01*
X136102850Y-82418400D01*
X136102850Y-82402525D01*
X136081419Y-82328706D01*
X136025063Y-82275525D01*
X135136063Y-81837375D01*
X135059863Y-81813562D01*
X135006681Y-81836978D01*
X134958263Y-81907225D01*
X134931275Y-82000888D01*
X134974138Y-82070738D01*
X135021762Y-82092963D01*
X135717088Y-82410463D01*
X135680377Y-82427727D01*
X135595644Y-82466819D01*
X135483527Y-82518413D01*
X135364663Y-82573181D01*
X135245798Y-82627752D01*
X135133681Y-82678750D01*
X135046369Y-82718636D01*
X135001919Y-82739869D01*
X134959850Y-82766063D01*
X134937625Y-82793050D01*
X134931275Y-82835119D01*
X134598958Y-82835119D01*
X134598958Y-81584962D01*
X134939213Y-81584962D01*
X134949928Y-81666719D01*
X134982075Y-81708787D01*
X135023350Y-81723869D01*
X135078913Y-81726250D01*
X135961563Y-81726250D01*
X136063163Y-81707200D01*
X136092928Y-81665131D01*
X136102850Y-81586550D01*
X136102850Y-81296037D01*
X136092035Y-81179108D01*
X136059591Y-81071208D01*
X136005516Y-80972336D01*
X135929813Y-80882494D01*
X135838978Y-80807832D01*
X135739511Y-80754502D01*
X135631412Y-80722504D01*
X135514681Y-80711837D01*
X135398397Y-80722752D01*
X135291638Y-80755494D01*
X135194403Y-80810064D01*
X135106694Y-80886462D01*
X135034115Y-80977248D01*
X134982273Y-81074978D01*
X134951168Y-81179654D01*
X134940800Y-81291275D01*
X134939213Y-81584962D01*
X134598958Y-81584962D01*
X134598958Y-80026037D01*
X134929687Y-80026037D01*
X134939212Y-80130636D01*
X134967787Y-80234882D01*
X135015413Y-80338775D01*
X135065220Y-80416761D01*
X135125744Y-80485619D01*
X135200356Y-80544158D01*
X135292431Y-80591188D01*
X135398992Y-80622144D01*
X135517063Y-80632462D01*
X135636323Y-80621945D01*
X135746456Y-80590394D01*
X135842500Y-80542570D01*
X135919494Y-80483237D01*
X135981803Y-80413983D01*
X136033794Y-80336394D01*
X136073878Y-80255828D01*
X136100469Y-80177644D01*
X136115352Y-80101047D01*
X136120313Y-80025244D01*
X136113963Y-79948448D01*
X136094913Y-79868875D01*
X136053638Y-79761719D01*
X136020300Y-79706950D01*
X135980613Y-79656944D01*
X135925050Y-79635512D01*
X135836150Y-79670437D01*
X135769475Y-79725603D01*
X135747250Y-79776800D01*
X135779000Y-79853000D01*
X135799638Y-79881575D01*
X135825038Y-79944281D01*
X135837738Y-80037150D01*
X135820275Y-80139941D01*
X135767888Y-80238762D01*
X135667875Y-80319725D01*
X135600208Y-80343537D01*
X135524206Y-80351475D01*
X135448205Y-80343537D01*
X135380538Y-80319725D01*
X135282113Y-80240350D01*
X135228534Y-80139544D01*
X135210675Y-80037150D01*
X135224169Y-79937138D01*
X135264650Y-79859350D01*
X135299575Y-79778387D01*
X135278144Y-79726000D01*
X135213850Y-79667262D01*
X135125744Y-79633925D01*
X135050338Y-79675200D01*
X135021762Y-79719650D01*
X134999537Y-79757750D01*
X134952706Y-79874431D01*
X134935442Y-79950830D01*
X134929687Y-80026037D01*
X134598958Y-80026037D01*
X134598958Y-78972467D01*
X136451042Y-78972467D01*
X136451042Y-83273533D01*
X134598958Y-83273533D01*
G37*
G36*
X135641086Y-81015844D02*
G01*
X135736931Y-81084900D01*
X135800630Y-81182531D01*
X135821863Y-81291275D01*
X135821863Y-81445263D01*
X135221788Y-81445263D01*
X135221788Y-81292862D01*
X135243417Y-81179952D01*
X135308306Y-81082519D01*
X135405342Y-81015248D01*
X135523413Y-80992825D01*
X135641086Y-81015844D01*
G37*
%TO.C,JP5*%
X134635000Y-91284000D02*
X137435000Y-91284000D01*
X137435000Y-91284000D02*
X137435000Y-93284000D01*
X137435000Y-93284000D02*
X134635000Y-93284000D01*
X134635000Y-93284000D02*
X134635000Y-91284000D01*
%TO.C,kibuzzard-6296FA3B*%
G36*
X126867939Y-83557202D02*
G01*
X126959697Y-83593397D01*
X127037273Y-83653722D01*
X127116568Y-83768975D01*
X127143000Y-83897562D01*
X127116806Y-84026388D01*
X127038225Y-84142355D01*
X126960755Y-84203209D01*
X126868045Y-84239722D01*
X126760095Y-84251892D01*
X126652357Y-84239827D01*
X126560282Y-84203632D01*
X126483870Y-84143307D01*
X126406717Y-84028055D01*
X126381000Y-83899467D01*
X126407432Y-83770642D01*
X126486728Y-83654675D01*
X126564303Y-83593821D01*
X126656061Y-83557308D01*
X126762000Y-83545137D01*
X126867939Y-83557202D01*
G37*
G36*
X127877060Y-83049202D02*
G01*
X127877060Y-87174798D01*
X125646940Y-87174798D01*
X125646940Y-86094028D01*
X126066675Y-86094028D01*
X126079534Y-86192135D01*
X126118110Y-86242618D01*
X126167640Y-86260715D01*
X126234315Y-86263573D01*
X126594360Y-86263573D01*
X126594360Y-86636953D01*
X126603885Y-86734108D01*
X126655796Y-86788400D01*
X126762000Y-86806498D01*
X126860584Y-86794115D01*
X126912495Y-86756968D01*
X126930593Y-86706485D01*
X126933450Y-86638858D01*
X126933450Y-86263573D01*
X127125855Y-86263573D01*
X127125855Y-86846503D01*
X127128713Y-86914130D01*
X127145858Y-86964613D01*
X127196340Y-87004617D01*
X127293495Y-87016048D01*
X127390650Y-87004617D01*
X127442085Y-86965565D01*
X127460183Y-86916035D01*
X127463040Y-86850313D01*
X127463040Y-86099743D01*
X127427798Y-85962582D01*
X127295400Y-85926388D01*
X126236220Y-85926388D01*
X126139065Y-85937818D01*
X126084773Y-85988300D01*
X126066675Y-86094028D01*
X125646940Y-86094028D01*
X125646940Y-84880542D01*
X126066675Y-84880542D01*
X126079534Y-84978650D01*
X126118110Y-85029132D01*
X126167640Y-85047230D01*
X126234315Y-85050087D01*
X126594360Y-85050087D01*
X126594360Y-85423467D01*
X126603885Y-85520623D01*
X126655796Y-85574915D01*
X126762000Y-85593012D01*
X126860584Y-85580630D01*
X126912495Y-85543482D01*
X126930593Y-85493000D01*
X126933450Y-85425372D01*
X126933450Y-85050087D01*
X127125855Y-85050087D01*
X127125855Y-85633017D01*
X127128713Y-85700645D01*
X127145858Y-85751127D01*
X127196340Y-85791133D01*
X127293495Y-85802563D01*
X127390650Y-85791133D01*
X127442085Y-85752080D01*
X127460183Y-85702550D01*
X127463040Y-85636827D01*
X127463040Y-84886257D01*
X127427798Y-84749097D01*
X127295400Y-84712902D01*
X126236220Y-84712902D01*
X126139065Y-84724332D01*
X126084773Y-84774815D01*
X126066675Y-84880542D01*
X125646940Y-84880542D01*
X125646940Y-83903277D01*
X126043815Y-83903277D01*
X126057090Y-84042342D01*
X126096917Y-84169977D01*
X126163294Y-84286182D01*
X126256222Y-84390957D01*
X126368022Y-84477635D01*
X126491014Y-84539547D01*
X126625197Y-84576695D01*
X126770573Y-84589077D01*
X126915412Y-84576100D01*
X127047988Y-84537166D01*
X127168301Y-84472277D01*
X127276350Y-84381432D01*
X127365528Y-84272967D01*
X127429226Y-84155214D01*
X127467445Y-84028174D01*
X127480185Y-83891847D01*
X127466850Y-83762307D01*
X127426845Y-83636577D01*
X127363504Y-83519896D01*
X127280160Y-83417502D01*
X127175623Y-83331777D01*
X127048703Y-83265102D01*
X126905589Y-83222240D01*
X126752475Y-83207952D01*
X126612696Y-83220633D01*
X126482917Y-83258673D01*
X126363141Y-83322074D01*
X126253365Y-83410835D01*
X126161687Y-83517694D01*
X126096202Y-83635387D01*
X126056912Y-83763915D01*
X126043815Y-83903277D01*
X125646940Y-83903277D01*
X125646940Y-83049202D01*
X127877060Y-83049202D01*
G37*
%TO.C,JP1*%
X139250000Y-96364000D02*
X142050000Y-96364000D01*
X142050000Y-96364000D02*
X142050000Y-98364000D01*
X139250000Y-98364000D02*
X139250000Y-96364000D01*
X142050000Y-98364000D02*
X139250000Y-98364000D01*
%TO.C,C8*%
X121042500Y-104257836D02*
X121042500Y-104042164D01*
X120322500Y-104257836D02*
X120322500Y-104042164D01*
%TO.C,kibuzzard-6296F446*%
G36*
X108479162Y-73958418D02*
G01*
X112482838Y-73958418D01*
X112482838Y-76167582D01*
X108479162Y-76167582D01*
X108479162Y-75582113D01*
X108637912Y-75582113D01*
X108649342Y-75679268D01*
X108699825Y-75733560D01*
X108805552Y-75751658D01*
X109491352Y-75751658D01*
X109590412Y-75732608D01*
X109622797Y-75690698D01*
X109632322Y-75609735D01*
X109629072Y-75582113D01*
X109756147Y-75582113D01*
X109767577Y-75679268D01*
X109818060Y-75733560D01*
X109923787Y-75751658D01*
X110678167Y-75751658D01*
X110777227Y-75740228D01*
X110830091Y-75689745D01*
X110842632Y-75614497D01*
X110923912Y-75614497D01*
X110951535Y-75679268D01*
X111034402Y-75736418D01*
X111136320Y-75768803D01*
X111197280Y-75750705D01*
X111231570Y-75715463D01*
X111261098Y-75660218D01*
X111360157Y-75454478D01*
X111887843Y-75454478D01*
X111986903Y-75660218D01*
X112016430Y-75717368D01*
X112050720Y-75753563D01*
X112111680Y-75770707D01*
X112213598Y-75738323D01*
X112296465Y-75679744D01*
X112324088Y-75614497D01*
X112291703Y-75517343D01*
X111777352Y-74454352D01*
X111714487Y-74380058D01*
X111624952Y-74355293D01*
X111534465Y-74381962D01*
X111470648Y-74452447D01*
X110956298Y-75517343D01*
X110923912Y-75614497D01*
X110842632Y-75614497D01*
X110847712Y-75584017D01*
X110834854Y-75485910D01*
X110796277Y-75435427D01*
X110745795Y-75417330D01*
X110680072Y-75414472D01*
X110093332Y-75414472D01*
X110093332Y-75222067D01*
X110466712Y-75222067D01*
X110565772Y-75210638D01*
X110620065Y-75160155D01*
X110638163Y-75054427D01*
X110625304Y-74956320D01*
X110586727Y-74905837D01*
X110536245Y-74887740D01*
X110470522Y-74884883D01*
X110093332Y-74884883D01*
X110093332Y-74692478D01*
X110678167Y-74692478D01*
X110777227Y-74681047D01*
X110830091Y-74630565D01*
X110847712Y-74524837D01*
X110834854Y-74426730D01*
X110796277Y-74376247D01*
X110745795Y-74358150D01*
X110680072Y-74355293D01*
X109929502Y-74355293D01*
X109792342Y-74390535D01*
X109756147Y-74522932D01*
X109756147Y-75582113D01*
X109629072Y-75582113D01*
X109622797Y-75528773D01*
X109584697Y-75484005D01*
X109493257Y-75469718D01*
X108975097Y-75469718D01*
X108975097Y-74524837D01*
X108965572Y-74425777D01*
X108913661Y-74372914D01*
X108807457Y-74355293D01*
X108709350Y-74368151D01*
X108658867Y-74406728D01*
X108640770Y-74457210D01*
X108637912Y-74522932D01*
X108637912Y-75582113D01*
X108479162Y-75582113D01*
X108479162Y-73958418D01*
G37*
G36*
X111750682Y-75172538D02*
G01*
X111497318Y-75172538D01*
X111623048Y-74911553D01*
X111750682Y-75172538D01*
G37*
%TO.C,kibuzzard-6296F9F2*%
G36*
X82448250Y-81198560D02*
G01*
X85051750Y-81198560D01*
X85051750Y-83413440D01*
X82448250Y-83413440D01*
X82448250Y-82839400D01*
X82607000Y-82839400D01*
X82618430Y-82938460D01*
X82668912Y-82992753D01*
X82774640Y-83010850D01*
X83275655Y-83010850D01*
X83390272Y-82996563D01*
X83492825Y-82953700D01*
X83583313Y-82882263D01*
X83611715Y-82845115D01*
X83809055Y-82845115D01*
X83858585Y-82965130D01*
X83976695Y-83016565D01*
X84721550Y-83016565D01*
X84839660Y-82993705D01*
X84880618Y-82944175D01*
X84893000Y-82847973D01*
X84881570Y-82750818D01*
X84836803Y-82695573D01*
X84725360Y-82677475D01*
X84376745Y-82677475D01*
X84376745Y-82667950D01*
X84424370Y-82648900D01*
X84542480Y-82584606D01*
X84675830Y-82479355D01*
X84737743Y-82410775D01*
X84790130Y-82323145D01*
X84825849Y-82223133D01*
X84837755Y-82117405D01*
X84821880Y-81986489D01*
X84774255Y-81865522D01*
X84694880Y-81754503D01*
X84589999Y-81666132D01*
X84465857Y-81613109D01*
X84322453Y-81595435D01*
X84179154Y-81612897D01*
X84055329Y-81665285D01*
X83950978Y-81752598D01*
X83872132Y-81861923D01*
X83824824Y-81980351D01*
X83809055Y-82107880D01*
X83818580Y-82205035D01*
X83870491Y-82259328D01*
X83976695Y-82277425D01*
X84073850Y-82265995D01*
X84125285Y-82231705D01*
X84143382Y-82184080D01*
X84146240Y-82121215D01*
X84146240Y-82109785D01*
X84153860Y-82065970D01*
X84204343Y-81977388D01*
X84310070Y-81932620D01*
X84405320Y-81949765D01*
X84455803Y-81986913D01*
X84485330Y-82038348D01*
X84498665Y-82086925D01*
X84480806Y-82170269D01*
X84427228Y-82248850D01*
X84348408Y-82321002D01*
X84254825Y-82385058D01*
X84153860Y-82445541D01*
X84052895Y-82506978D01*
X83959312Y-82575081D01*
X83880492Y-82655568D01*
X83826914Y-82746293D01*
X83809055Y-82845115D01*
X83611715Y-82845115D01*
X83654115Y-82789658D01*
X83697612Y-82683296D01*
X83713805Y-82563175D01*
X83701317Y-82456283D01*
X83663852Y-82356588D01*
X83601410Y-82264090D01*
X83655703Y-82154076D01*
X83673800Y-82033585D01*
X83660042Y-81923518D01*
X83618767Y-81824458D01*
X83549975Y-81736405D01*
X83464885Y-81668672D01*
X83367095Y-81628032D01*
X83256605Y-81614485D01*
X82776545Y-81614485D01*
X82678437Y-81627344D01*
X82627955Y-81665920D01*
X82609858Y-81715450D01*
X82607000Y-81782125D01*
X82607000Y-82839400D01*
X82448250Y-82839400D01*
X82448250Y-81198560D01*
G37*
G36*
X83305183Y-81970720D02*
G01*
X83336615Y-82037395D01*
X83330900Y-82105975D01*
X83239460Y-82145980D01*
X83122302Y-82172650D01*
X83087060Y-82282188D01*
X83121350Y-82391725D01*
X83224220Y-82418395D01*
X83330900Y-82433635D01*
X83366143Y-82471735D01*
X83376620Y-82544125D01*
X83346616Y-82641280D01*
X83256605Y-82673665D01*
X82944185Y-82673665D01*
X82944185Y-81951670D01*
X83210885Y-81951670D01*
X83305183Y-81970720D01*
G37*
%TO.C,kibuzzard-6296F46A*%
G36*
X117051572Y-82792538D02*
G01*
X116798208Y-82792538D01*
X116923938Y-82531553D01*
X117051572Y-82792538D01*
G37*
G36*
X113254272Y-81578418D02*
G01*
X117783728Y-81578418D01*
X117783728Y-83787582D01*
X113254272Y-83787582D01*
X113254272Y-83200208D01*
X113413022Y-83200208D01*
X113424452Y-83299268D01*
X113474935Y-83352131D01*
X113580662Y-83369753D01*
X113678770Y-83356894D01*
X113729252Y-83318318D01*
X113747350Y-83267835D01*
X113750207Y-83202113D01*
X113750207Y-82986848D01*
X113990237Y-82986848D01*
X114049292Y-82983037D01*
X114123376Y-83158509D01*
X114172906Y-83273444D01*
X114197882Y-83327843D01*
X114233125Y-83364990D01*
X114294085Y-83383087D01*
X114392192Y-83356418D01*
X114480775Y-83301173D01*
X114510302Y-83234497D01*
X114500411Y-83200208D01*
X114615077Y-83200208D01*
X114617935Y-83268788D01*
X114636032Y-83318318D01*
X114686515Y-83356894D01*
X114780812Y-83369753D01*
X114877967Y-83356894D01*
X114929402Y-83318318D01*
X114947500Y-83269740D01*
X114950357Y-83204017D01*
X114950357Y-82562032D01*
X114985600Y-82609419D01*
X115072277Y-82728720D01*
X115166099Y-82857069D01*
X115222772Y-82931602D01*
X115238012Y-82952557D01*
X115288495Y-82991610D01*
X115366600Y-83011612D01*
X115446610Y-82989705D01*
X115493282Y-82955415D01*
X115527573Y-82910648D01*
X115569006Y-82854212D01*
X115643777Y-82749675D01*
X115724264Y-82638471D01*
X115782843Y-82562032D01*
X115782843Y-83200208D01*
X115792367Y-83299268D01*
X115819037Y-83337368D01*
X115868568Y-83360228D01*
X115956197Y-83369753D01*
X116047638Y-83358323D01*
X116101930Y-83308316D01*
X116114738Y-83234497D01*
X116224803Y-83234497D01*
X116252425Y-83299268D01*
X116335293Y-83356418D01*
X116437210Y-83388803D01*
X116498170Y-83370705D01*
X116532460Y-83335463D01*
X116561988Y-83280218D01*
X116661048Y-83074478D01*
X117188732Y-83074478D01*
X117287793Y-83280218D01*
X117317320Y-83337368D01*
X117351610Y-83373563D01*
X117412570Y-83390707D01*
X117514488Y-83358323D01*
X117597355Y-83299744D01*
X117624978Y-83234497D01*
X117592592Y-83137343D01*
X117078243Y-82074352D01*
X117015378Y-82000058D01*
X116925843Y-81975293D01*
X116835355Y-82001962D01*
X116771537Y-82072447D01*
X116257188Y-83137343D01*
X116224803Y-83234497D01*
X116114738Y-83234497D01*
X116120027Y-83204017D01*
X116120027Y-82146742D01*
X116117170Y-82080067D01*
X116099072Y-82028632D01*
X116048828Y-81990056D01*
X115951435Y-81977197D01*
X115852613Y-81990056D01*
X115798083Y-82028632D01*
X115746038Y-82095155D01*
X115676772Y-82184995D01*
X115590285Y-82298152D01*
X115486577Y-82434626D01*
X115365648Y-82594418D01*
X114933213Y-82026728D01*
X114921782Y-82015297D01*
X114873205Y-81989580D01*
X114784623Y-81977197D01*
X114687468Y-81989580D01*
X114636032Y-82026728D01*
X114617935Y-82077210D01*
X114615077Y-82142932D01*
X114615077Y-83200208D01*
X114500411Y-83200208D01*
X114481727Y-83135438D01*
X114428387Y-83014152D01*
X114385207Y-82914457D01*
X114352187Y-82836353D01*
X114431562Y-82735176D01*
X114479187Y-82617066D01*
X114495062Y-82482022D01*
X114482680Y-82363913D01*
X114445532Y-82257232D01*
X114389335Y-82166745D01*
X114319802Y-82097212D01*
X114213334Y-82029479D01*
X114104749Y-81988839D01*
X113994047Y-81975293D01*
X113582567Y-81975293D01*
X113484460Y-81988151D01*
X113433977Y-82026728D01*
X113415880Y-82077210D01*
X113413022Y-82142932D01*
X113413022Y-83200208D01*
X113254272Y-83200208D01*
X113254272Y-81578418D01*
G37*
G36*
X114104537Y-82355340D02*
G01*
X114159782Y-82482022D01*
X114104537Y-82607752D01*
X113994047Y-82649663D01*
X113750207Y-82649663D01*
X113750207Y-82312478D01*
X113990237Y-82312478D01*
X114104537Y-82355340D01*
G37*
%TO.C,U3*%
X90140000Y-116204000D02*
X87540000Y-116204000D01*
X87540000Y-116204000D02*
X87540000Y-113604000D01*
X87540000Y-113604000D02*
X138460000Y-113604000D01*
X90140000Y-118804000D02*
X90140000Y-116204000D01*
X88870000Y-118804000D02*
X87540000Y-118804000D01*
X90140000Y-118804000D02*
X138460000Y-118804000D01*
X87540000Y-118804000D02*
X87540000Y-117474000D01*
X138460000Y-118804000D02*
X138460000Y-113604000D01*
%TO.C,kibuzzard-629759C6*%
G36*
X96874248Y-95962452D02*
G01*
X98325752Y-95962452D01*
X98325752Y-97787548D01*
X96874248Y-97787548D01*
X96874248Y-97313944D01*
X97138831Y-97313944D01*
X97148356Y-97396494D01*
X97190425Y-97441737D01*
X97278531Y-97456819D01*
X97696044Y-97456819D01*
X97791558Y-97444912D01*
X97877019Y-97409194D01*
X97952425Y-97349663D01*
X98011427Y-97272492D01*
X98047675Y-97183857D01*
X98061169Y-97083756D01*
X98050762Y-96994680D01*
X98019541Y-96911601D01*
X97967506Y-96834519D01*
X98012750Y-96742841D01*
X98027831Y-96642431D01*
X98016366Y-96550709D01*
X97981970Y-96468159D01*
X97924644Y-96394781D01*
X97853735Y-96338337D01*
X97772244Y-96304470D01*
X97680169Y-96293181D01*
X97280119Y-96293181D01*
X97198363Y-96303897D01*
X97156294Y-96336044D01*
X97141212Y-96377319D01*
X97138831Y-96432881D01*
X97138831Y-97313944D01*
X96874248Y-97313944D01*
X96874248Y-95962452D01*
G37*
G36*
X97720650Y-96590044D02*
G01*
X97746844Y-96645606D01*
X97742081Y-96702756D01*
X97665881Y-96736094D01*
X97568250Y-96758319D01*
X97538881Y-96849600D01*
X97567456Y-96940881D01*
X97653181Y-96963106D01*
X97742081Y-96975806D01*
X97771450Y-97007556D01*
X97780181Y-97067881D01*
X97755178Y-97148844D01*
X97680169Y-97175831D01*
X97419819Y-97175831D01*
X97419819Y-96574169D01*
X97642069Y-96574169D01*
X97720650Y-96590044D01*
G37*
%TO.C,C2*%
X108460000Y-133622164D02*
X108460000Y-133837836D01*
X107740000Y-133622164D02*
X107740000Y-133837836D01*
%TO.C,D2*%
X93694500Y-130945036D02*
X93694500Y-125845036D01*
X98464500Y-130945036D02*
X93694500Y-130945036D01*
X100805500Y-130945036D02*
X98464500Y-130945036D01*
X100804500Y-125845036D02*
X100805500Y-130945036D01*
X93694500Y-125845036D02*
X100804500Y-125845036D01*
X100236429Y-131417036D02*
G75*
G03*
X100236429Y-131417036I-237929J0D01*
G01*
X100025703Y-131417036D02*
G75*
G03*
X100025703Y-131417036I-27203J0D01*
G01*
X100118808Y-131417036D02*
G75*
G03*
X100118808Y-131417036I-120308J0D01*
G01*
%TO.C,kibuzzard-6296F73C*%
G36*
X103657372Y-91596650D02*
G01*
X106342628Y-91596650D01*
X106342628Y-94403350D01*
X103657372Y-94403350D01*
X103657372Y-93678656D01*
X104153466Y-93678656D01*
X104247525Y-93822722D01*
X104402306Y-93907256D01*
X104548753Y-93812006D01*
X105001191Y-93292894D01*
X105453628Y-93812006D01*
X105600075Y-93907256D01*
X105754856Y-93823912D01*
X105846534Y-93678656D01*
X105765572Y-93526256D01*
X105286941Y-93000000D01*
X105765572Y-92473744D01*
X105846534Y-92323725D01*
X105753666Y-92176088D01*
X105600075Y-92092744D01*
X105453628Y-92187994D01*
X105001191Y-92707106D01*
X104548753Y-92187994D01*
X104402306Y-92092744D01*
X104246334Y-92177278D01*
X104153466Y-92323725D01*
X104236809Y-92473744D01*
X104715441Y-93000000D01*
X104236809Y-93526256D01*
X104153466Y-93678656D01*
X103657372Y-93678656D01*
X103657372Y-91596650D01*
G37*
%TO.C,kibuzzard-6296FCE8*%
G36*
X108409804Y-136469990D02*
G01*
X112390196Y-136469990D01*
X112390196Y-138330010D01*
X108409804Y-138330010D01*
X108409804Y-137728613D01*
X108674387Y-137728613D01*
X108715662Y-137819894D01*
X108729950Y-137837356D01*
X108775987Y-137885775D01*
X108847425Y-137935781D01*
X108955375Y-137981025D01*
X109024034Y-137994717D01*
X109096662Y-137999281D01*
X109192089Y-137989933D01*
X109283635Y-137961887D01*
X109371300Y-137915144D01*
X109431625Y-137863352D01*
X109479250Y-137793700D01*
X109510206Y-137708967D01*
X109520525Y-137611931D01*
X109510405Y-137516880D01*
X109480044Y-137438100D01*
X109434602Y-137377973D01*
X109379237Y-137338881D01*
X109316134Y-137312489D01*
X109247475Y-137290462D01*
X109178816Y-137273198D01*
X109115712Y-137261094D01*
X109014906Y-137224581D01*
X108974425Y-137153937D01*
X109008556Y-137085675D01*
X109094281Y-137061069D01*
X109179212Y-137081706D01*
X109203819Y-137102344D01*
X109222075Y-137118219D01*
X109304625Y-137149969D01*
X109360981Y-137130125D01*
X109415750Y-137070594D01*
X109453850Y-136983281D01*
X109418698Y-136927719D01*
X109584025Y-136927719D01*
X109601487Y-137005506D01*
X109907875Y-137886569D01*
X109918987Y-137910381D01*
X109962644Y-137958006D01*
X110045987Y-137981819D01*
X110133300Y-137945306D01*
X110158700Y-137913556D01*
X110172987Y-137886569D01*
X110181179Y-137862312D01*
X110203213Y-137797161D01*
X110239091Y-137691116D01*
X110288812Y-137544177D01*
X110352375Y-137356344D01*
X110538113Y-137904031D01*
X110583356Y-137955625D01*
X110664319Y-137981819D01*
X110745281Y-137955625D01*
X110787350Y-137913556D01*
X110798463Y-137886569D01*
X111039007Y-137191244D01*
X111169938Y-137191244D01*
X111219944Y-137289669D01*
X111315988Y-137345231D01*
X111427112Y-137296019D01*
X111447750Y-137276969D01*
X111447750Y-137843706D01*
X111450131Y-137901650D01*
X111465213Y-137945306D01*
X111507678Y-137976262D01*
X111587450Y-137986581D01*
X111669206Y-137975866D01*
X111711275Y-137943719D01*
X111726356Y-137901650D01*
X111728738Y-137846881D01*
X111728738Y-136962644D01*
X111720800Y-136878506D01*
X111698575Y-136844375D01*
X111657300Y-136826119D01*
X111581894Y-136818181D01*
X111492200Y-136859456D01*
X111487437Y-136862631D01*
X111227087Y-137097581D01*
X111169938Y-137191244D01*
X111039007Y-137191244D01*
X111103262Y-137005506D01*
X111122313Y-136927719D01*
X111095722Y-136870569D01*
X111015950Y-136826119D01*
X110941337Y-136810244D01*
X110888156Y-136826912D01*
X110858788Y-136861044D01*
X110838150Y-136915019D01*
X110663525Y-137448419D01*
X110480962Y-136897556D01*
X110436512Y-136845962D01*
X110361106Y-136819769D01*
X110295225Y-136830881D01*
X110245616Y-136866600D01*
X110214262Y-136922956D01*
X110041225Y-137445244D01*
X109866600Y-136915019D01*
X109830881Y-136837231D01*
X109773731Y-136811831D01*
X109690387Y-136827706D01*
X109610616Y-136870966D01*
X109584025Y-136927719D01*
X109418698Y-136927719D01*
X109404637Y-136905494D01*
X109364950Y-136875331D01*
X109256206Y-136825325D01*
X109173458Y-136806870D01*
X109082375Y-136800719D01*
X108971162Y-136812272D01*
X108876706Y-136846933D01*
X108799006Y-136904700D01*
X108741239Y-136977990D01*
X108706578Y-137059217D01*
X108695025Y-137148381D01*
X108705145Y-137242639D01*
X108735506Y-137322212D01*
X108780948Y-137384720D01*
X108836312Y-137427781D01*
X108899019Y-137458936D01*
X108966487Y-137485725D01*
X109033956Y-137506958D01*
X109096662Y-137521444D01*
X109197469Y-137557163D01*
X109237950Y-137618281D01*
X109221546Y-137685309D01*
X109172333Y-137725526D01*
X109090312Y-137738931D01*
X109014112Y-137714325D01*
X108950612Y-137662731D01*
X108879969Y-137603200D01*
X108826787Y-137583356D01*
X108742650Y-137621456D01*
X108691453Y-137681583D01*
X108674387Y-137728613D01*
X108409804Y-137728613D01*
X108409804Y-136469990D01*
G37*
%TO.C,Y2*%
X124659000Y-108148000D02*
X124659000Y-109498000D01*
X122909000Y-108148000D02*
X122909000Y-109498000D01*
%TO.C,JP4*%
X137435000Y-95824000D02*
X134635000Y-95824000D01*
X137435000Y-93824000D02*
X137435000Y-95824000D01*
X134635000Y-95824000D02*
X134635000Y-93824000D01*
X134635000Y-93824000D02*
X137435000Y-93824000D01*
%TO.C,kibuzzard-629759BC*%
G36*
X95020273Y-95944196D02*
G01*
X96579727Y-95944196D01*
X96579727Y-97805804D01*
X95020273Y-97805804D01*
X95020273Y-96865475D01*
X95284856Y-96865475D01*
X95295770Y-96987068D01*
X95328512Y-97099433D01*
X95383083Y-97202571D01*
X95459481Y-97296481D01*
X95550663Y-97374616D01*
X95649584Y-97430427D01*
X95756245Y-97463913D01*
X95870644Y-97475075D01*
X95995659Y-97466443D01*
X96104006Y-97440547D01*
X96195684Y-97397387D01*
X96270694Y-97336963D01*
X96315144Y-97240125D01*
X96315144Y-96890875D01*
X96299269Y-96801975D01*
X96194494Y-96757525D01*
X95915094Y-96757525D01*
X95838894Y-96771813D01*
X95812700Y-96806737D01*
X95805556Y-96874206D01*
X95811906Y-96940881D01*
X95838894Y-96978188D01*
X95908744Y-96990888D01*
X96034156Y-96990888D01*
X96034156Y-97163925D01*
X95959941Y-97185356D01*
X95876994Y-97192500D01*
X95762694Y-97168489D01*
X95661094Y-97096456D01*
X95608177Y-97027841D01*
X95576427Y-96950053D01*
X95565844Y-96863094D01*
X95589259Y-96738872D01*
X95659506Y-96640844D01*
X95759916Y-96577145D01*
X95873819Y-96555913D01*
X95959544Y-96566827D01*
X96032569Y-96599569D01*
X96129406Y-96643225D01*
X96182984Y-96622191D01*
X96242119Y-96559087D01*
X96278631Y-96469394D01*
X96235769Y-96398750D01*
X96122351Y-96329958D01*
X96004347Y-96288683D01*
X95881756Y-96274925D01*
X95765075Y-96285492D01*
X95656331Y-96317192D01*
X95555525Y-96370026D01*
X95462656Y-96443994D01*
X95384869Y-96533737D01*
X95329306Y-96633898D01*
X95295969Y-96744478D01*
X95284856Y-96865475D01*
X95020273Y-96865475D01*
X95020273Y-95944196D01*
G37*
%TO.C,kibuzzard-62975A1B*%
G36*
X94119062Y-96605125D02*
G01*
X94165100Y-96710694D01*
X94119062Y-96815469D01*
X94026987Y-96850394D01*
X93823787Y-96850394D01*
X93823787Y-96569406D01*
X94023812Y-96569406D01*
X94119062Y-96605125D01*
G37*
G36*
X93212071Y-95957690D02*
G01*
X94787929Y-95957690D01*
X94787929Y-97792310D01*
X93212071Y-97792310D01*
X93212071Y-97309181D01*
X93542800Y-97309181D01*
X93552325Y-97391731D01*
X93594394Y-97435784D01*
X93682500Y-97450469D01*
X93764256Y-97439753D01*
X93806325Y-97407606D01*
X93821406Y-97365538D01*
X93823787Y-97310769D01*
X93823787Y-97131381D01*
X94023812Y-97131381D01*
X94073025Y-97128206D01*
X94134761Y-97274433D01*
X94176036Y-97370212D01*
X94196850Y-97415544D01*
X94226219Y-97446500D01*
X94277019Y-97461581D01*
X94358775Y-97439356D01*
X94432594Y-97393319D01*
X94457200Y-97337756D01*
X94433387Y-97255206D01*
X94388937Y-97154135D01*
X94352954Y-97071056D01*
X94325437Y-97005969D01*
X94391583Y-96921655D01*
X94431271Y-96823230D01*
X94444500Y-96710694D01*
X94434181Y-96612269D01*
X94403225Y-96523369D01*
X94356394Y-96447962D01*
X94298450Y-96390019D01*
X94209726Y-96333574D01*
X94119239Y-96299708D01*
X94026987Y-96288419D01*
X93684087Y-96288419D01*
X93602331Y-96299134D01*
X93560262Y-96331281D01*
X93545181Y-96373350D01*
X93542800Y-96428119D01*
X93542800Y-97309181D01*
X93212071Y-97309181D01*
X93212071Y-95957690D01*
G37*
%TO.C,J3*%
X131003000Y-101174000D02*
X131003000Y-90954000D01*
X133663000Y-103774000D02*
X132333000Y-103774000D01*
X133663000Y-102444000D02*
X133663000Y-103774000D01*
X133663000Y-90954000D02*
X131003000Y-90954000D01*
X133663000Y-101174000D02*
X133663000Y-90954000D01*
X133663000Y-101174000D02*
X131003000Y-101174000D01*
%TO.C,kibuzzard-6296FA71*%
G36*
X100764002Y-137676783D02*
G01*
X104201998Y-137676783D01*
X104201998Y-139535217D01*
X100764002Y-139535217D01*
X100764002Y-138613937D01*
X100896294Y-138613937D01*
X100906861Y-138730420D01*
X100938561Y-138838569D01*
X100991395Y-138938383D01*
X101065362Y-139029863D01*
X101154411Y-139106261D01*
X101252489Y-139160831D01*
X101359596Y-139193573D01*
X101475731Y-139204488D01*
X101591619Y-139193425D01*
X101697981Y-139160236D01*
X101794819Y-139104921D01*
X101863337Y-139044150D01*
X102150419Y-139044150D01*
X102159944Y-139125113D01*
X102202012Y-139170356D01*
X102290119Y-139185437D01*
X102371875Y-139174722D01*
X102413944Y-139142575D01*
X102429025Y-139101300D01*
X102431406Y-139045737D01*
X102431406Y-139044150D01*
X103161656Y-139044150D01*
X103171181Y-139125113D01*
X103213250Y-139170356D01*
X103301356Y-139185437D01*
X103383113Y-139174722D01*
X103425181Y-139142575D01*
X103440262Y-139101300D01*
X103442644Y-139045737D01*
X103442644Y-138745700D01*
X103753794Y-138745700D01*
X103834756Y-138737762D01*
X103880000Y-138694503D01*
X103895081Y-138606000D01*
X103884763Y-138523847D01*
X103853806Y-138480587D01*
X103811738Y-138465506D01*
X103755381Y-138463125D01*
X103442644Y-138463125D01*
X103442644Y-138302787D01*
X103928419Y-138302787D01*
X103984775Y-138300406D01*
X104026844Y-138286119D01*
X104060181Y-138244050D01*
X104069706Y-138163087D01*
X104060181Y-138082125D01*
X104027638Y-138039262D01*
X103986363Y-138024181D01*
X103931594Y-138021800D01*
X103306119Y-138021800D01*
X103191819Y-138051169D01*
X103161656Y-138161500D01*
X103161656Y-139044150D01*
X102431406Y-139044150D01*
X102431406Y-138745700D01*
X102742556Y-138745700D01*
X102823519Y-138737762D01*
X102868762Y-138694503D01*
X102883844Y-138606000D01*
X102873525Y-138523847D01*
X102842569Y-138480587D01*
X102800500Y-138465506D01*
X102744144Y-138463125D01*
X102431406Y-138463125D01*
X102431406Y-138302787D01*
X102917181Y-138302787D01*
X102973538Y-138300406D01*
X103015606Y-138286119D01*
X103048944Y-138244050D01*
X103058469Y-138163087D01*
X103048944Y-138082125D01*
X103016400Y-138039262D01*
X102975125Y-138024181D01*
X102920356Y-138021800D01*
X102294881Y-138021800D01*
X102180581Y-138051169D01*
X102150419Y-138161500D01*
X102150419Y-139044150D01*
X101863337Y-139044150D01*
X101882131Y-139027481D01*
X101954362Y-138934315D01*
X102005956Y-138831822D01*
X102036912Y-138720002D01*
X102047231Y-138598856D01*
X102036416Y-138478157D01*
X102003972Y-138367677D01*
X101949898Y-138267416D01*
X101874194Y-138177375D01*
X101783805Y-138103060D01*
X101685678Y-138049978D01*
X101579812Y-138018129D01*
X101466206Y-138007512D01*
X101358256Y-138018625D01*
X101253481Y-138051962D01*
X101156247Y-138104747D01*
X101070919Y-138174200D01*
X100999481Y-138261314D01*
X100943919Y-138367081D01*
X100908200Y-138486342D01*
X100896294Y-138613937D01*
X100764002Y-138613937D01*
X100764002Y-137676783D01*
G37*
G36*
X101578323Y-138310328D02*
G01*
X101674962Y-138375812D01*
X101725674Y-138440371D01*
X101756101Y-138517629D01*
X101766244Y-138607587D01*
X101756190Y-138697369D01*
X101726027Y-138774099D01*
X101675756Y-138837775D01*
X101579712Y-138902069D01*
X101472556Y-138923500D01*
X101365202Y-138901473D01*
X101268562Y-138835394D01*
X101217851Y-138770747D01*
X101187424Y-138694283D01*
X101177281Y-138606000D01*
X101187335Y-138517717D01*
X101217498Y-138441253D01*
X101267769Y-138376606D01*
X101363812Y-138310527D01*
X101470969Y-138288500D01*
X101578323Y-138310328D01*
G37*
%TO.C,kibuzzard-6296FCA0*%
G36*
X81105054Y-108468402D02*
G01*
X84894946Y-108468402D01*
X84894946Y-110331598D01*
X81105054Y-110331598D01*
X81105054Y-109634156D01*
X81369637Y-109634156D01*
X81387100Y-109719881D01*
X81390275Y-109735756D01*
X81407737Y-109777031D01*
X81447028Y-109840134D01*
X81491875Y-109889744D01*
X81583597Y-109951480D01*
X81689431Y-109988522D01*
X81809375Y-110000869D01*
X81930201Y-109988610D01*
X82036564Y-109951833D01*
X82128462Y-109890537D01*
X82199018Y-109810369D01*
X82241351Y-109716971D01*
X82255462Y-109610344D01*
X82242366Y-109529381D01*
X82203075Y-109457944D01*
X82153069Y-109406350D01*
X82106237Y-109372219D01*
X82106237Y-109361106D01*
X82175029Y-109311276D01*
X82201078Y-109269031D01*
X82318962Y-109269031D01*
X82350712Y-109354756D01*
X82680912Y-109919906D01*
X82695200Y-109937369D01*
X82738856Y-109971500D01*
X82803944Y-109988169D01*
X82873000Y-109966738D01*
X82923800Y-109918319D01*
X83089495Y-109634156D01*
X83347663Y-109634156D01*
X83365125Y-109719881D01*
X83368300Y-109735756D01*
X83385763Y-109777031D01*
X83425053Y-109840134D01*
X83469900Y-109889744D01*
X83561622Y-109951480D01*
X83667456Y-109988522D01*
X83787400Y-110000869D01*
X83908226Y-109988610D01*
X84014589Y-109951833D01*
X84106488Y-109890537D01*
X84177043Y-109810369D01*
X84219376Y-109716971D01*
X84233488Y-109610344D01*
X84220391Y-109529381D01*
X84181100Y-109457944D01*
X84131094Y-109406350D01*
X84084263Y-109372219D01*
X84084263Y-109361106D01*
X84153054Y-109311276D01*
X84194329Y-109244337D01*
X84208088Y-109160287D01*
X84195564Y-109070770D01*
X84157993Y-108987426D01*
X84095375Y-108910256D01*
X84011061Y-108848520D01*
X83908403Y-108811478D01*
X83787400Y-108799131D01*
X83708620Y-108804687D01*
X83637381Y-108821356D01*
X83532606Y-108870569D01*
X83466725Y-108933275D01*
X83431800Y-108983281D01*
X83395288Y-109091231D01*
X83415131Y-109147984D01*
X83474663Y-109197594D01*
X83561975Y-109226169D01*
X83622300Y-109206325D01*
X83666750Y-109146794D01*
X83676275Y-109127744D01*
X83717550Y-109089644D01*
X83807244Y-109070594D01*
X83895350Y-109100756D01*
X83927100Y-109164256D01*
X83896938Y-109210691D01*
X83806450Y-109226169D01*
X83723900Y-109234106D01*
X83679847Y-109277366D01*
X83665163Y-109365869D01*
X83675878Y-109447228D01*
X83708025Y-109488106D01*
X83749300Y-109503981D01*
X83821531Y-109507156D01*
X83913606Y-109539700D01*
X83952500Y-109615106D01*
X83912813Y-109692100D01*
X83862013Y-109717698D01*
X83788988Y-109726231D01*
X83722313Y-109716706D01*
X83635000Y-109640506D01*
X83587375Y-109557956D01*
X83503238Y-109542081D01*
X83386556Y-109565100D01*
X83347663Y-109634156D01*
X83089495Y-109634156D01*
X83252412Y-109354756D01*
X83284163Y-109267444D01*
X83263525Y-109213469D01*
X83201612Y-109162669D01*
X83114300Y-109129331D01*
X83063500Y-109142825D01*
X83035719Y-109169812D01*
X83009525Y-109213469D01*
X82801562Y-109613519D01*
X82593600Y-109213469D01*
X82551531Y-109149175D01*
X82496762Y-109127744D01*
X82401512Y-109162669D01*
X82339600Y-109213866D01*
X82318962Y-109269031D01*
X82201078Y-109269031D01*
X82216304Y-109244337D01*
X82230062Y-109160287D01*
X82217539Y-109070770D01*
X82179968Y-108987426D01*
X82117350Y-108910256D01*
X82033036Y-108848520D01*
X81930378Y-108811478D01*
X81809375Y-108799131D01*
X81730595Y-108804687D01*
X81659356Y-108821356D01*
X81554581Y-108870569D01*
X81488700Y-108933275D01*
X81453775Y-108983281D01*
X81417262Y-109091231D01*
X81437106Y-109147984D01*
X81496637Y-109197594D01*
X81583950Y-109226169D01*
X81644275Y-109206325D01*
X81688725Y-109146794D01*
X81698250Y-109127744D01*
X81739525Y-109089644D01*
X81829219Y-109070594D01*
X81917325Y-109100756D01*
X81949075Y-109164256D01*
X81918912Y-109210691D01*
X81828425Y-109226169D01*
X81745875Y-109234106D01*
X81701822Y-109277366D01*
X81687137Y-109365869D01*
X81697853Y-109447228D01*
X81730000Y-109488106D01*
X81771275Y-109503981D01*
X81843506Y-109507156D01*
X81935581Y-109539700D01*
X81974475Y-109615106D01*
X81934787Y-109692100D01*
X81883987Y-109717698D01*
X81810962Y-109726231D01*
X81744287Y-109716706D01*
X81656975Y-109640506D01*
X81609350Y-109557956D01*
X81525212Y-109542081D01*
X81408531Y-109565100D01*
X81369637Y-109634156D01*
X81105054Y-109634156D01*
X81105054Y-108468402D01*
G37*
%TO.C,kibuzzard-6296F50A*%
G36*
X127624290Y-91967770D02*
G01*
X127679535Y-92094452D01*
X127624290Y-92220182D01*
X127513800Y-92262093D01*
X127269960Y-92262093D01*
X127269960Y-91924908D01*
X127509990Y-91924908D01*
X127624290Y-91967770D01*
G37*
G36*
X126774025Y-91167988D02*
G01*
X130691975Y-91167988D01*
X130691975Y-93400012D01*
X126774025Y-93400012D01*
X126774025Y-92812638D01*
X126932775Y-92812638D01*
X126944205Y-92911698D01*
X126994687Y-92964561D01*
X127100415Y-92982182D01*
X127198522Y-92969324D01*
X127249005Y-92930748D01*
X127267102Y-92880265D01*
X127269960Y-92814543D01*
X127269960Y-92599278D01*
X127509990Y-92599278D01*
X127569045Y-92595467D01*
X127643128Y-92770939D01*
X127692658Y-92885874D01*
X127717635Y-92940273D01*
X127752877Y-92977420D01*
X127813837Y-92995517D01*
X127911945Y-92968848D01*
X128000527Y-92913603D01*
X128030055Y-92846927D01*
X128001480Y-92747868D01*
X127970900Y-92678335D01*
X128106255Y-92678335D01*
X128155785Y-92787872D01*
X128172930Y-92808828D01*
X128228175Y-92866930D01*
X128313900Y-92926938D01*
X128443440Y-92981230D01*
X128525831Y-92997661D01*
X128612985Y-93003137D01*
X128727497Y-92991919D01*
X128837352Y-92958264D01*
X128942550Y-92902173D01*
X129014940Y-92840022D01*
X129072090Y-92756440D01*
X129109237Y-92654761D01*
X129121620Y-92538318D01*
X129109476Y-92424256D01*
X129073042Y-92329720D01*
X129018512Y-92257568D01*
X128952075Y-92210658D01*
X128876351Y-92178987D01*
X128793960Y-92152555D01*
X128711569Y-92131838D01*
X128635845Y-92117313D01*
X128514877Y-92073498D01*
X128466300Y-91988725D01*
X128507257Y-91906810D01*
X128610127Y-91877282D01*
X128712045Y-91902047D01*
X128741572Y-91926812D01*
X128763480Y-91945862D01*
X128862540Y-91983963D01*
X128930167Y-91960150D01*
X128995890Y-91888712D01*
X129041610Y-91783937D01*
X129003043Y-91722977D01*
X129197820Y-91722977D01*
X129207345Y-91802987D01*
X129245445Y-91847755D01*
X129334980Y-91862042D01*
X129700740Y-91862042D01*
X129700740Y-92818353D01*
X129703597Y-92884075D01*
X129720743Y-92933605D01*
X129770273Y-92972658D01*
X129864570Y-92984088D01*
X129959820Y-92972658D01*
X130010302Y-92933605D01*
X130027447Y-92885027D01*
X130030305Y-92820258D01*
X130030305Y-91862042D01*
X130394160Y-91862042D01*
X130491315Y-91844897D01*
X130523700Y-91803940D01*
X130533225Y-91724882D01*
X130523700Y-91644872D01*
X130485600Y-91600105D01*
X130396065Y-91585818D01*
X129336885Y-91585818D01*
X129239730Y-91602962D01*
X129207345Y-91643920D01*
X129197820Y-91722977D01*
X129003043Y-91722977D01*
X128982555Y-91690592D01*
X128934930Y-91654398D01*
X128804437Y-91594390D01*
X128705139Y-91572244D01*
X128595840Y-91564863D01*
X128462384Y-91578727D01*
X128349037Y-91620319D01*
X128255797Y-91689640D01*
X128186477Y-91777587D01*
X128144884Y-91875060D01*
X128131020Y-91982057D01*
X128143164Y-92095167D01*
X128179597Y-92190655D01*
X128234128Y-92265664D01*
X128300565Y-92317337D01*
X128375812Y-92354723D01*
X128456775Y-92386870D01*
X128537737Y-92412349D01*
X128612985Y-92429732D01*
X128733952Y-92472595D01*
X128782530Y-92545938D01*
X128762845Y-92626371D01*
X128703790Y-92674631D01*
X128605365Y-92690717D01*
X128513925Y-92661190D01*
X128437725Y-92599278D01*
X128352952Y-92527840D01*
X128289135Y-92504027D01*
X128188170Y-92549747D01*
X128126734Y-92621899D01*
X128106255Y-92678335D01*
X127970900Y-92678335D01*
X127948140Y-92626582D01*
X127904960Y-92526887D01*
X127871940Y-92448783D01*
X127951315Y-92347606D01*
X127998940Y-92229496D01*
X128014815Y-92094452D01*
X128002432Y-91976342D01*
X127965285Y-91869662D01*
X127909087Y-91779175D01*
X127839555Y-91709642D01*
X127733087Y-91641909D01*
X127624502Y-91601269D01*
X127513800Y-91587723D01*
X127102320Y-91587723D01*
X127004212Y-91600581D01*
X126953730Y-91639158D01*
X126935632Y-91689640D01*
X126932775Y-91755362D01*
X126932775Y-92812638D01*
X126774025Y-92812638D01*
X126774025Y-91167988D01*
G37*
%TO.C,R9*%
X87499000Y-102575359D02*
X87499000Y-102882641D01*
X88259000Y-102575359D02*
X88259000Y-102882641D01*
%TO.C,R3*%
X134168359Y-90164000D02*
X134475641Y-90164000D01*
X134168359Y-89404000D02*
X134475641Y-89404000D01*
%TO.C,TP2*%
X108825000Y-91925000D02*
X108825000Y-93325000D01*
X107425000Y-91925000D02*
X108825000Y-91925000D01*
X107425000Y-93325000D02*
X107425000Y-91925000D01*
X108825000Y-93325000D02*
X107425000Y-93325000D01*
%TO.C,D3*%
X94735000Y-100262500D02*
X94735000Y-97977500D01*
X94735000Y-97977500D02*
X93265000Y-97977500D01*
X93265000Y-97977500D02*
X93265000Y-100262500D01*
%TO.C,TP1*%
X116975000Y-91925000D02*
X118375000Y-91925000D01*
X116975000Y-93325000D02*
X116975000Y-91925000D01*
X118375000Y-93325000D02*
X116975000Y-93325000D01*
X118375000Y-91925000D02*
X118375000Y-93325000D01*
%TO.C,JP2*%
X142050000Y-93824000D02*
X142050000Y-95824000D01*
X139250000Y-95824000D02*
X139250000Y-93824000D01*
X142050000Y-95824000D02*
X139250000Y-95824000D01*
X139250000Y-93824000D02*
X142050000Y-93824000D01*
%TO.C,TP4*%
X107425000Y-89825000D02*
X108825000Y-89825000D01*
X108825000Y-91225000D02*
X107425000Y-91225000D01*
X108825000Y-89825000D02*
X108825000Y-91225000D01*
X107425000Y-91225000D02*
X107425000Y-89825000D01*
%TO.C,kibuzzard-6296F5AA*%
G36*
X126816887Y-96247988D02*
G01*
X130649113Y-96247988D01*
X130649113Y-98480012D01*
X126816887Y-98480012D01*
X126816887Y-97359237D01*
X126975637Y-97359237D01*
X126988258Y-97502351D01*
X127026120Y-97634510D01*
X127083508Y-97749763D01*
X127154707Y-97842155D01*
X127237813Y-97916926D01*
X127330920Y-97979315D01*
X127427599Y-98027416D01*
X127521420Y-98059325D01*
X127613336Y-98077184D01*
X127704300Y-98083137D01*
X127796454Y-98075517D01*
X127891942Y-98052658D01*
X128020530Y-98003128D01*
X128086252Y-97963123D01*
X128146260Y-97915498D01*
X128154342Y-97894543D01*
X128297707Y-97894543D01*
X128309137Y-97991698D01*
X128359620Y-98045990D01*
X128465347Y-98064088D01*
X129151147Y-98064088D01*
X129250207Y-98045038D01*
X129282592Y-98003128D01*
X129292117Y-97922165D01*
X129288867Y-97894543D01*
X129415942Y-97894543D01*
X129427372Y-97991698D01*
X129477855Y-98045990D01*
X129583583Y-98064088D01*
X129681690Y-98051229D01*
X129732173Y-98012653D01*
X129750270Y-97963123D01*
X129753127Y-97896447D01*
X129753127Y-97524972D01*
X130172227Y-98003128D01*
X130289385Y-98083137D01*
X130414163Y-98017415D01*
X130490363Y-97903115D01*
X130427498Y-97784053D01*
X130355941Y-97704876D01*
X130263191Y-97608316D01*
X130149248Y-97494373D01*
X130014113Y-97363047D01*
X130090313Y-97290658D01*
X130198897Y-97185168D01*
X130292242Y-97091585D01*
X130370347Y-97009908D01*
X130433212Y-96940137D01*
X130490363Y-96824885D01*
X130414163Y-96710585D01*
X130288432Y-96644863D01*
X130172227Y-96722967D01*
X130104257Y-96801834D01*
X130028362Y-96889083D01*
X129944542Y-96984715D01*
X129852797Y-97088727D01*
X129753127Y-97201123D01*
X129753127Y-96837268D01*
X129743603Y-96738207D01*
X129691691Y-96685344D01*
X129585488Y-96667723D01*
X129487380Y-96680581D01*
X129436897Y-96719158D01*
X129418800Y-96769640D01*
X129415942Y-96835362D01*
X129415942Y-97894543D01*
X129288867Y-97894543D01*
X129282592Y-97841203D01*
X129244492Y-97796435D01*
X129153052Y-97782148D01*
X128634892Y-97782148D01*
X128634892Y-96837268D01*
X128625367Y-96738207D01*
X128573456Y-96685344D01*
X128467252Y-96667723D01*
X128369145Y-96680581D01*
X128318662Y-96719158D01*
X128300565Y-96769640D01*
X128297707Y-96835362D01*
X128297707Y-97894543D01*
X128154342Y-97894543D01*
X128171977Y-97848823D01*
X128130067Y-97742142D01*
X128063869Y-97662133D01*
X128002432Y-97635463D01*
X127910992Y-97673562D01*
X127876702Y-97698328D01*
X127801455Y-97728808D01*
X127690012Y-97744048D01*
X127566664Y-97723093D01*
X127448077Y-97660228D01*
X127350922Y-97540212D01*
X127322347Y-97459012D01*
X127312822Y-97367810D01*
X127322347Y-97276608D01*
X127350922Y-97195407D01*
X127446172Y-97077297D01*
X127567140Y-97013004D01*
X127690012Y-96991572D01*
X127810027Y-97007765D01*
X127903372Y-97056342D01*
X128000527Y-97098252D01*
X128063392Y-97072535D01*
X128133877Y-96995382D01*
X128173882Y-96889655D01*
X128124352Y-96799167D01*
X128071012Y-96764877D01*
X128025292Y-96738207D01*
X127885275Y-96682010D01*
X127793597Y-96661293D01*
X127703347Y-96654387D01*
X127577829Y-96665817D01*
X127452734Y-96700107D01*
X127328062Y-96757258D01*
X127234479Y-96817027D01*
X127151850Y-96889655D01*
X127081603Y-96979190D01*
X127025167Y-97089680D01*
X126988020Y-97217553D01*
X126975637Y-97359237D01*
X126816887Y-97359237D01*
X126816887Y-96247988D01*
G37*
%TO.C,kibuzzard-6296F2B1*%
G36*
X117093483Y-69634385D02*
G01*
X117124915Y-69701060D01*
X117119200Y-69769640D01*
X117027760Y-69809645D01*
X116910603Y-69836315D01*
X116875360Y-69945852D01*
X116909650Y-70055390D01*
X117012520Y-70082060D01*
X117119200Y-70097300D01*
X117154443Y-70135400D01*
X117164920Y-70207790D01*
X117134916Y-70304945D01*
X117044905Y-70337330D01*
X116732485Y-70337330D01*
X116732485Y-69615335D01*
X116999185Y-69615335D01*
X117093483Y-69634385D01*
G37*
G36*
X114227410Y-69660103D02*
G01*
X114282655Y-69786785D01*
X114227410Y-69912515D01*
X114116920Y-69954425D01*
X113873080Y-69954425D01*
X113873080Y-69617240D01*
X114113110Y-69617240D01*
X114227410Y-69660103D01*
G37*
G36*
X113377145Y-68881275D02*
G01*
X117660855Y-68881275D01*
X117660855Y-71084725D01*
X113377145Y-71084725D01*
X113377145Y-70504970D01*
X113535895Y-70504970D01*
X113547325Y-70604030D01*
X113597807Y-70656894D01*
X113703535Y-70674515D01*
X113801643Y-70661656D01*
X113852125Y-70623080D01*
X113870222Y-70572598D01*
X113873080Y-70506875D01*
X113873080Y-70291610D01*
X114113110Y-70291610D01*
X114172165Y-70287800D01*
X114246248Y-70463272D01*
X114295778Y-70578207D01*
X114320755Y-70632605D01*
X114355997Y-70669753D01*
X114416958Y-70687850D01*
X114515065Y-70661180D01*
X114603648Y-70605935D01*
X114633175Y-70539260D01*
X114623284Y-70504970D01*
X114737950Y-70504970D01*
X114740808Y-70573550D01*
X114758905Y-70623080D01*
X114809388Y-70661656D01*
X114903685Y-70674515D01*
X115000840Y-70661656D01*
X115052275Y-70623080D01*
X115070373Y-70574503D01*
X115073230Y-70508780D01*
X115073230Y-69866795D01*
X115108472Y-69914182D01*
X115195150Y-70033483D01*
X115288971Y-70161832D01*
X115345645Y-70236365D01*
X115360885Y-70257320D01*
X115411368Y-70296373D01*
X115489473Y-70316375D01*
X115569482Y-70294467D01*
X115616155Y-70260178D01*
X115650445Y-70215410D01*
X115691879Y-70158974D01*
X115766650Y-70054438D01*
X115847136Y-69943233D01*
X115905715Y-69866795D01*
X115905715Y-70504970D01*
X115915240Y-70604030D01*
X115941910Y-70642130D01*
X115991440Y-70664990D01*
X116079070Y-70674515D01*
X116170510Y-70663085D01*
X116224803Y-70613079D01*
X116242900Y-70508780D01*
X116242900Y-70503065D01*
X116395300Y-70503065D01*
X116406730Y-70602125D01*
X116457213Y-70656417D01*
X116562940Y-70674515D01*
X117063955Y-70674515D01*
X117178573Y-70660228D01*
X117281125Y-70617365D01*
X117371613Y-70545928D01*
X117442415Y-70453323D01*
X117485912Y-70346961D01*
X117502105Y-70226840D01*
X117489617Y-70119948D01*
X117452152Y-70020253D01*
X117389710Y-69927755D01*
X117444003Y-69817741D01*
X117462100Y-69697250D01*
X117448342Y-69587183D01*
X117407067Y-69488123D01*
X117338275Y-69400070D01*
X117253185Y-69332337D01*
X117155395Y-69291697D01*
X117044905Y-69278150D01*
X116564845Y-69278150D01*
X116466738Y-69291009D01*
X116416255Y-69329585D01*
X116398158Y-69379115D01*
X116395300Y-69445790D01*
X116395300Y-70503065D01*
X116242900Y-70503065D01*
X116242900Y-69451505D01*
X116240043Y-69384830D01*
X116221945Y-69333395D01*
X116171701Y-69294819D01*
X116074308Y-69281960D01*
X115975486Y-69294819D01*
X115920955Y-69333395D01*
X115868910Y-69399918D01*
X115799645Y-69489757D01*
X115713158Y-69602914D01*
X115609449Y-69739389D01*
X115488520Y-69899180D01*
X115056085Y-69331490D01*
X115044655Y-69320060D01*
X114996078Y-69294343D01*
X114907495Y-69281960D01*
X114810340Y-69294342D01*
X114758905Y-69331490D01*
X114740808Y-69381973D01*
X114737950Y-69447695D01*
X114737950Y-70504970D01*
X114623284Y-70504970D01*
X114604600Y-70440200D01*
X114551260Y-70318915D01*
X114508080Y-70219220D01*
X114475060Y-70141115D01*
X114554435Y-70039938D01*
X114602060Y-69921828D01*
X114617935Y-69786785D01*
X114605552Y-69668675D01*
X114568405Y-69561995D01*
X114512207Y-69471507D01*
X114442675Y-69401975D01*
X114336207Y-69334242D01*
X114227622Y-69293602D01*
X114116920Y-69280055D01*
X113705440Y-69280055D01*
X113607332Y-69292914D01*
X113556850Y-69331490D01*
X113538752Y-69381973D01*
X113535895Y-69447695D01*
X113535895Y-70504970D01*
X113377145Y-70504970D01*
X113377145Y-68881275D01*
G37*
%TO.C,kibuzzard-6296FB5C*%
G36*
X81070683Y-110469990D02*
G01*
X84529317Y-110469990D01*
X84529317Y-112330010D01*
X81070683Y-112330010D01*
X81070683Y-111728613D01*
X81202975Y-111728613D01*
X81244250Y-111819894D01*
X81258537Y-111837356D01*
X81304575Y-111885775D01*
X81376012Y-111935781D01*
X81483962Y-111981025D01*
X81552622Y-111994717D01*
X81625250Y-111999281D01*
X81720676Y-111989933D01*
X81812222Y-111961887D01*
X81899887Y-111915144D01*
X81960212Y-111863352D01*
X81975816Y-111840531D01*
X82152300Y-111840531D01*
X82171350Y-111942131D01*
X82213419Y-111971897D01*
X82292000Y-111981819D01*
X82582512Y-111981819D01*
X82699442Y-111971004D01*
X82807342Y-111938559D01*
X82906214Y-111884485D01*
X82924465Y-111869106D01*
X83230212Y-111869106D01*
X83253231Y-111923081D01*
X83322287Y-111970706D01*
X83407219Y-111997694D01*
X83458019Y-111982613D01*
X83486594Y-111953244D01*
X83511200Y-111907206D01*
X83593750Y-111735756D01*
X84033488Y-111735756D01*
X84116037Y-111907206D01*
X84140644Y-111954831D01*
X84169219Y-111984994D01*
X84220019Y-111999281D01*
X84304950Y-111972294D01*
X84374006Y-111923478D01*
X84397025Y-111869106D01*
X84370038Y-111788144D01*
X83941412Y-110902319D01*
X83889025Y-110840406D01*
X83814412Y-110819769D01*
X83739006Y-110841994D01*
X83685825Y-110900731D01*
X83257200Y-111788144D01*
X83230212Y-111869106D01*
X82924465Y-111869106D01*
X82996056Y-111808781D01*
X83070718Y-111717946D01*
X83124048Y-111618480D01*
X83156046Y-111510381D01*
X83166712Y-111393650D01*
X83155798Y-111277366D01*
X83123056Y-111170606D01*
X83068486Y-111073372D01*
X82992088Y-110985663D01*
X82901302Y-110913084D01*
X82803572Y-110861242D01*
X82698896Y-110830137D01*
X82587275Y-110819769D01*
X82293587Y-110818181D01*
X82211831Y-110828897D01*
X82169762Y-110861044D01*
X82154681Y-110902319D01*
X82152300Y-110957881D01*
X82152300Y-111840531D01*
X81975816Y-111840531D01*
X82007837Y-111793700D01*
X82038794Y-111708967D01*
X82049112Y-111611931D01*
X82038992Y-111516880D01*
X82008631Y-111438100D01*
X81963189Y-111377973D01*
X81907825Y-111338881D01*
X81844722Y-111312489D01*
X81776062Y-111290462D01*
X81707403Y-111273198D01*
X81644300Y-111261094D01*
X81543494Y-111224581D01*
X81503012Y-111153937D01*
X81537144Y-111085675D01*
X81622869Y-111061069D01*
X81707800Y-111081706D01*
X81732406Y-111102344D01*
X81750662Y-111118219D01*
X81833212Y-111149969D01*
X81889569Y-111130125D01*
X81944337Y-111070594D01*
X81982437Y-110983281D01*
X81933225Y-110905494D01*
X81893537Y-110875331D01*
X81784794Y-110825325D01*
X81702045Y-110806870D01*
X81610962Y-110800719D01*
X81499749Y-110812272D01*
X81405293Y-110846933D01*
X81327594Y-110904700D01*
X81269826Y-110977990D01*
X81235166Y-111059217D01*
X81223612Y-111148381D01*
X81233733Y-111242639D01*
X81264094Y-111322212D01*
X81309536Y-111384720D01*
X81364900Y-111427781D01*
X81427606Y-111458936D01*
X81495075Y-111485725D01*
X81562544Y-111506958D01*
X81625250Y-111521444D01*
X81726056Y-111557163D01*
X81766537Y-111618281D01*
X81750133Y-111685309D01*
X81700921Y-111725526D01*
X81618900Y-111738931D01*
X81542700Y-111714325D01*
X81479200Y-111662731D01*
X81408556Y-111603200D01*
X81355375Y-111583356D01*
X81271237Y-111621456D01*
X81220041Y-111681583D01*
X81202975Y-111728613D01*
X81070683Y-111728613D01*
X81070683Y-110469990D01*
G37*
G36*
X83919188Y-111500806D02*
G01*
X83708050Y-111500806D01*
X83812825Y-111283319D01*
X83919188Y-111500806D01*
G37*
G36*
X82698598Y-111122386D02*
G01*
X82796031Y-111187275D01*
X82863302Y-111284311D01*
X82885725Y-111402381D01*
X82862706Y-111520055D01*
X82793650Y-111615900D01*
X82696019Y-111679598D01*
X82587275Y-111700831D01*
X82433287Y-111700831D01*
X82433287Y-111100756D01*
X82585687Y-111100756D01*
X82698598Y-111122386D01*
G37*
%TO.C,C10*%
X119260000Y-104257836D02*
X119260000Y-104042164D01*
X119980000Y-104257836D02*
X119980000Y-104042164D01*
%TO.C,SW6*%
X126494000Y-87583000D02*
X125204000Y-87583000D01*
X125204000Y-90333000D02*
X125204000Y-84633000D01*
X126494000Y-88883000D02*
X126704000Y-88683000D01*
X126494000Y-87583000D02*
X126704000Y-87783000D01*
X125204000Y-88883000D02*
X126494000Y-88883000D01*
X124194000Y-84033000D02*
X123404000Y-84033000D01*
X122354000Y-86083000D02*
X122354000Y-85883000D01*
X126704000Y-88683000D02*
X126704000Y-87783000D01*
X122354000Y-89083000D02*
X122354000Y-87383000D01*
X123404000Y-90933000D02*
X124194000Y-90933000D01*
%TO.C,kibuzzard-6296F75E*%
G36*
X96515688Y-90627606D02*
G01*
X99484313Y-90627606D01*
X99484313Y-93372394D01*
X96515688Y-93372394D01*
X96515688Y-92659606D01*
X97011781Y-92659606D01*
X97037975Y-92770930D01*
X97116556Y-92847725D01*
X97221331Y-92876300D01*
X98211931Y-92876300D01*
X98333375Y-92862013D01*
X98383381Y-92831056D01*
X98411956Y-92769144D01*
X98423863Y-92661987D01*
X98423190Y-92657225D01*
X98542925Y-92657225D01*
X98589359Y-92828675D01*
X98660202Y-92862608D01*
X98779859Y-92873919D01*
X98896838Y-92856655D01*
X98959644Y-92804862D01*
X98984647Y-92739378D01*
X98988219Y-92654844D01*
X98988219Y-92645319D01*
X98947738Y-92478631D01*
X98870645Y-92441127D01*
X98748903Y-92428625D01*
X98631924Y-92446484D01*
X98569119Y-92500063D01*
X98546497Y-92564356D01*
X98542925Y-92647700D01*
X98542925Y-92657225D01*
X98423190Y-92657225D01*
X98408384Y-92552450D01*
X98351234Y-92486966D01*
X98216694Y-92464344D01*
X97623763Y-92464344D01*
X98361950Y-91442788D01*
X98390525Y-91340394D01*
X98363141Y-91228475D01*
X98285750Y-91152275D01*
X98180975Y-91123700D01*
X97223713Y-91123700D01*
X97139178Y-91127272D01*
X97076075Y-91149894D01*
X97027855Y-91212997D01*
X97011781Y-91335631D01*
X97029045Y-91452908D01*
X97080838Y-91514225D01*
X97146322Y-91534466D01*
X97230856Y-91538038D01*
X97778544Y-91538038D01*
X97040356Y-92559594D01*
X97011781Y-92659606D01*
X96515688Y-92659606D01*
X96515688Y-90627606D01*
G37*
%TO.C,TP5*%
X107425000Y-87300000D02*
X107425000Y-85900000D01*
X108825000Y-85900000D02*
X108825000Y-87300000D01*
X107425000Y-85900000D02*
X108825000Y-85900000D01*
X108825000Y-87300000D02*
X107425000Y-87300000D01*
D17*
%TO.C,SW5*%
X88050000Y-86200000D02*
X88050000Y-83200000D01*
D14*
X85550000Y-81700000D02*
X85550000Y-87700000D01*
D17*
X86550000Y-86200000D02*
X88050000Y-86200000D01*
X86550000Y-83200000D02*
X86550000Y-86200000D01*
X88050000Y-83200000D02*
X86550000Y-83200000D01*
D14*
X89050000Y-87700000D02*
X89050000Y-81700000D01*
X85427000Y-89250000D02*
G75*
G03*
X85427000Y-89250000I-127000J0D01*
G01*
D13*
%TO.C,C14*%
X95290164Y-91063000D02*
X95505836Y-91063000D01*
X95290164Y-90343000D02*
X95505836Y-90343000D01*
%TO.C,kibuzzard-6296F701*%
G36*
X100722856Y-82615700D02*
G01*
X103277144Y-82615700D01*
X103277144Y-85384300D01*
X100722856Y-85384300D01*
X100722856Y-83328488D01*
X101218950Y-83328488D01*
X101273719Y-83454694D01*
X101788069Y-84223838D01*
X101788069Y-84673894D01*
X101791641Y-84758428D01*
X101814263Y-84822722D01*
X101878556Y-84873919D01*
X102000000Y-84888206D01*
X102121444Y-84873919D01*
X102185738Y-84823912D01*
X102208359Y-84760809D01*
X102211931Y-84678656D01*
X102211931Y-84223838D01*
X102726281Y-83454694D01*
X102781050Y-83328488D01*
X102751880Y-83251097D01*
X102664369Y-83171325D01*
X102525066Y-83111794D01*
X102447675Y-83134416D01*
X102369094Y-83228475D01*
X102000000Y-83819025D01*
X101630906Y-83228475D01*
X101545181Y-83130844D01*
X101473744Y-83111794D01*
X101323725Y-83182041D01*
X101245144Y-83253776D01*
X101218950Y-83328488D01*
X100722856Y-83328488D01*
X100722856Y-82615700D01*
G37*
%TO.C,kibuzzard-6296FD26*%
G36*
X134598958Y-72733533D02*
G01*
X134598958Y-72295119D01*
X134931275Y-72295119D01*
X134958263Y-72375288D01*
X135006681Y-72445534D01*
X135059863Y-72468950D01*
X135136063Y-72445138D01*
X136025063Y-72006988D01*
X136081419Y-71953806D01*
X136102850Y-71878400D01*
X136102850Y-71862525D01*
X136081419Y-71788706D01*
X136025063Y-71735525D01*
X135136063Y-71297375D01*
X135059863Y-71273562D01*
X135006681Y-71296978D01*
X134958263Y-71367225D01*
X134931275Y-71460888D01*
X134974138Y-71530738D01*
X135021762Y-71552963D01*
X135717088Y-71870463D01*
X135680377Y-71887727D01*
X135595644Y-71926819D01*
X135483527Y-71978413D01*
X135364663Y-72033181D01*
X135245798Y-72087752D01*
X135133681Y-72138750D01*
X135046369Y-72178636D01*
X135001919Y-72199869D01*
X134959850Y-72226063D01*
X134937625Y-72253050D01*
X134931275Y-72295119D01*
X134598958Y-72295119D01*
X134598958Y-71044962D01*
X134939213Y-71044962D01*
X134949928Y-71126719D01*
X134982075Y-71168787D01*
X135023350Y-71183869D01*
X135078913Y-71186250D01*
X135961563Y-71186250D01*
X136063163Y-71167200D01*
X136092928Y-71125131D01*
X136102850Y-71046550D01*
X136102850Y-70756037D01*
X136092035Y-70639108D01*
X136059591Y-70531208D01*
X136005516Y-70432336D01*
X135929813Y-70342494D01*
X135838978Y-70267832D01*
X135739511Y-70214502D01*
X135631412Y-70182504D01*
X135514681Y-70171837D01*
X135398397Y-70182752D01*
X135291638Y-70215494D01*
X135194403Y-70270064D01*
X135106694Y-70346462D01*
X135034115Y-70437248D01*
X134982273Y-70534978D01*
X134951168Y-70639654D01*
X134940800Y-70751275D01*
X134939213Y-71044962D01*
X134598958Y-71044962D01*
X134598958Y-69486037D01*
X134929687Y-69486037D01*
X134939212Y-69590636D01*
X134967787Y-69694882D01*
X135015413Y-69798775D01*
X135065220Y-69876761D01*
X135125744Y-69945619D01*
X135200356Y-70004158D01*
X135292431Y-70051188D01*
X135398992Y-70082144D01*
X135517063Y-70092462D01*
X135636323Y-70081945D01*
X135746456Y-70050394D01*
X135842500Y-70002570D01*
X135919494Y-69943237D01*
X135981803Y-69873983D01*
X136033794Y-69796394D01*
X136073878Y-69715828D01*
X136100469Y-69637644D01*
X136115352Y-69561047D01*
X136120313Y-69485244D01*
X136113963Y-69408448D01*
X136094913Y-69328875D01*
X136053638Y-69221719D01*
X136020300Y-69166950D01*
X135980613Y-69116944D01*
X135925050Y-69095512D01*
X135836150Y-69130437D01*
X135769475Y-69185603D01*
X135747250Y-69236800D01*
X135779000Y-69313000D01*
X135799638Y-69341575D01*
X135825038Y-69404281D01*
X135837738Y-69497150D01*
X135820275Y-69599941D01*
X135767888Y-69698762D01*
X135667875Y-69779725D01*
X135600208Y-69803537D01*
X135524206Y-69811475D01*
X135448205Y-69803537D01*
X135380538Y-69779725D01*
X135282113Y-69700350D01*
X135228534Y-69599544D01*
X135210675Y-69497150D01*
X135224169Y-69397138D01*
X135264650Y-69319350D01*
X135299575Y-69238387D01*
X135278144Y-69186000D01*
X135213850Y-69127262D01*
X135125744Y-69093925D01*
X135050338Y-69135200D01*
X135021762Y-69179650D01*
X134999537Y-69217750D01*
X134952706Y-69334431D01*
X134935442Y-69410830D01*
X134929687Y-69486037D01*
X134598958Y-69486037D01*
X134598958Y-68432467D01*
X136451042Y-68432467D01*
X136451042Y-72733533D01*
X134598958Y-72733533D01*
G37*
G36*
X135641086Y-70475844D02*
G01*
X135736931Y-70544900D01*
X135800630Y-70642531D01*
X135821863Y-70751275D01*
X135821863Y-70905263D01*
X135221788Y-70905263D01*
X135221788Y-70752862D01*
X135243417Y-70639952D01*
X135308306Y-70542519D01*
X135405342Y-70475248D01*
X135523413Y-70452825D01*
X135641086Y-70475844D01*
G37*
%TO.C,R10*%
X88809000Y-103573359D02*
X88809000Y-103880641D01*
X89569000Y-103573359D02*
X89569000Y-103880641D01*
%TO.C,C3*%
X105035164Y-131286000D02*
X105250836Y-131286000D01*
X105035164Y-132006000D02*
X105250836Y-132006000D01*
%TO.C,R4*%
X122737709Y-99962006D02*
X122430427Y-99962006D01*
X122737709Y-99202006D02*
X122430427Y-99202006D01*
%TO.C,C11*%
X119992164Y-105274000D02*
X120207836Y-105274000D01*
X119992164Y-105994000D02*
X120207836Y-105994000D01*
%TO.C,JP3*%
X134635000Y-98364000D02*
X134635000Y-96364000D01*
X137435000Y-96364000D02*
X137435000Y-98364000D01*
X137435000Y-98364000D02*
X134635000Y-98364000D01*
X134635000Y-96364000D02*
X137435000Y-96364000D01*
%TO.C,R16*%
X97980000Y-101846359D02*
X97980000Y-102153641D01*
X97220000Y-101846359D02*
X97220000Y-102153641D01*
%TO.C,kibuzzard-6296F61E*%
G36*
X136948988Y-81629030D02*
G01*
X136948988Y-80980695D01*
X137345863Y-80980695D01*
X137359727Y-81114151D01*
X137401319Y-81227498D01*
X137470640Y-81320738D01*
X137558587Y-81390058D01*
X137656060Y-81431651D01*
X137763057Y-81445515D01*
X137876167Y-81433371D01*
X137971655Y-81396938D01*
X138046664Y-81342407D01*
X138098337Y-81275970D01*
X138135723Y-81200723D01*
X138167870Y-81119760D01*
X138193349Y-81038797D01*
X138210732Y-80963550D01*
X138253595Y-80842582D01*
X138326938Y-80794005D01*
X138407371Y-80813690D01*
X138455631Y-80872745D01*
X138471717Y-80971170D01*
X138442190Y-81062610D01*
X138380278Y-81138810D01*
X138308840Y-81223582D01*
X138285027Y-81287400D01*
X138330747Y-81388365D01*
X138402899Y-81449801D01*
X138459335Y-81470280D01*
X138568872Y-81420750D01*
X138589828Y-81403605D01*
X138647930Y-81348360D01*
X138707938Y-81262635D01*
X138762230Y-81133095D01*
X138778661Y-81050704D01*
X138784137Y-80963550D01*
X138772919Y-80849038D01*
X138739264Y-80739183D01*
X138683173Y-80633985D01*
X138621022Y-80561595D01*
X138537440Y-80504445D01*
X138435761Y-80467297D01*
X138319318Y-80454915D01*
X138205256Y-80467059D01*
X138110720Y-80503492D01*
X138038568Y-80558023D01*
X137991658Y-80624460D01*
X137959987Y-80700184D01*
X137933555Y-80782575D01*
X137912838Y-80864966D01*
X137898313Y-80940690D01*
X137854498Y-81061657D01*
X137769725Y-81110235D01*
X137687810Y-81069277D01*
X137658282Y-80966408D01*
X137683047Y-80864490D01*
X137707812Y-80834962D01*
X137726862Y-80813055D01*
X137764963Y-80713995D01*
X137741150Y-80646367D01*
X137669712Y-80580645D01*
X137564937Y-80534925D01*
X137471592Y-80593980D01*
X137435398Y-80641605D01*
X137375390Y-80772097D01*
X137353244Y-80871396D01*
X137345863Y-80980695D01*
X136948988Y-80980695D01*
X136948988Y-79846267D01*
X137347767Y-79846267D01*
X137365230Y-79989566D01*
X137417617Y-80113391D01*
X137504930Y-80217742D01*
X137614256Y-80296588D01*
X137732683Y-80343896D01*
X137860212Y-80359665D01*
X137957368Y-80350140D01*
X138011660Y-80298229D01*
X138029758Y-80192025D01*
X138018328Y-80094870D01*
X137984038Y-80043435D01*
X137936413Y-80025337D01*
X137873547Y-80022480D01*
X137862118Y-80022480D01*
X137818302Y-80014860D01*
X137729720Y-79964377D01*
X137684952Y-79858650D01*
X137702098Y-79763400D01*
X137739245Y-79712917D01*
X137790680Y-79683390D01*
X137839258Y-79670055D01*
X137922601Y-79687914D01*
X138001182Y-79741492D01*
X138073334Y-79820312D01*
X138137390Y-79913895D01*
X138197874Y-80014860D01*
X138259310Y-80115825D01*
X138327414Y-80209408D01*
X138407900Y-80288227D01*
X138498626Y-80341806D01*
X138597447Y-80359665D01*
X138717463Y-80310135D01*
X138768897Y-80192025D01*
X138768897Y-79447170D01*
X138746038Y-79329060D01*
X138696508Y-79288103D01*
X138600305Y-79275720D01*
X138503150Y-79287150D01*
X138447905Y-79331918D01*
X138429808Y-79443360D01*
X138429808Y-79791975D01*
X138420282Y-79791975D01*
X138401233Y-79744350D01*
X138336939Y-79626240D01*
X138231688Y-79492890D01*
X138163108Y-79430977D01*
X138075477Y-79378590D01*
X137975465Y-79342871D01*
X137869738Y-79330965D01*
X137738822Y-79346840D01*
X137617854Y-79394465D01*
X137506835Y-79473840D01*
X137418464Y-79578721D01*
X137365442Y-79702863D01*
X137347767Y-79846267D01*
X136948988Y-79846267D01*
X136948988Y-79116970D01*
X139181012Y-79116970D01*
X139181012Y-81629030D01*
X136948988Y-81629030D01*
G37*
%TO.C,kibuzzard-6296FB81*%
G36*
X81074388Y-112469990D02*
G01*
X84525612Y-112469990D01*
X84525612Y-114330010D01*
X81074388Y-114330010D01*
X81074388Y-113728613D01*
X81338971Y-113728613D01*
X81380246Y-113819894D01*
X81394533Y-113837356D01*
X81440571Y-113885775D01*
X81512008Y-113935781D01*
X81619958Y-113981025D01*
X81688618Y-113994717D01*
X81761246Y-113999281D01*
X81856672Y-113989933D01*
X81948218Y-113961887D01*
X82035883Y-113915144D01*
X82096208Y-113863352D01*
X82143833Y-113793700D01*
X82174790Y-113708967D01*
X82185108Y-113611931D01*
X82174988Y-113516880D01*
X82144627Y-113438100D01*
X82112833Y-113396031D01*
X82264483Y-113396031D01*
X82275001Y-113515292D01*
X82306552Y-113625425D01*
X82354376Y-113721469D01*
X82413708Y-113798463D01*
X82482963Y-113860772D01*
X82560552Y-113912762D01*
X82641118Y-113952847D01*
X82719302Y-113979438D01*
X82795899Y-113994320D01*
X82871702Y-113999281D01*
X82948497Y-113992931D01*
X83028071Y-113973881D01*
X83135227Y-113932606D01*
X83189996Y-113899269D01*
X83240002Y-113859581D01*
X83246737Y-113842119D01*
X83366208Y-113842119D01*
X83375733Y-113923081D01*
X83417802Y-113968325D01*
X83505908Y-113983406D01*
X84077408Y-113983406D01*
X84159958Y-113967531D01*
X84186946Y-113932606D01*
X84194883Y-113865138D01*
X84186946Y-113797669D01*
X84155196Y-113760363D01*
X84078996Y-113748456D01*
X83647196Y-113748456D01*
X83647196Y-112961056D01*
X83639258Y-112878506D01*
X83595999Y-112834453D01*
X83507496Y-112819769D01*
X83425740Y-112830484D01*
X83383671Y-112862631D01*
X83368590Y-112904700D01*
X83366208Y-112959469D01*
X83366208Y-113842119D01*
X83246737Y-113842119D01*
X83261433Y-113804019D01*
X83226508Y-113715119D01*
X83171343Y-113648444D01*
X83120146Y-113626219D01*
X83043946Y-113657969D01*
X83015371Y-113678606D01*
X82952665Y-113704006D01*
X82859796Y-113716706D01*
X82757005Y-113699244D01*
X82658183Y-113646856D01*
X82577221Y-113546844D01*
X82553408Y-113479177D01*
X82545471Y-113403175D01*
X82553408Y-113327173D01*
X82577221Y-113259506D01*
X82656596Y-113161081D01*
X82757402Y-113107503D01*
X82859796Y-113089644D01*
X82959808Y-113103137D01*
X83037596Y-113143619D01*
X83118558Y-113178544D01*
X83170946Y-113157112D01*
X83229683Y-113092819D01*
X83263021Y-113004712D01*
X83221746Y-112929306D01*
X83177296Y-112900731D01*
X83139196Y-112878506D01*
X83022515Y-112831675D01*
X82946116Y-112814411D01*
X82870908Y-112808656D01*
X82766310Y-112818181D01*
X82662064Y-112846756D01*
X82558171Y-112894381D01*
X82480185Y-112944189D01*
X82411327Y-113004712D01*
X82352788Y-113079325D01*
X82305758Y-113171400D01*
X82274802Y-113277961D01*
X82264483Y-113396031D01*
X82112833Y-113396031D01*
X82099185Y-113377973D01*
X82043821Y-113338881D01*
X81980718Y-113312489D01*
X81912058Y-113290462D01*
X81843399Y-113273198D01*
X81780296Y-113261094D01*
X81679490Y-113224581D01*
X81639008Y-113153937D01*
X81673140Y-113085675D01*
X81758865Y-113061069D01*
X81843796Y-113081706D01*
X81868402Y-113102344D01*
X81886658Y-113118219D01*
X81969208Y-113149969D01*
X82025565Y-113130125D01*
X82080333Y-113070594D01*
X82118433Y-112983281D01*
X82069221Y-112905494D01*
X82029533Y-112875331D01*
X81920790Y-112825325D01*
X81838041Y-112806870D01*
X81746958Y-112800719D01*
X81635745Y-112812272D01*
X81541289Y-112846933D01*
X81463590Y-112904700D01*
X81405822Y-112977990D01*
X81371162Y-113059217D01*
X81359608Y-113148381D01*
X81369729Y-113242639D01*
X81400090Y-113322212D01*
X81445532Y-113384720D01*
X81500896Y-113427781D01*
X81563602Y-113458936D01*
X81631071Y-113485725D01*
X81698540Y-113506958D01*
X81761246Y-113521444D01*
X81862052Y-113557163D01*
X81902533Y-113618281D01*
X81886129Y-113685309D01*
X81836917Y-113725526D01*
X81754896Y-113738931D01*
X81678696Y-113714325D01*
X81615196Y-113662731D01*
X81544552Y-113603200D01*
X81491371Y-113583356D01*
X81407233Y-113621456D01*
X81356036Y-113681583D01*
X81338971Y-113728613D01*
X81074388Y-113728613D01*
X81074388Y-112469990D01*
G37*
%TO.C,D4*%
X95065000Y-97977500D02*
X95065000Y-100262500D01*
X96535000Y-97977500D02*
X95065000Y-97977500D01*
X96535000Y-100262500D02*
X96535000Y-97977500D01*
%TD*%
%LPC*%
D18*
%TO.C,U6*%
X94922000Y-108213000D03*
X94922000Y-109483000D03*
X94922000Y-110753000D03*
X94922000Y-112023000D03*
X102122000Y-112023000D03*
X102122000Y-110753000D03*
X102122000Y-109483000D03*
X102122000Y-108213000D03*
%TD*%
D19*
%TO.C,R1*%
X89000000Y-135500000D03*
X89000000Y-136520000D03*
%TD*%
%TO.C,R11*%
X121349000Y-97173000D03*
X121349000Y-98193000D03*
%TD*%
D20*
%TO.C,U1*%
X134750000Y-136495000D03*
X134750000Y-133955000D03*
D21*
X129950000Y-129495000D03*
X129950000Y-127495000D03*
D20*
X127580000Y-120795000D03*
X125040000Y-120795000D03*
X122500000Y-120795000D03*
X119960000Y-120795000D03*
X91300000Y-127293000D03*
X91300000Y-129833000D03*
X91300000Y-132373000D03*
X91300000Y-134913000D03*
X96960000Y-141195000D03*
X99500000Y-141195000D03*
X115300000Y-141195000D03*
X117840000Y-141195000D03*
%TD*%
D22*
%TO.C,H1*%
X88000000Y-66400000D03*
%TD*%
%TO.C,H3*%
X140500000Y-129400000D03*
%TD*%
D19*
%TO.C,R7*%
X143957000Y-112049000D03*
X143957000Y-113069000D03*
%TD*%
D22*
%TO.C,H2*%
X138000000Y-66400000D03*
%TD*%
D23*
%TO.C,C5*%
X123163993Y-111403940D03*
X124123993Y-111403940D03*
%TD*%
%TO.C,C18*%
X114080000Y-92104999D03*
X115040000Y-92104999D03*
%TD*%
D24*
%TO.C,R6*%
X141160000Y-92919000D03*
X140140000Y-92919000D03*
%TD*%
D25*
%TO.C,J4*%
X85013285Y-101185400D03*
X85013285Y-102186160D03*
X85013285Y-103181840D03*
X85013285Y-104182600D03*
D26*
X81340445Y-105483080D03*
X81340445Y-99884920D03*
%TD*%
D27*
%TO.C,U7*%
X115174999Y-84625001D03*
X114524998Y-84625001D03*
X113874999Y-84625001D03*
X113224998Y-84625001D03*
X112574999Y-84625001D03*
X111924998Y-84625001D03*
X111274999Y-84625001D03*
X110624998Y-84625001D03*
X110624998Y-90525002D03*
X111274999Y-90525002D03*
X111924998Y-90525002D03*
X112574999Y-90525002D03*
X113224998Y-90525002D03*
X113874999Y-90525002D03*
X114524998Y-90525002D03*
X115174999Y-90525002D03*
D28*
X112900000Y-87575000D03*
%TD*%
D29*
%TO.C,C16*%
X103822000Y-108206000D03*
X103822000Y-107246000D03*
%TD*%
%TO.C,C1*%
X103250000Y-135750000D03*
X103250000Y-134790000D03*
%TD*%
D19*
%TO.C,R15*%
X95800000Y-101490000D03*
X95800000Y-102510000D03*
%TD*%
D30*
%TO.C,C12*%
X93175000Y-90747000D03*
X92215000Y-90747000D03*
%TD*%
D31*
%TO.C,Y1*%
X124205521Y-103376790D03*
X124205521Y-101176790D03*
X122505521Y-101176790D03*
X122505521Y-103376790D03*
%TD*%
D32*
%TO.C,SW3*%
X129603000Y-86855000D03*
X137603000Y-86855000D03*
%TD*%
D19*
%TO.C,R13*%
X94000000Y-101490000D03*
X94000000Y-102510000D03*
%TD*%
D30*
%TO.C,C9*%
X124513608Y-106254082D03*
X123553608Y-106254082D03*
%TD*%
D20*
%TO.C,J5*%
X106801000Y-69983000D03*
D33*
X106801000Y-72523000D03*
X106801000Y-75063000D03*
X106801000Y-77603000D03*
X106801000Y-80143000D03*
X106801000Y-82683000D03*
%TD*%
D34*
%TO.C,U2*%
X104650000Y-135637500D03*
X105600000Y-135637500D03*
X106550000Y-135637500D03*
X106550000Y-133362500D03*
X104650000Y-133362500D03*
%TD*%
D35*
%TO.C,D1*%
X94470000Y-133095000D03*
X94470000Y-134365000D03*
X94470000Y-135635000D03*
X94470000Y-136905000D03*
X99960000Y-136905000D03*
X99960000Y-135630000D03*
X99960000Y-134365000D03*
X99960000Y-133095000D03*
D36*
X97875000Y-135000000D03*
%TD*%
D37*
%TO.C,C17*%
X112500000Y-93641999D03*
X114400000Y-93641999D03*
%TD*%
D20*
%TO.C,J6*%
X119199000Y-69983000D03*
D33*
X119199000Y-72523000D03*
X119199000Y-75063000D03*
X119199000Y-77603000D03*
X119199000Y-80143000D03*
X119199000Y-82683000D03*
%TD*%
D38*
%TO.C,C13*%
X97608000Y-88738000D03*
X97608000Y-89698000D03*
%TD*%
D23*
%TO.C,C7*%
X124057097Y-99570692D03*
X125017097Y-99570692D03*
%TD*%
D39*
%TO.C,TP3*%
X117675000Y-90525000D03*
%TD*%
D23*
%TO.C,C19*%
X111629000Y-92110999D03*
X112589000Y-92110999D03*
%TD*%
D40*
%TO.C,SW2*%
X125300000Y-141330000D03*
X122300000Y-141330000D03*
D41*
X127450000Y-142430000D03*
X120150000Y-142430000D03*
X120150000Y-140220000D03*
X127450000Y-140220000D03*
D42*
X121550000Y-139570000D03*
X124550000Y-139570000D03*
X126050000Y-139570000D03*
%TD*%
D43*
%TO.C,R14*%
X121380000Y-92550000D03*
X122400000Y-92550000D03*
%TD*%
D32*
%TO.C,SW4*%
X141756000Y-111913000D03*
X141756000Y-103913000D03*
%TD*%
D30*
%TO.C,C4*%
X132333000Y-89784000D03*
X131373000Y-89784000D03*
%TD*%
D44*
%TO.C,R2*%
X102000000Y-127510000D03*
X102000000Y-126490000D03*
%TD*%
D24*
%TO.C,R5*%
X141160000Y-99269000D03*
X140140000Y-99269000D03*
%TD*%
D30*
%TO.C,C6*%
X124206000Y-104967000D03*
X123246000Y-104967000D03*
%TD*%
D45*
%TO.C,D5*%
X97600000Y-98675000D03*
X97600000Y-100250000D03*
%TD*%
D46*
%TO.C,U5*%
X117162500Y-107050000D03*
X117162500Y-106550000D03*
X117162500Y-106050000D03*
X117162500Y-105550000D03*
X117162500Y-105050000D03*
X117162500Y-104550000D03*
X117162500Y-104050000D03*
X117162500Y-103550000D03*
X117162500Y-103050000D03*
X117162500Y-102550000D03*
X117162500Y-102050000D03*
X117162500Y-101550000D03*
D47*
X115750000Y-100137500D03*
X115250000Y-100137500D03*
X114750000Y-100137500D03*
X114250000Y-100137500D03*
X113750000Y-100137500D03*
X113250000Y-100137500D03*
X112750000Y-100137500D03*
X112250000Y-100137500D03*
X111750000Y-100137500D03*
X111250000Y-100137500D03*
X110750000Y-100137500D03*
X110250000Y-100137500D03*
D46*
X108837500Y-101550000D03*
X108837500Y-102050000D03*
X108837500Y-102550000D03*
X108837500Y-103050000D03*
X108837500Y-103550000D03*
X108837500Y-104050000D03*
X108837500Y-104550000D03*
X108837500Y-105050000D03*
X108837500Y-105550000D03*
X108837500Y-106050000D03*
X108837500Y-106550000D03*
X108837500Y-107050000D03*
D47*
X110250000Y-108462500D03*
X110750000Y-108462500D03*
X111250000Y-108462500D03*
X111750000Y-108462500D03*
X112250000Y-108462500D03*
X112750000Y-108462500D03*
X113250000Y-108462500D03*
X113750000Y-108462500D03*
X114250000Y-108462500D03*
X114750000Y-108462500D03*
X115250000Y-108462500D03*
X115750000Y-108462500D03*
%TD*%
D43*
%TO.C,R8*%
X87280000Y-91100000D03*
X88300000Y-91100000D03*
%TD*%
D44*
%TO.C,R12*%
X120247000Y-98182000D03*
X120247000Y-97162000D03*
%TD*%
D48*
%TO.C,U4*%
X92466000Y-86244000D03*
X92466000Y-86744000D03*
X92466000Y-87244000D03*
X92466000Y-87744000D03*
X92466000Y-88244000D03*
X92466000Y-88744000D03*
D49*
X93166000Y-89444000D03*
X93666000Y-89444000D03*
X94166000Y-89444000D03*
X94666000Y-89444000D03*
X95166000Y-89444000D03*
X95666000Y-89444000D03*
D48*
X96366000Y-88744000D03*
X96366000Y-88244000D03*
X96366000Y-87744000D03*
X96366000Y-87244000D03*
X96366000Y-86744000D03*
X96366000Y-86244000D03*
D49*
X95666000Y-85544000D03*
X95166000Y-85544000D03*
X94666000Y-85544000D03*
X94166000Y-85544000D03*
X93666000Y-85544000D03*
X93166000Y-85544000D03*
%TD*%
D20*
%TO.C,J2*%
X138065000Y-74583000D03*
D33*
X138065000Y-77123000D03*
X135525000Y-74583000D03*
X135525000Y-77123000D03*
X132985000Y-74583000D03*
X132985000Y-77123000D03*
%TD*%
D30*
%TO.C,C15*%
X95750000Y-84150000D03*
X94790000Y-84150000D03*
%TD*%
D40*
%TO.C,SW1*%
X108600000Y-141300000D03*
D41*
X110750000Y-142400000D03*
X103450000Y-140190000D03*
D40*
X105600000Y-141300000D03*
D41*
X110750000Y-140190000D03*
X103450000Y-142400000D03*
D42*
X104850000Y-139540000D03*
X107850000Y-139540000D03*
X109350000Y-139540000D03*
%TD*%
D50*
%TO.C,JP5*%
X136685000Y-92284000D03*
X135385000Y-92284000D03*
%TD*%
%TO.C,JP1*%
X140000000Y-97364000D03*
X141300000Y-97364000D03*
%TD*%
D29*
%TO.C,C8*%
X120682500Y-104630000D03*
X120682500Y-103670000D03*
%TD*%
D22*
%TO.C,H4*%
X85500000Y-129400000D03*
%TD*%
D20*
%TO.C,U3*%
X88870000Y-117474000D03*
D33*
X88870000Y-114934000D03*
X91410000Y-117474000D03*
X91410000Y-114934000D03*
X93950000Y-117474000D03*
X93950000Y-114934000D03*
X96490000Y-117474000D03*
X96490000Y-114934000D03*
X99030000Y-117474000D03*
X99030000Y-114934000D03*
X101570000Y-117474000D03*
X101570000Y-114934000D03*
X104110000Y-117474000D03*
X104110000Y-114934000D03*
X106650000Y-117474000D03*
X106650000Y-114934000D03*
X109190000Y-117474000D03*
X109190000Y-114934000D03*
X111730000Y-117474000D03*
X111730000Y-114934000D03*
X114270000Y-117474000D03*
X114270000Y-114934000D03*
X116810000Y-117474000D03*
X116810000Y-114934000D03*
X119350000Y-117474000D03*
X119350000Y-114934000D03*
X121890000Y-117474000D03*
X121890000Y-114934000D03*
X124430000Y-117474000D03*
X124430000Y-114934000D03*
X126970000Y-117474000D03*
X126970000Y-114934000D03*
X129510000Y-117474000D03*
X129510000Y-114934000D03*
X132050000Y-117474000D03*
X132050000Y-114934000D03*
X134590000Y-117474000D03*
X134590000Y-114934000D03*
X137130000Y-117474000D03*
X137130000Y-114934000D03*
%TD*%
D38*
%TO.C,C2*%
X108100000Y-133250000D03*
X108100000Y-134210000D03*
%TD*%
D35*
%TO.C,D2*%
X99994500Y-130300036D03*
X99994500Y-129030036D03*
X99994500Y-127760036D03*
X99994500Y-126490036D03*
X94504500Y-126490036D03*
X94504500Y-127765036D03*
X94504500Y-129030036D03*
X94504500Y-130300036D03*
D36*
X96589500Y-128395036D03*
%TD*%
D51*
%TO.C,Y2*%
X123784000Y-110073000D03*
X123784000Y-107573000D03*
%TD*%
D50*
%TO.C,JP4*%
X136685000Y-94824000D03*
X135385000Y-94824000D03*
%TD*%
D20*
%TO.C,J3*%
X132333000Y-102444000D03*
D33*
X132333000Y-99904000D03*
X132333000Y-97364000D03*
X132333000Y-94824000D03*
X132333000Y-92284000D03*
%TD*%
D19*
%TO.C,R9*%
X87879000Y-102219000D03*
X87879000Y-103239000D03*
%TD*%
D43*
%TO.C,R3*%
X133812000Y-89784000D03*
X134832000Y-89784000D03*
%TD*%
D39*
%TO.C,TP2*%
X108125000Y-92625000D03*
%TD*%
D45*
%TO.C,D3*%
X94000000Y-98675000D03*
X94000000Y-100250000D03*
%TD*%
D39*
%TO.C,TP1*%
X117675000Y-92625000D03*
%TD*%
D50*
%TO.C,JP2*%
X140000000Y-94824000D03*
X141300000Y-94824000D03*
%TD*%
D39*
%TO.C,TP4*%
X108125000Y-90525000D03*
%TD*%
D29*
%TO.C,C10*%
X119620000Y-104630000D03*
X119620000Y-103670000D03*
%TD*%
D52*
%TO.C,SW6*%
X122694000Y-91133000D03*
X124904000Y-83833000D03*
X122694000Y-83833000D03*
D40*
X123804000Y-85983000D03*
X123804000Y-88983000D03*
D52*
X124904000Y-91133000D03*
D53*
X122044000Y-89733000D03*
X122044000Y-86733000D03*
X122044000Y-85233000D03*
%TD*%
D39*
%TO.C,TP5*%
X108125000Y-86600000D03*
%TD*%
D32*
%TO.C,SW5*%
X87300000Y-88700000D03*
X87300000Y-80700000D03*
%TD*%
D23*
%TO.C,C14*%
X94918000Y-90703000D03*
X95878000Y-90703000D03*
%TD*%
D19*
%TO.C,R10*%
X89189000Y-103217000D03*
X89189000Y-104237000D03*
%TD*%
D23*
%TO.C,C3*%
X104663000Y-131646000D03*
X105623000Y-131646000D03*
%TD*%
D24*
%TO.C,R4*%
X123094068Y-99582006D03*
X122074068Y-99582006D03*
%TD*%
D23*
%TO.C,C11*%
X119620000Y-105634000D03*
X120580000Y-105634000D03*
%TD*%
D50*
%TO.C,JP3*%
X136685000Y-97364000D03*
X135385000Y-97364000D03*
%TD*%
D19*
%TO.C,R16*%
X97600000Y-101490000D03*
X97600000Y-102510000D03*
%TD*%
D45*
%TO.C,D4*%
X95800000Y-98675000D03*
X95800000Y-100250000D03*
%TD*%
D20*
%TO.C,J1*%
X99030000Y-66350000D03*
D33*
X99030000Y-63810000D03*
X101570000Y-66350000D03*
X101570000Y-63810000D03*
X104110000Y-66350000D03*
X104110000Y-63810000D03*
X106650000Y-66350000D03*
X106650000Y-63810000D03*
X109190000Y-66350000D03*
X109190000Y-63810000D03*
X111730000Y-66350000D03*
X111730000Y-63810000D03*
X114270000Y-66350000D03*
X114270000Y-63810000D03*
X116810000Y-66350000D03*
X116810000Y-63810000D03*
X119350000Y-66350000D03*
X119350000Y-63810000D03*
X121890000Y-66350000D03*
X121890000Y-63810000D03*
X124430000Y-66350000D03*
X124430000Y-63810000D03*
X126970000Y-66350000D03*
X126970000Y-63810000D03*
%TD*%
M02*
