%TF.GenerationSoftware,KiCad,Pcbnew,(6.0.0-0)*%
%TF.CreationDate,2022-06-02T03:35:04+02:00*%
%TF.ProjectId,Zumo_PiZero,5a756d6f-5f50-4695-9a65-726f2e6b6963,rev?*%
%TF.SameCoordinates,Original*%
%TF.FileFunction,Paste,Top*%
%TF.FilePolarity,Positive*%
%FSLAX46Y46*%
G04 Gerber Fmt 4.6, Leading zero omitted, Abs format (unit mm)*
G04 Created by KiCad (PCBNEW (6.0.0-0)) date 2022-06-02 03:35:04*
%MOMM*%
%LPD*%
G01*
G04 APERTURE LIST*
G04 Aperture macros list*
%AMRoundRect*
0 Rectangle with rounded corners*
0 $1 Rounding radius*
0 $2 $3 $4 $5 $6 $7 $8 $9 X,Y pos of 4 corners*
0 Add a 4 corners polygon primitive as box body*
4,1,4,$2,$3,$4,$5,$6,$7,$8,$9,$2,$3,0*
0 Add four circle primitives for the rounded corners*
1,1,$1+$1,$2,$3*
1,1,$1+$1,$4,$5*
1,1,$1+$1,$6,$7*
1,1,$1+$1,$8,$9*
0 Add four rect primitives between the rounded corners*
20,1,$1+$1,$2,$3,$4,$5,0*
20,1,$1+$1,$4,$5,$6,$7,0*
20,1,$1+$1,$6,$7,$8,$9,0*
20,1,$1+$1,$8,$9,$2,$3,0*%
G04 Aperture macros list end*
%ADD10RoundRect,0.150000X-0.650000X-0.150000X0.650000X-0.150000X0.650000X0.150000X-0.650000X0.150000X0*%
%ADD11RoundRect,0.135000X-0.185000X0.135000X-0.185000X-0.135000X0.185000X-0.135000X0.185000X0.135000X0*%
%ADD12RoundRect,0.140000X-0.140000X-0.170000X0.140000X-0.170000X0.140000X0.170000X-0.140000X0.170000X0*%
%ADD13RoundRect,0.135000X0.135000X0.185000X-0.135000X0.185000X-0.135000X-0.185000X0.135000X-0.185000X0*%
%ADD14R,1.348740X0.599440*%
%ADD15R,1.998980X1.198880*%
%ADD16R,0.449999X1.400000*%
%ADD17R,2.560000X2.460000*%
%ADD18RoundRect,0.140000X0.170000X-0.140000X0.170000X0.140000X-0.170000X0.140000X-0.170000X-0.140000X0*%
%ADD19RoundRect,0.140000X0.140000X0.170000X-0.140000X0.170000X-0.140000X-0.170000X0.140000X-0.170000X0*%
%ADD20R,1.200000X1.400000*%
%ADD21R,2.000000X2.000000*%
%ADD22RoundRect,0.150000X0.150000X-0.512500X0.150000X0.512500X-0.150000X0.512500X-0.150000X-0.512500X0*%
%ADD23R,1.420000X0.610000*%
%ADD24R,3.910000X3.750000*%
%ADD25RoundRect,0.250000X-0.250000X-0.475000X0.250000X-0.475000X0.250000X0.475000X-0.250000X0.475000X0*%
%ADD26RoundRect,0.140000X-0.170000X0.140000X-0.170000X-0.140000X0.170000X-0.140000X0.170000X0.140000X0*%
%ADD27R,1.000000X0.800000*%
%ADD28R,0.700000X1.500000*%
%ADD29RoundRect,0.135000X-0.135000X-0.185000X0.135000X-0.185000X0.135000X0.185000X-0.135000X0.185000X0*%
%ADD30RoundRect,0.135000X0.185000X-0.135000X0.185000X0.135000X-0.185000X0.135000X-0.185000X-0.135000X0*%
%ADD31RoundRect,0.218750X-0.256250X0.218750X-0.256250X-0.218750X0.256250X-0.218750X0.256250X0.218750X0*%
%ADD32RoundRect,0.075000X0.662500X0.075000X-0.662500X0.075000X-0.662500X-0.075000X0.662500X-0.075000X0*%
%ADD33RoundRect,0.075000X0.075000X0.662500X-0.075000X0.662500X-0.075000X-0.662500X0.075000X-0.662500X0*%
%ADD34RoundRect,0.075000X-0.350000X-0.075000X0.350000X-0.075000X0.350000X0.075000X-0.350000X0.075000X0*%
%ADD35RoundRect,0.075000X0.075000X-0.350000X0.075000X0.350000X-0.075000X0.350000X-0.075000X-0.350000X0*%
%ADD36R,1.800000X1.000000*%
%ADD37R,0.800000X1.000000*%
%ADD38R,1.500000X0.700000*%
G04 APERTURE END LIST*
D10*
%TO.C,U6*%
X94922000Y-108213000D03*
X94922000Y-109483000D03*
X94922000Y-110753000D03*
X94922000Y-112023000D03*
X102122000Y-112023000D03*
X102122000Y-110753000D03*
X102122000Y-109483000D03*
X102122000Y-108213000D03*
%TD*%
D11*
%TO.C,R1*%
X89000000Y-135500000D03*
X89000000Y-136520000D03*
%TD*%
%TO.C,R11*%
X121349000Y-97173000D03*
X121349000Y-98193000D03*
%TD*%
%TO.C,R7*%
X143957000Y-112049000D03*
X143957000Y-113069000D03*
%TD*%
D12*
%TO.C,C5*%
X123163993Y-111403940D03*
X124123993Y-111403940D03*
%TD*%
%TO.C,C18*%
X114080000Y-92104999D03*
X115040000Y-92104999D03*
%TD*%
D13*
%TO.C,R6*%
X141160000Y-92919000D03*
X140140000Y-92919000D03*
%TD*%
D14*
%TO.C,J4*%
X85013285Y-101185400D03*
X85013285Y-102186160D03*
X85013285Y-103181840D03*
X85013285Y-104182600D03*
D15*
X81340445Y-105483080D03*
X81340445Y-99884920D03*
%TD*%
D16*
%TO.C,U7*%
X115174999Y-84625001D03*
X114524998Y-84625001D03*
X113874999Y-84625001D03*
X113224998Y-84625001D03*
X112574999Y-84625001D03*
X111924998Y-84625001D03*
X111274999Y-84625001D03*
X110624998Y-84625001D03*
X110624998Y-90525002D03*
X111274999Y-90525002D03*
X111924998Y-90525002D03*
X112574999Y-90525002D03*
X113224998Y-90525002D03*
X113874999Y-90525002D03*
X114524998Y-90525002D03*
X115174999Y-90525002D03*
D17*
X112900000Y-87575000D03*
%TD*%
D18*
%TO.C,C16*%
X103822000Y-108206000D03*
X103822000Y-107246000D03*
%TD*%
%TO.C,C1*%
X103250000Y-135750000D03*
X103250000Y-134790000D03*
%TD*%
D11*
%TO.C,R15*%
X95800000Y-101490000D03*
X95800000Y-102510000D03*
%TD*%
D19*
%TO.C,C12*%
X93175000Y-90747000D03*
X92215000Y-90747000D03*
%TD*%
D20*
%TO.C,Y1*%
X124205521Y-103376790D03*
X124205521Y-101176790D03*
X122505521Y-101176790D03*
X122505521Y-103376790D03*
%TD*%
D21*
%TO.C,SW3*%
X129603000Y-86855000D03*
X137603000Y-86855000D03*
%TD*%
D11*
%TO.C,R14*%
X94000000Y-101490000D03*
X94000000Y-102510000D03*
%TD*%
D19*
%TO.C,C9*%
X124513608Y-106254082D03*
X123553608Y-106254082D03*
%TD*%
D22*
%TO.C,U2*%
X104650000Y-135637500D03*
X105600000Y-135637500D03*
X106550000Y-135637500D03*
X106550000Y-133362500D03*
X104650000Y-133362500D03*
%TD*%
D23*
%TO.C,D1*%
X94470000Y-133095000D03*
X94470000Y-134365000D03*
X94470000Y-135635000D03*
X94470000Y-136905000D03*
X99960000Y-136905000D03*
X99960000Y-135630000D03*
X99960000Y-134365000D03*
X99960000Y-133095000D03*
D24*
X97875000Y-135000000D03*
%TD*%
D25*
%TO.C,C17*%
X112500000Y-93641999D03*
X114400000Y-93641999D03*
%TD*%
D26*
%TO.C,C13*%
X97608000Y-88738000D03*
X97608000Y-89698000D03*
%TD*%
D12*
%TO.C,C7*%
X124057097Y-99570692D03*
X125017097Y-99570692D03*
%TD*%
%TO.C,C19*%
X111629000Y-92110999D03*
X112589000Y-92110999D03*
%TD*%
D27*
%TO.C,SW2*%
X127450000Y-142430000D03*
X120150000Y-142430000D03*
X120150000Y-140220000D03*
X127450000Y-140220000D03*
D28*
X121550000Y-139570000D03*
X124550000Y-139570000D03*
X126050000Y-139570000D03*
%TD*%
D29*
%TO.C,R13*%
X121380000Y-92550000D03*
X122400000Y-92550000D03*
%TD*%
D21*
%TO.C,SW4*%
X141756000Y-111913000D03*
X141756000Y-103913000D03*
%TD*%
D19*
%TO.C,C4*%
X132333000Y-89784000D03*
X131373000Y-89784000D03*
%TD*%
D30*
%TO.C,R2*%
X102000000Y-127510000D03*
X102000000Y-126490000D03*
%TD*%
D13*
%TO.C,R5*%
X141160000Y-99269000D03*
X140140000Y-99269000D03*
%TD*%
D19*
%TO.C,C6*%
X124206000Y-104967000D03*
X123246000Y-104967000D03*
%TD*%
D31*
%TO.C,D5*%
X97600000Y-98675000D03*
X97600000Y-100250000D03*
%TD*%
D32*
%TO.C,U5*%
X117162500Y-107050000D03*
X117162500Y-106550000D03*
X117162500Y-106050000D03*
X117162500Y-105550000D03*
X117162500Y-105050000D03*
X117162500Y-104550000D03*
X117162500Y-104050000D03*
X117162500Y-103550000D03*
X117162500Y-103050000D03*
X117162500Y-102550000D03*
X117162500Y-102050000D03*
X117162500Y-101550000D03*
D33*
X115750000Y-100137500D03*
X115250000Y-100137500D03*
X114750000Y-100137500D03*
X114250000Y-100137500D03*
X113750000Y-100137500D03*
X113250000Y-100137500D03*
X112750000Y-100137500D03*
X112250000Y-100137500D03*
X111750000Y-100137500D03*
X111250000Y-100137500D03*
X110750000Y-100137500D03*
X110250000Y-100137500D03*
D32*
X108837500Y-101550000D03*
X108837500Y-102050000D03*
X108837500Y-102550000D03*
X108837500Y-103050000D03*
X108837500Y-103550000D03*
X108837500Y-104050000D03*
X108837500Y-104550000D03*
X108837500Y-105050000D03*
X108837500Y-105550000D03*
X108837500Y-106050000D03*
X108837500Y-106550000D03*
X108837500Y-107050000D03*
D33*
X110250000Y-108462500D03*
X110750000Y-108462500D03*
X111250000Y-108462500D03*
X111750000Y-108462500D03*
X112250000Y-108462500D03*
X112750000Y-108462500D03*
X113250000Y-108462500D03*
X113750000Y-108462500D03*
X114250000Y-108462500D03*
X114750000Y-108462500D03*
X115250000Y-108462500D03*
X115750000Y-108462500D03*
%TD*%
D29*
%TO.C,R8*%
X87280000Y-91100000D03*
X88300000Y-91100000D03*
%TD*%
D30*
%TO.C,R12*%
X120247000Y-98182000D03*
X120247000Y-97162000D03*
%TD*%
D34*
%TO.C,U4*%
X92466000Y-86244000D03*
X92466000Y-86744000D03*
X92466000Y-87244000D03*
X92466000Y-87744000D03*
X92466000Y-88244000D03*
X92466000Y-88744000D03*
D35*
X93166000Y-89444000D03*
X93666000Y-89444000D03*
X94166000Y-89444000D03*
X94666000Y-89444000D03*
X95166000Y-89444000D03*
X95666000Y-89444000D03*
D34*
X96366000Y-88744000D03*
X96366000Y-88244000D03*
X96366000Y-87744000D03*
X96366000Y-87244000D03*
X96366000Y-86744000D03*
X96366000Y-86244000D03*
D35*
X95666000Y-85544000D03*
X95166000Y-85544000D03*
X94666000Y-85544000D03*
X94166000Y-85544000D03*
X93666000Y-85544000D03*
X93166000Y-85544000D03*
%TD*%
D19*
%TO.C,C15*%
X95750000Y-84150000D03*
X94790000Y-84150000D03*
%TD*%
D27*
%TO.C,SW1*%
X110750000Y-142400000D03*
X103450000Y-140190000D03*
X110750000Y-140190000D03*
X103450000Y-142400000D03*
D28*
X104850000Y-139540000D03*
X107850000Y-139540000D03*
X109350000Y-139540000D03*
%TD*%
D18*
%TO.C,C8*%
X120682500Y-104630000D03*
X120682500Y-103670000D03*
%TD*%
D26*
%TO.C,C2*%
X108100000Y-133250000D03*
X108100000Y-134210000D03*
%TD*%
D23*
%TO.C,D2*%
X99994500Y-130300036D03*
X99994500Y-129030036D03*
X99994500Y-127760036D03*
X99994500Y-126490036D03*
X94504500Y-126490036D03*
X94504500Y-127765036D03*
X94504500Y-129030036D03*
X94504500Y-130300036D03*
D24*
X96589500Y-128395036D03*
%TD*%
D36*
%TO.C,Y2*%
X123784000Y-110073000D03*
X123784000Y-107573000D03*
%TD*%
D11*
%TO.C,R9*%
X87879000Y-102219000D03*
X87879000Y-103239000D03*
%TD*%
D29*
%TO.C,R3*%
X133812000Y-89784000D03*
X134832000Y-89784000D03*
%TD*%
D31*
%TO.C,D3*%
X94000000Y-98675000D03*
X94000000Y-100250000D03*
%TD*%
D18*
%TO.C,C10*%
X119620000Y-104630000D03*
X119620000Y-103670000D03*
%TD*%
D37*
%TO.C,SW6*%
X122694000Y-91133000D03*
X124904000Y-83833000D03*
X122694000Y-83833000D03*
X124904000Y-91133000D03*
D38*
X122044000Y-89733000D03*
X122044000Y-86733000D03*
X122044000Y-85233000D03*
%TD*%
D21*
%TO.C,SW5*%
X87300000Y-88700000D03*
X87300000Y-80700000D03*
%TD*%
D12*
%TO.C,C14*%
X94918000Y-90703000D03*
X95878000Y-90703000D03*
%TD*%
D11*
%TO.C,R10*%
X89189000Y-103217000D03*
X89189000Y-104237000D03*
%TD*%
D12*
%TO.C,C3*%
X104663000Y-131646000D03*
X105623000Y-131646000D03*
%TD*%
D13*
%TO.C,R4*%
X123094068Y-99582006D03*
X122074068Y-99582006D03*
%TD*%
D12*
%TO.C,C11*%
X119620000Y-105634000D03*
X120580000Y-105634000D03*
%TD*%
D11*
%TO.C,R16*%
X97600000Y-101490000D03*
X97600000Y-102510000D03*
%TD*%
D31*
%TO.C,D4*%
X95800000Y-98675000D03*
X95800000Y-100250000D03*
%TD*%
M02*
