%TF.GenerationSoftware,KiCad,Pcbnew,(6.0.0-0)*%
%TF.CreationDate,2022-06-02T03:35:05+02:00*%
%TF.ProjectId,Zumo_PiZero,5a756d6f-5f50-4695-9a65-726f2e6b6963,rev?*%
%TF.SameCoordinates,Original*%
%TF.FileFunction,Soldermask,Bot*%
%TF.FilePolarity,Negative*%
%FSLAX46Y46*%
G04 Gerber Fmt 4.6, Leading zero omitted, Abs format (unit mm)*
G04 Created by KiCad (PCBNEW (6.0.0-0)) date 2022-06-02 03:35:05*
%MOMM*%
%LPD*%
G01*
G04 APERTURE LIST*
G04 Aperture macros list*
%AMRoundRect*
0 Rectangle with rounded corners*
0 $1 Rounding radius*
0 $2 $3 $4 $5 $6 $7 $8 $9 X,Y pos of 4 corners*
0 Add a 4 corners polygon primitive as box body*
4,1,4,$2,$3,$4,$5,$6,$7,$8,$9,$2,$3,0*
0 Add four circle primitives for the rounded corners*
1,1,$1+$1,$2,$3*
1,1,$1+$1,$4,$5*
1,1,$1+$1,$6,$7*
1,1,$1+$1,$8,$9*
0 Add four rect primitives between the rounded corners*
20,1,$1+$1,$2,$3,$4,$5,0*
20,1,$1+$1,$4,$5,$6,$7,0*
20,1,$1+$1,$6,$7,$8,$9,0*
20,1,$1+$1,$8,$9,$2,$3,0*%
G04 Aperture macros list end*
%ADD10R,1.700000X1.700000*%
%ADD11RoundRect,0.250000X-0.625000X0.350000X-0.625000X-0.350000X0.625000X-0.350000X0.625000X0.350000X0*%
%ADD12C,3.800000*%
%ADD13O,1.700000X1.700000*%
%ADD14C,0.900000*%
G04 APERTURE END LIST*
D10*
%TO.C,U1*%
X134750000Y-136495000D03*
X134750000Y-133955000D03*
D11*
X129950000Y-129495000D03*
X129950000Y-127495000D03*
D10*
X127580000Y-120795000D03*
X125040000Y-120795000D03*
X122500000Y-120795000D03*
X119960000Y-120795000D03*
X91300000Y-127293000D03*
X91300000Y-129833000D03*
X91300000Y-132373000D03*
X91300000Y-134913000D03*
X96960000Y-141195000D03*
X99500000Y-141195000D03*
X115300000Y-141195000D03*
X117840000Y-141195000D03*
%TD*%
D12*
%TO.C,H1*%
X88000000Y-66400000D03*
%TD*%
%TO.C,H3*%
X140500000Y-129400000D03*
%TD*%
%TO.C,H2*%
X138000000Y-66400000D03*
%TD*%
D10*
%TO.C,J5*%
X106801000Y-69983000D03*
D13*
X106801000Y-72523000D03*
X106801000Y-75063000D03*
X106801000Y-77603000D03*
X106801000Y-80143000D03*
X106801000Y-82683000D03*
%TD*%
D10*
%TO.C,J6*%
X119199000Y-69983000D03*
D13*
X119199000Y-72523000D03*
X119199000Y-75063000D03*
X119199000Y-77603000D03*
X119199000Y-80143000D03*
X119199000Y-82683000D03*
%TD*%
D14*
%TO.C,SW2*%
X125300000Y-141330000D03*
X122300000Y-141330000D03*
%TD*%
D10*
%TO.C,J2*%
X138065000Y-74583000D03*
D13*
X138065000Y-77123000D03*
X135525000Y-74583000D03*
X135525000Y-77123000D03*
X132985000Y-74583000D03*
X132985000Y-77123000D03*
%TD*%
D14*
%TO.C,SW1*%
X108600000Y-141300000D03*
X105600000Y-141300000D03*
%TD*%
D12*
%TO.C,H4*%
X85500000Y-129400000D03*
%TD*%
D10*
%TO.C,U3*%
X88870000Y-117474000D03*
D13*
X88870000Y-114934000D03*
X91410000Y-117474000D03*
X91410000Y-114934000D03*
X93950000Y-117474000D03*
X93950000Y-114934000D03*
X96490000Y-117474000D03*
X96490000Y-114934000D03*
X99030000Y-117474000D03*
X99030000Y-114934000D03*
X101570000Y-117474000D03*
X101570000Y-114934000D03*
X104110000Y-117474000D03*
X104110000Y-114934000D03*
X106650000Y-117474000D03*
X106650000Y-114934000D03*
X109190000Y-117474000D03*
X109190000Y-114934000D03*
X111730000Y-117474000D03*
X111730000Y-114934000D03*
X114270000Y-117474000D03*
X114270000Y-114934000D03*
X116810000Y-117474000D03*
X116810000Y-114934000D03*
X119350000Y-117474000D03*
X119350000Y-114934000D03*
X121890000Y-117474000D03*
X121890000Y-114934000D03*
X124430000Y-117474000D03*
X124430000Y-114934000D03*
X126970000Y-117474000D03*
X126970000Y-114934000D03*
X129510000Y-117474000D03*
X129510000Y-114934000D03*
X132050000Y-117474000D03*
X132050000Y-114934000D03*
X134590000Y-117474000D03*
X134590000Y-114934000D03*
X137130000Y-117474000D03*
X137130000Y-114934000D03*
%TD*%
D10*
%TO.C,J3*%
X132333000Y-102444000D03*
D13*
X132333000Y-99904000D03*
X132333000Y-97364000D03*
X132333000Y-94824000D03*
X132333000Y-92284000D03*
%TD*%
D14*
%TO.C,SW6*%
X123804000Y-85983000D03*
X123804000Y-88983000D03*
%TD*%
D10*
%TO.C,J1*%
X99030000Y-66350000D03*
D13*
X99030000Y-63810000D03*
X101570000Y-66350000D03*
X101570000Y-63810000D03*
X104110000Y-66350000D03*
X104110000Y-63810000D03*
X106650000Y-66350000D03*
X106650000Y-63810000D03*
X109190000Y-66350000D03*
X109190000Y-63810000D03*
X111730000Y-66350000D03*
X111730000Y-63810000D03*
X114270000Y-66350000D03*
X114270000Y-63810000D03*
X116810000Y-66350000D03*
X116810000Y-63810000D03*
X119350000Y-66350000D03*
X119350000Y-63810000D03*
X121890000Y-66350000D03*
X121890000Y-63810000D03*
X124430000Y-66350000D03*
X124430000Y-63810000D03*
X126970000Y-66350000D03*
X126970000Y-63810000D03*
%TD*%
M02*
