M48
; DRILL file {KiCad (6.0.0-0)} date 2022 June 02, Thursday 03:35:10
; FORMAT={-:-/ absolute / metric / decimal}
; #@! TF.CreationDate,2022-06-02T03:35:10+02:00
; #@! TF.GenerationSoftware,Kicad,Pcbnew,(6.0.0-0)
; #@! TF.FileFunction,Plated,1,4,PTH
FMAT,2
METRIC
; #@! TA.AperFunction,Plated,PTH,ViaDrill
T1C0.400
; #@! TA.AperFunction,Plated,PTH,ComponentDrill
T2C0.750
; #@! TA.AperFunction,Plated,PTH,ComponentDrill
T3C1.000
%
G90
G05
T1
X82.0Y-136.75
X82.0Y-138.5
X82.2Y-62.8
X83.25Y-136.0
X83.25Y-137.75
X83.25Y-139.25
X84.75Y-136.75
X84.75Y-138.5
X85.0Y-98.8
X85.2Y-72.8
X85.4Y-108.2
X85.6Y-97.4
X85.6Y-105.2
X85.6Y-112.2
X86.25Y-136.0
X86.25Y-137.5
X86.25Y-139.25
X86.65Y-100.2
X87.25Y-86.75
X87.275Y-97.27
X87.35Y-77.8
X87.354Y-133.183
X87.9Y-101.1
X88.0Y-105.2
X88.225Y-126.667
X88.25Y-72.55
X88.4Y-92.65
X88.9Y-98.4
X89.0Y-108.2
X89.0Y-112.2
X89.2Y-102.05
X90.05Y-106.2
X91.0Y-74.6
X91.2Y-80.6
X91.25Y-61.1
X91.4Y-100.6
X91.4Y-110.4
X91.6Y-120.4
X92.2Y-63.2
X92.2Y-82.7
X92.405Y-136.905
X92.65Y-104.25
X93.2Y-77.2
X93.2Y-91.8
X93.7Y-83.6
X94.45Y-62.15
X94.88Y-103.362
X96.25Y-131.75
X96.3Y-69.6
X96.4Y-92.2
X96.685Y-103.292
X96.926Y-109.834
X97.034Y-111.399
X97.186Y-108.203
X97.4Y-120.2
X97.8Y-87.55
X98.0Y-131.75
X98.496Y-110.652
X98.6Y-90.6
X98.69Y-105.265
X98.76Y-102.502
X99.194Y-108.663
X99.238Y-99.861
X100.452Y-100.582
X100.736Y-86.768
X101.013Y-101.788
X101.75Y-135.75
X102.087Y-133.097
X102.119Y-130.09
X102.15Y-101.1
X102.161Y-103.562
X102.86Y-106.045
X102.888Y-88.737
X103.2Y-120.4
X103.2Y-124.4
X103.75Y-129.25
X103.75Y-131.75
X103.985Y-84.054
X104.5Y-89.25
X104.75Y-128.0
X104.75Y-130.5
X104.796Y-110.065
X104.932Y-106.274
X105.419Y-86.754
X105.75Y-129.25
X105.95Y-88.05
X106.309Y-98.304
X106.714Y-109.411
X106.75Y-128.0
X106.75Y-130.5
X107.088Y-107.362
X107.5Y-129.25
X107.75Y-138.0
X107.8Y-99.8
X108.0Y-135.5
X108.5Y-128.0
X108.5Y-130.5
X108.68Y-109.241
X109.015Y-132.194
X109.25Y-129.25
X109.905Y-111.077
X110.0Y-120.2
X110.0Y-124.4
X110.25Y-128.0
X110.25Y-130.5
X110.27Y-93.48
X110.27Y-94.64
X110.27Y-95.8
X111.43Y-93.48
X111.43Y-94.64
X111.43Y-95.8
X111.8Y-133.8
X111.8Y-137.8
X111.935Y-105.951
X111.978Y-104.418
X112.14Y-86.865
X112.14Y-88.285
X112.42Y-110.043
X112.59Y-95.8
X112.9Y-87.575
X113.294Y-103.973
X113.398Y-105.388
X113.66Y-86.865
X113.66Y-88.285
X114.302Y-130.118
X114.644Y-104.105
X115.128Y-112.602
X115.201Y-101.573
X115.294Y-106.417
X115.411Y-102.756
X115.737Y-98.218
X115.75Y-92.75
X116.0Y-86.75
X116.6Y-120.2
X116.6Y-124.4
X116.81Y-97.205
X116.815Y-110.075
X116.919Y-85.631
X117.8Y-133.6
X117.8Y-137.8
X118.294Y-85.64
X119.813Y-99.18
X120.194Y-111.078
X120.6Y-106.7
X121.225Y-83.837
X121.848Y-105.056
X121.957Y-130.183
X121.957Y-135.665
X122.14Y-106.34
X123.55Y-92.636
X126.0Y-101.6
X126.0Y-104.2
X126.0Y-106.4
X126.0Y-108.6
X127.113Y-97.584
X127.127Y-99.743
X127.993Y-111.56
X128.844Y-103.512
X129.6Y-91.4
X130.353Y-111.887
X130.4Y-141.2
X130.694Y-120.089
X131.4Y-63.6
X131.4Y-69.8
X132.177Y-86.871
X133.964Y-88.222
X135.121Y-86.773
X136.679Y-99.313
X137.8Y-141.0
X138.196Y-94.83
X138.527Y-92.29
X138.8Y-102.8
X140.122Y-100.466
X140.139Y-91.792
X143.983Y-114.183
X144.0Y-122.2
X144.0Y-130.2
X144.2Y-63.6
X144.2Y-69.8
X144.2Y-141.0
X144.6Y-79.0
X144.6Y-90.2
X144.6Y-102.6
T2
X129.95Y-127.495
X129.95Y-129.495
T3
X88.87Y-114.934
X88.87Y-117.474
X91.3Y-127.293
X91.3Y-129.833
X91.3Y-132.373
X91.3Y-134.913
X91.41Y-114.934
X91.41Y-117.474
X93.95Y-114.934
X93.95Y-117.474
X96.49Y-114.934
X96.49Y-117.474
X96.96Y-141.195
X99.03Y-63.81
X99.03Y-66.35
X99.03Y-114.934
X99.03Y-117.474
X99.5Y-141.195
X101.57Y-63.81
X101.57Y-66.35
X101.57Y-114.934
X101.57Y-117.474
X104.11Y-63.81
X104.11Y-66.35
X104.11Y-114.934
X104.11Y-117.474
X106.65Y-63.81
X106.65Y-66.35
X106.65Y-114.934
X106.65Y-117.474
X106.801Y-69.983
X106.801Y-72.523
X106.801Y-75.063
X106.801Y-77.603
X106.801Y-80.143
X106.801Y-82.683
X109.19Y-63.81
X109.19Y-66.35
X109.19Y-114.934
X109.19Y-117.474
X111.73Y-63.81
X111.73Y-66.35
X111.73Y-114.934
X111.73Y-117.474
X114.27Y-63.81
X114.27Y-66.35
X114.27Y-114.934
X114.27Y-117.474
X115.3Y-141.195
X116.81Y-63.81
X116.81Y-66.35
X116.81Y-114.934
X116.81Y-117.474
X117.84Y-141.195
X119.199Y-69.983
X119.199Y-72.523
X119.199Y-75.063
X119.199Y-77.603
X119.199Y-80.143
X119.199Y-82.683
X119.35Y-63.81
X119.35Y-66.35
X119.35Y-114.934
X119.35Y-117.474
X119.96Y-120.795
X121.89Y-63.81
X121.89Y-66.35
X121.89Y-114.934
X121.89Y-117.474
X122.5Y-120.795
X124.43Y-63.81
X124.43Y-66.35
X124.43Y-114.934
X124.43Y-117.474
X125.04Y-120.795
X126.97Y-63.81
X126.97Y-66.35
X126.97Y-114.934
X126.97Y-117.474
X127.58Y-120.795
X129.51Y-114.934
X129.51Y-117.474
X132.05Y-114.934
X132.05Y-117.474
X132.333Y-92.284
X132.333Y-94.824
X132.333Y-97.364
X132.333Y-99.904
X132.333Y-102.444
X132.985Y-74.583
X132.985Y-77.123
X134.59Y-114.934
X134.59Y-117.474
X134.75Y-133.955
X134.75Y-136.495
X135.525Y-74.583
X135.525Y-77.123
X137.13Y-114.934
X137.13Y-117.474
X138.065Y-74.583
X138.065Y-77.123
T0
M30
