%TF.GenerationSoftware,KiCad,Pcbnew,(6.0.0-0)*%
%TF.CreationDate,2022-06-02T03:35:04+02:00*%
%TF.ProjectId,Zumo_PiZero,5a756d6f-5f50-4695-9a65-726f2e6b6963,rev?*%
%TF.SameCoordinates,Original*%
%TF.FileFunction,Legend,Bot*%
%TF.FilePolarity,Positive*%
%FSLAX46Y46*%
G04 Gerber Fmt 4.6, Leading zero omitted, Abs format (unit mm)*
G04 Created by KiCad (PCBNEW (6.0.0-0)) date 2022-06-02 03:35:04*
%MOMM*%
%LPD*%
G01*
G04 APERTURE LIST*
G04 Aperture macros list*
%AMRoundRect*
0 Rectangle with rounded corners*
0 $1 Rounding radius*
0 $2 $3 $4 $5 $6 $7 $8 $9 X,Y pos of 4 corners*
0 Add a 4 corners polygon primitive as box body*
4,1,4,$2,$3,$4,$5,$6,$7,$8,$9,$2,$3,0*
0 Add four circle primitives for the rounded corners*
1,1,$1+$1,$2,$3*
1,1,$1+$1,$4,$5*
1,1,$1+$1,$6,$7*
1,1,$1+$1,$8,$9*
0 Add four rect primitives between the rounded corners*
20,1,$1+$1,$2,$3,$4,$5,0*
20,1,$1+$1,$4,$5,$6,$7,0*
20,1,$1+$1,$6,$7,$8,$9,0*
20,1,$1+$1,$8,$9,$2,$3,0*%
G04 Aperture macros list end*
%ADD10C,0.120000*%
%ADD11R,1.700000X1.700000*%
%ADD12RoundRect,0.250000X-0.625000X0.350000X-0.625000X-0.350000X0.625000X-0.350000X0.625000X0.350000X0*%
%ADD13C,3.800000*%
%ADD14O,1.700000X1.700000*%
%ADD15C,0.900000*%
G04 APERTURE END LIST*
%TO.C,kibuzzard-6296FD9C*%
G36*
X130127000Y-64695200D02*
G01*
X129909512Y-64799975D01*
X129909512Y-64588837D01*
X130127000Y-64695200D01*
G37*
G36*
X130922867Y-62451004D02*
G01*
X130922867Y-67548996D01*
X129077133Y-67548996D01*
X129077133Y-67144713D01*
X129423738Y-67144713D01*
X129442787Y-67214563D01*
X129493984Y-67266950D01*
X129568200Y-67284413D01*
X129634875Y-67265363D01*
X130315913Y-66773238D01*
X130315913Y-67138363D01*
X130318294Y-67194719D01*
X130331788Y-67238375D01*
X130372666Y-67272903D01*
X130450850Y-67284413D01*
X130532606Y-67273697D01*
X130574675Y-67241550D01*
X130589756Y-67199481D01*
X130592138Y-67143125D01*
X130592138Y-66504950D01*
X130573088Y-66435100D01*
X130522287Y-66383506D01*
X130447675Y-66365250D01*
X130379413Y-66384300D01*
X129698375Y-66876425D01*
X129698375Y-66481138D01*
X129683294Y-66391444D01*
X129639638Y-66353344D01*
X129566613Y-66343025D01*
X129495175Y-66350963D01*
X129453900Y-66370013D01*
X129433262Y-66403350D01*
X129423738Y-66484313D01*
X129423738Y-67144713D01*
X129077133Y-67144713D01*
X129077133Y-65505619D01*
X129417388Y-65505619D01*
X129432469Y-65556419D01*
X129463425Y-65585788D01*
X129508757Y-65606601D01*
X129604536Y-65647876D01*
X129750763Y-65709613D01*
X129747587Y-65758825D01*
X129747587Y-65958850D01*
X129568200Y-65958850D01*
X129513431Y-65961231D01*
X129471362Y-65976313D01*
X129439216Y-66018381D01*
X129428500Y-66100138D01*
X129443184Y-66188244D01*
X129487237Y-66230313D01*
X129569787Y-66239838D01*
X130450850Y-66239838D01*
X130505619Y-66237456D01*
X130547688Y-66222375D01*
X130579834Y-66180306D01*
X130590550Y-66098550D01*
X130590550Y-65755650D01*
X130579261Y-65663399D01*
X130545394Y-65572911D01*
X130488950Y-65484188D01*
X130431006Y-65426244D01*
X130355600Y-65379413D01*
X130266700Y-65348456D01*
X130168275Y-65338138D01*
X130055739Y-65351367D01*
X129957314Y-65391054D01*
X129873000Y-65457200D01*
X129807913Y-65429683D01*
X129724833Y-65393700D01*
X129623762Y-65349250D01*
X129541213Y-65325438D01*
X129485650Y-65350044D01*
X129439613Y-65423863D01*
X129417388Y-65505619D01*
X129077133Y-65505619D01*
X129077133Y-64288006D01*
X129411038Y-64288006D01*
X129425325Y-64338806D01*
X129455487Y-64367381D01*
X129503113Y-64391987D01*
X129674562Y-64474538D01*
X129674562Y-64914275D01*
X129503113Y-64996825D01*
X129457075Y-65021431D01*
X129427706Y-65050006D01*
X129412625Y-65100806D01*
X129439613Y-65185738D01*
X129487237Y-65254794D01*
X129541213Y-65277813D01*
X129622175Y-65250825D01*
X130509588Y-64822200D01*
X130568325Y-64769019D01*
X130590550Y-64693613D01*
X130569912Y-64619000D01*
X130508000Y-64566612D01*
X129622175Y-64137988D01*
X129541213Y-64111000D01*
X129486841Y-64134019D01*
X129438025Y-64203075D01*
X129411038Y-64288006D01*
X129077133Y-64288006D01*
X129077133Y-63528388D01*
X129431278Y-63528388D01*
X129449137Y-63585537D01*
X129506287Y-63631575D01*
X129582488Y-63663325D01*
X129623762Y-63653800D01*
X129680913Y-63585537D01*
X129973013Y-63091825D01*
X130265113Y-63583950D01*
X130293688Y-63626813D01*
X130358775Y-63661737D01*
X130434975Y-63634750D01*
X130496888Y-63587125D01*
X130517525Y-63542675D01*
X130487363Y-63456950D01*
X130084138Y-62779087D01*
X130040481Y-62731462D01*
X129973013Y-62715588D01*
X129905941Y-62731066D01*
X129863475Y-62777500D01*
X129460250Y-63455362D01*
X129431278Y-63528388D01*
X129077133Y-63528388D01*
X129077133Y-62451004D01*
X130922867Y-62451004D01*
G37*
G36*
X130273844Y-65663575D02*
G01*
X130309562Y-65758825D01*
X130309562Y-65958850D01*
X130028575Y-65958850D01*
X130028575Y-65755650D01*
X130063500Y-65663575D01*
X130168275Y-65617538D01*
X130273844Y-65663575D01*
G37*
D10*
%TO.C,J1*%
X128300000Y-62480000D02*
X128300000Y-67680000D01*
X100300000Y-65080000D02*
X100300000Y-67680000D01*
X97700000Y-66350000D02*
X97700000Y-67680000D01*
X97700000Y-65080000D02*
X100300000Y-65080000D01*
X97700000Y-62480000D02*
X128300000Y-62480000D01*
X97700000Y-67680000D02*
X99030000Y-67680000D01*
X97700000Y-62480000D02*
X97700000Y-65080000D01*
X100300000Y-67680000D02*
X128300000Y-67680000D01*
%TD*%
%LPC*%
D11*
%TO.C,U1*%
X134750000Y-136495000D03*
X134750000Y-133955000D03*
D12*
X129950000Y-129495000D03*
X129950000Y-127495000D03*
D11*
X127580000Y-120795000D03*
X125040000Y-120795000D03*
X122500000Y-120795000D03*
X119960000Y-120795000D03*
X91300000Y-127293000D03*
X91300000Y-129833000D03*
X91300000Y-132373000D03*
X91300000Y-134913000D03*
X96960000Y-141195000D03*
X99500000Y-141195000D03*
X115300000Y-141195000D03*
X117840000Y-141195000D03*
%TD*%
D13*
%TO.C,H1*%
X88000000Y-66400000D03*
%TD*%
%TO.C,H3*%
X140500000Y-129400000D03*
%TD*%
%TO.C,H2*%
X138000000Y-66400000D03*
%TD*%
D11*
%TO.C,J5*%
X106801000Y-69983000D03*
D14*
X106801000Y-72523000D03*
X106801000Y-75063000D03*
X106801000Y-77603000D03*
X106801000Y-80143000D03*
X106801000Y-82683000D03*
%TD*%
D11*
%TO.C,J6*%
X119199000Y-69983000D03*
D14*
X119199000Y-72523000D03*
X119199000Y-75063000D03*
X119199000Y-77603000D03*
X119199000Y-80143000D03*
X119199000Y-82683000D03*
%TD*%
D15*
%TO.C,SW2*%
X125300000Y-141330000D03*
X122300000Y-141330000D03*
%TD*%
D11*
%TO.C,J2*%
X138065000Y-74583000D03*
D14*
X138065000Y-77123000D03*
X135525000Y-74583000D03*
X135525000Y-77123000D03*
X132985000Y-74583000D03*
X132985000Y-77123000D03*
%TD*%
D15*
%TO.C,SW1*%
X108600000Y-141300000D03*
X105600000Y-141300000D03*
%TD*%
D13*
%TO.C,H4*%
X85500000Y-129400000D03*
%TD*%
D11*
%TO.C,U3*%
X88870000Y-117474000D03*
D14*
X88870000Y-114934000D03*
X91410000Y-117474000D03*
X91410000Y-114934000D03*
X93950000Y-117474000D03*
X93950000Y-114934000D03*
X96490000Y-117474000D03*
X96490000Y-114934000D03*
X99030000Y-117474000D03*
X99030000Y-114934000D03*
X101570000Y-117474000D03*
X101570000Y-114934000D03*
X104110000Y-117474000D03*
X104110000Y-114934000D03*
X106650000Y-117474000D03*
X106650000Y-114934000D03*
X109190000Y-117474000D03*
X109190000Y-114934000D03*
X111730000Y-117474000D03*
X111730000Y-114934000D03*
X114270000Y-117474000D03*
X114270000Y-114934000D03*
X116810000Y-117474000D03*
X116810000Y-114934000D03*
X119350000Y-117474000D03*
X119350000Y-114934000D03*
X121890000Y-117474000D03*
X121890000Y-114934000D03*
X124430000Y-117474000D03*
X124430000Y-114934000D03*
X126970000Y-117474000D03*
X126970000Y-114934000D03*
X129510000Y-117474000D03*
X129510000Y-114934000D03*
X132050000Y-117474000D03*
X132050000Y-114934000D03*
X134590000Y-117474000D03*
X134590000Y-114934000D03*
X137130000Y-117474000D03*
X137130000Y-114934000D03*
%TD*%
D11*
%TO.C,J3*%
X132333000Y-102444000D03*
D14*
X132333000Y-99904000D03*
X132333000Y-97364000D03*
X132333000Y-94824000D03*
X132333000Y-92284000D03*
%TD*%
D15*
%TO.C,SW6*%
X123804000Y-85983000D03*
X123804000Y-88983000D03*
%TD*%
D11*
%TO.C,J1*%
X99030000Y-66350000D03*
D14*
X99030000Y-63810000D03*
X101570000Y-66350000D03*
X101570000Y-63810000D03*
X104110000Y-66350000D03*
X104110000Y-63810000D03*
X106650000Y-66350000D03*
X106650000Y-63810000D03*
X109190000Y-66350000D03*
X109190000Y-63810000D03*
X111730000Y-66350000D03*
X111730000Y-63810000D03*
X114270000Y-66350000D03*
X114270000Y-63810000D03*
X116810000Y-66350000D03*
X116810000Y-63810000D03*
X119350000Y-66350000D03*
X119350000Y-63810000D03*
X121890000Y-66350000D03*
X121890000Y-63810000D03*
X124430000Y-66350000D03*
X124430000Y-63810000D03*
X126970000Y-66350000D03*
X126970000Y-63810000D03*
%TD*%
M02*
