%FSLAX45Y45*%
G04 Gerber Fmt 4.5, Leading zero omitted, Abs format (unit mm)*
G04 Created by KiCad (PCBNEW (6.0.0-0)) date 2022-06-01 09:22:56*
%MOMM*%
%LPD*%
G01*
G04 APERTURE LIST*
%TA.AperFunction,Profile*%
%ADD10C,0.050000*%
%TD*%
%TA.AperFunction,Profile*%
%ADD11C,0.100000*%
%TD*%
%ADD12C,0.200000*%
%ADD13C,0.040000*%
%ADD14C,0.075000*%
%ADD15C,0.100000*%
G04 APERTURE END LIST*
D10*
X10370100Y-8190000D02*
G75*
G03*
X10470100Y-8090000I0J100000D01*
G01*
D11*
X13120000Y-13049500D02*
X12870000Y-13049500D01*
X12870000Y-13049500D02*
X12870000Y-12649500D01*
X12870000Y-12649500D02*
X13120000Y-12649500D01*
X13120000Y-12649500D02*
X13120000Y-13049500D01*
D10*
X12229900Y-8190000D02*
X12759900Y-8190000D01*
X12229900Y-6930000D02*
G75*
G03*
X12129900Y-7030000I0J-100000D01*
G01*
X10370100Y-6930000D02*
X9840100Y-6930000D01*
X10470100Y-8090000D02*
X10470100Y-7030000D01*
X12859900Y-8090000D02*
X12859900Y-7030000D01*
X9740100Y-8090000D02*
G75*
G03*
X9840100Y-8190000I100000J0D01*
G01*
X8000000Y-14310000D02*
X8000000Y-6000000D01*
X10470100Y-7030000D02*
G75*
G03*
X10370100Y-6930000I-100000J0D01*
G01*
D11*
X13840000Y-10870000D02*
G75*
G03*
X13840000Y-10870000I-290000J0D01*
G01*
D10*
X12859900Y-7030000D02*
G75*
G03*
X12759900Y-6930000I-100000J0D01*
G01*
X12229900Y-6930000D02*
X12759900Y-6930000D01*
X12129900Y-8090000D02*
G75*
G03*
X12229900Y-8190000I100000J0D01*
G01*
X9840100Y-6930000D02*
G75*
G03*
X9740100Y-7030000I0J-100000D01*
G01*
X14600000Y-14310000D02*
X8000000Y-14310000D01*
X12129900Y-7030000D02*
X12129900Y-8090000D01*
X14600000Y-6000000D02*
X14600000Y-14310000D01*
X9740100Y-7030000D02*
X9740100Y-8090000D01*
X9840100Y-8190000D02*
X10370100Y-8190000D01*
X12759900Y-8190000D02*
G75*
G03*
X12859900Y-8090000I0J100000D01*
G01*
X8000000Y-6000000D02*
X14600000Y-6000000D01*
D12*
D13*
X8180000Y-13655000D02*
X8220000Y-13695000D01*
X8220000Y-13655000D02*
X8180000Y-13695000D01*
X8180000Y-13830000D02*
X8220000Y-13870000D01*
X8220000Y-13830000D02*
X8180000Y-13870000D01*
X8200000Y-6260000D02*
X8240000Y-6300000D01*
X8240000Y-6260000D02*
X8200000Y-6300000D01*
X8305000Y-13580000D02*
X8345000Y-13620000D01*
X8345000Y-13580000D02*
X8305000Y-13620000D01*
X8305000Y-13755000D02*
X8345000Y-13795000D01*
X8345000Y-13755000D02*
X8305000Y-13795000D01*
X8305000Y-13905000D02*
X8345000Y-13945000D01*
X8345000Y-13905000D02*
X8305000Y-13945000D01*
X8390400Y-6510200D02*
X8430400Y-6550200D01*
X8430400Y-6510200D02*
X8390400Y-6550200D01*
X8455000Y-13655000D02*
X8495000Y-13695000D01*
X8495000Y-13655000D02*
X8455000Y-13695000D01*
X8455000Y-13830000D02*
X8495000Y-13870000D01*
X8495000Y-13830000D02*
X8455000Y-13870000D01*
X8480000Y-9860000D02*
X8520000Y-9900000D01*
X8520000Y-9860000D02*
X8480000Y-9900000D01*
X8500000Y-7260000D02*
X8540000Y-7300000D01*
X8540000Y-7260000D02*
X8500000Y-7300000D01*
X8520000Y-10800000D02*
X8560000Y-10840000D01*
X8560000Y-10800000D02*
X8520000Y-10840000D01*
X8540000Y-9720000D02*
X8580000Y-9760000D01*
X8580000Y-9720000D02*
X8540000Y-9760000D01*
X8540000Y-10500000D02*
X8580000Y-10540000D01*
X8580000Y-10500000D02*
X8540000Y-10540000D01*
X8540000Y-11200000D02*
X8580000Y-11240000D01*
X8580000Y-11200000D02*
X8540000Y-11240000D01*
X8605000Y-13580000D02*
X8645000Y-13620000D01*
X8645000Y-13580000D02*
X8605000Y-13620000D01*
X8605000Y-13730000D02*
X8645000Y-13770000D01*
X8645000Y-13730000D02*
X8605000Y-13770000D01*
X8605000Y-13905000D02*
X8645000Y-13945000D01*
X8645000Y-13905000D02*
X8605000Y-13945000D01*
X8645000Y-10000000D02*
X8685000Y-10040000D01*
X8685000Y-10000000D02*
X8645000Y-10040000D01*
X8705000Y-8655000D02*
X8745000Y-8695000D01*
X8745000Y-8655000D02*
X8705000Y-8695000D01*
X8707500Y-9707000D02*
X8747500Y-9747000D01*
X8747500Y-9707000D02*
X8707500Y-9747000D01*
X8715000Y-7760000D02*
X8755000Y-7800000D01*
X8755000Y-7760000D02*
X8715000Y-7800000D01*
X8715400Y-13298300D02*
X8755400Y-13338300D01*
X8755400Y-13298300D02*
X8715400Y-13338300D01*
X8720000Y-6180000D02*
X8760000Y-6220000D01*
X8760000Y-6180000D02*
X8720000Y-6220000D01*
X8770000Y-10090000D02*
X8810000Y-10130000D01*
X8810000Y-10090000D02*
X8770000Y-10130000D01*
X8780000Y-10500000D02*
X8820000Y-10540000D01*
X8820000Y-10500000D02*
X8780000Y-10540000D01*
X8802500Y-12646700D02*
X8842500Y-12686700D01*
X8842500Y-12646700D02*
X8802500Y-12686700D01*
X8805000Y-7235000D02*
X8845000Y-7275000D01*
X8845000Y-7235000D02*
X8805000Y-7275000D01*
X8820000Y-9245000D02*
X8860000Y-9285000D01*
X8860000Y-9245000D02*
X8820000Y-9285000D01*
X8880000Y-10800000D02*
X8920000Y-10840000D01*
X8920000Y-10800000D02*
X8880000Y-10840000D01*
X8880000Y-11200000D02*
X8920000Y-11240000D01*
X8920000Y-11200000D02*
X8880000Y-11240000D01*
X8900000Y-10185000D02*
X8940000Y-10225000D01*
X8940000Y-10185000D02*
X8900000Y-10225000D01*
X8985000Y-10600000D02*
X9025000Y-10640000D01*
X9025000Y-10600000D02*
X8985000Y-10640000D01*
X9080000Y-7440000D02*
X9120000Y-7480000D01*
X9120000Y-7440000D02*
X9080000Y-7480000D01*
X9100000Y-8040000D02*
X9140000Y-8080000D01*
X9140000Y-8040000D02*
X9100000Y-8080000D01*
X9105000Y-6090000D02*
X9145000Y-6130000D01*
X9145000Y-6090000D02*
X9105000Y-6130000D01*
X9120000Y-10040000D02*
X9160000Y-10080000D01*
X9160000Y-10040000D02*
X9120000Y-10080000D01*
X9120000Y-11020000D02*
X9160000Y-11060000D01*
X9160000Y-11020000D02*
X9120000Y-11060000D01*
X9140000Y-12020000D02*
X9180000Y-12060000D01*
X9180000Y-12020000D02*
X9140000Y-12060000D01*
X9200000Y-6300000D02*
X9240000Y-6340000D01*
X9240000Y-6300000D02*
X9200000Y-6340000D01*
X9200000Y-8250000D02*
X9240000Y-8290000D01*
X9240000Y-8250000D02*
X9200000Y-8290000D01*
X9220500Y-13670500D02*
X9260500Y-13710500D01*
X9260500Y-13670500D02*
X9220500Y-13710500D01*
X9245000Y-10405000D02*
X9285000Y-10445000D01*
X9285000Y-10405000D02*
X9245000Y-10445000D01*
X9300000Y-7700000D02*
X9340000Y-7740000D01*
X9340000Y-7700000D02*
X9300000Y-7740000D01*
X9300000Y-9160000D02*
X9340000Y-9200000D01*
X9340000Y-9160000D02*
X9300000Y-9200000D01*
X9350000Y-8340000D02*
X9390000Y-8380000D01*
X9390000Y-8340000D02*
X9350000Y-8380000D01*
X9425000Y-6195000D02*
X9465000Y-6235000D01*
X9465000Y-6195000D02*
X9425000Y-6235000D01*
X9468000Y-10316200D02*
X9508000Y-10356200D01*
X9508000Y-10316200D02*
X9468000Y-10356200D01*
X9605000Y-13155000D02*
X9645000Y-13195000D01*
X9645000Y-13155000D02*
X9605000Y-13195000D01*
X9610000Y-6940000D02*
X9650000Y-6980000D01*
X9650000Y-6940000D02*
X9610000Y-6980000D01*
X9620000Y-9200000D02*
X9660000Y-9240000D01*
X9660000Y-9200000D02*
X9620000Y-9240000D01*
X9648500Y-10309200D02*
X9688500Y-10349200D01*
X9688500Y-10309200D02*
X9648500Y-10349200D01*
X9672600Y-10963400D02*
X9712600Y-11003400D01*
X9712600Y-10963400D02*
X9672600Y-11003400D01*
X9683400Y-11119900D02*
X9723400Y-11159900D01*
X9723400Y-11119900D02*
X9683400Y-11159900D01*
X9698600Y-10800300D02*
X9738600Y-10840300D01*
X9738600Y-10800300D02*
X9698600Y-10840300D01*
X9720000Y-12000000D02*
X9760000Y-12040000D01*
X9760000Y-12000000D02*
X9720000Y-12040000D01*
X9760000Y-8735000D02*
X9800000Y-8775000D01*
X9800000Y-8735000D02*
X9760000Y-8775000D01*
X9780000Y-13155000D02*
X9820000Y-13195000D01*
X9820000Y-13155000D02*
X9780000Y-13195000D01*
X9829600Y-11045200D02*
X9869600Y-11085200D01*
X9869600Y-11045200D02*
X9829600Y-11085200D01*
X9840000Y-9040000D02*
X9880000Y-9080000D01*
X9880000Y-9040000D02*
X9840000Y-9080000D01*
X9849000Y-10506500D02*
X9889000Y-10546500D01*
X9889000Y-10506500D02*
X9849000Y-10546500D01*
X9856000Y-10230200D02*
X9896000Y-10270200D01*
X9896000Y-10230200D02*
X9856000Y-10270200D01*
X9899400Y-10846300D02*
X9939400Y-10886300D01*
X9939400Y-10846300D02*
X9899400Y-10886300D01*
X9903800Y-9966100D02*
X9943800Y-10006100D01*
X9943800Y-9966100D02*
X9903800Y-10006100D01*
X10025200Y-10038200D02*
X10065200Y-10078200D01*
X10065200Y-10038200D02*
X10025200Y-10078200D01*
X10060000Y-8440000D02*
X10100000Y-8480000D01*
X10100000Y-8440000D02*
X10060000Y-8480000D01*
X10060000Y-8640000D02*
X10100000Y-8680000D01*
X10100000Y-8640000D02*
X10060000Y-8680000D01*
X10081300Y-10158800D02*
X10121300Y-10198800D01*
X10121300Y-10158800D02*
X10081300Y-10198800D01*
X10155000Y-13555000D02*
X10195000Y-13595000D01*
X10195000Y-13555000D02*
X10155000Y-13595000D01*
X10195000Y-10090000D02*
X10235000Y-10130000D01*
X10235000Y-10090000D02*
X10195000Y-10130000D01*
X10196100Y-10336200D02*
X10236100Y-10376200D01*
X10236100Y-10336200D02*
X10196100Y-10376200D01*
X10220000Y-8860000D02*
X10260000Y-8900000D01*
X10260000Y-8860000D02*
X10220000Y-8900000D01*
X10266000Y-10584500D02*
X10306000Y-10624500D01*
X10306000Y-10584500D02*
X10266000Y-10624500D01*
X10300000Y-12020000D02*
X10340000Y-12060000D01*
X10340000Y-12020000D02*
X10300000Y-12060000D01*
X10300000Y-12420000D02*
X10340000Y-12460000D01*
X10340000Y-12420000D02*
X10300000Y-12460000D01*
X10355000Y-12905000D02*
X10395000Y-12945000D01*
X10395000Y-12905000D02*
X10355000Y-12945000D01*
X10420000Y-8440000D02*
X10460000Y-8480000D01*
X10460000Y-8440000D02*
X10420000Y-8480000D01*
X10420000Y-8640000D02*
X10460000Y-8680000D01*
X10460000Y-8640000D02*
X10420000Y-8680000D01*
X10430000Y-8905000D02*
X10470000Y-8945000D01*
X10470000Y-8905000D02*
X10430000Y-8945000D01*
X10430000Y-12780000D02*
X10470000Y-12820000D01*
X10470000Y-12780000D02*
X10430000Y-12820000D01*
X10455000Y-13030000D02*
X10495000Y-13070000D01*
X10495000Y-13030000D02*
X10455000Y-13070000D01*
X10459600Y-10986500D02*
X10499600Y-11026500D01*
X10499600Y-10986500D02*
X10459600Y-11026500D01*
X10473200Y-10607450D02*
X10513200Y-10647450D01*
X10513200Y-10607450D02*
X10473200Y-10647450D01*
X10555000Y-12905000D02*
X10595000Y-12945000D01*
X10595000Y-12905000D02*
X10555000Y-12945000D01*
X10575000Y-8785000D02*
X10615000Y-8825000D01*
X10615000Y-8785000D02*
X10575000Y-8825000D01*
X10610900Y-9810400D02*
X10650900Y-9850400D01*
X10650900Y-9810400D02*
X10610900Y-9850400D01*
X10630000Y-12780000D02*
X10670000Y-12820000D01*
X10670000Y-12780000D02*
X10630000Y-12820000D01*
X10630000Y-13030000D02*
X10670000Y-13070000D01*
X10670000Y-13030000D02*
X10630000Y-13070000D01*
X10651400Y-10921100D02*
X10691400Y-10961100D01*
X10691400Y-10921100D02*
X10651400Y-10961100D01*
X10688800Y-10716200D02*
X10728800Y-10756200D01*
X10728800Y-10716200D02*
X10688800Y-10756200D01*
X10730000Y-12905000D02*
X10770000Y-12945000D01*
X10770000Y-12905000D02*
X10730000Y-12945000D01*
X10755000Y-13780000D02*
X10795000Y-13820000D01*
X10795000Y-13780000D02*
X10755000Y-13820000D01*
X10760000Y-9960000D02*
X10800000Y-10000000D01*
X10800000Y-9960000D02*
X10760000Y-10000000D01*
X10780000Y-13530000D02*
X10820000Y-13570000D01*
X10820000Y-13530000D02*
X10780000Y-13570000D01*
X10805000Y-12780000D02*
X10845000Y-12820000D01*
X10845000Y-12780000D02*
X10805000Y-12820000D01*
X10805000Y-13030000D02*
X10845000Y-13070000D01*
X10845000Y-13030000D02*
X10805000Y-13070000D01*
X10848000Y-10904100D02*
X10888000Y-10944100D01*
X10888000Y-10904100D02*
X10848000Y-10944100D01*
X10905000Y-12905000D02*
X10945000Y-12945000D01*
X10945000Y-12905000D02*
X10905000Y-12945000D01*
X10970500Y-11087700D02*
X11010500Y-11127700D01*
X11010500Y-11087700D02*
X10970500Y-11127700D01*
X10980000Y-12000000D02*
X11020000Y-12040000D01*
X11020000Y-12000000D02*
X10980000Y-12040000D01*
X10980000Y-12420000D02*
X11020000Y-12460000D01*
X11020000Y-12420000D02*
X10980000Y-12460000D01*
X10980000Y-12780000D02*
X11020000Y-12820000D01*
X11020000Y-12780000D02*
X10980000Y-12820000D01*
X10980000Y-13030000D02*
X11020000Y-13070000D01*
X11020000Y-13030000D02*
X10980000Y-13070000D01*
X11020000Y-9370000D02*
X11060000Y-9410000D01*
X11060000Y-9370000D02*
X11020000Y-9410000D01*
X11020000Y-9470000D02*
X11060000Y-9510000D01*
X11060000Y-9470000D02*
X11020000Y-9510000D01*
X11020000Y-9560000D02*
X11060000Y-9600000D01*
X11060000Y-9560000D02*
X11020000Y-9600000D01*
X11130000Y-9370000D02*
X11170000Y-9410000D01*
X11170000Y-9370000D02*
X11130000Y-9410000D01*
X11130000Y-9470000D02*
X11170000Y-9510000D01*
X11170000Y-9470000D02*
X11130000Y-9510000D01*
X11130000Y-9560000D02*
X11170000Y-9600000D01*
X11170000Y-9560000D02*
X11130000Y-9600000D01*
X11160000Y-13360000D02*
X11200000Y-13400000D01*
X11200000Y-13360000D02*
X11160000Y-13400000D01*
X11160000Y-13760000D02*
X11200000Y-13800000D01*
X11200000Y-13760000D02*
X11160000Y-13800000D01*
X11173470Y-10575070D02*
X11213470Y-10615070D01*
X11213470Y-10575070D02*
X11173470Y-10615070D01*
X11177800Y-10421800D02*
X11217800Y-10461800D01*
X11217800Y-10421800D02*
X11177800Y-10461800D01*
X11187500Y-8814700D02*
X11227500Y-8854700D01*
X11227500Y-8814700D02*
X11187500Y-8854700D01*
X11188800Y-8666800D02*
X11228800Y-8706800D01*
X11228800Y-8666800D02*
X11188800Y-8706800D01*
X11222000Y-10984300D02*
X11262000Y-11024300D01*
X11262000Y-10984300D02*
X11222000Y-11024300D01*
X11240000Y-9470000D02*
X11280000Y-9510000D01*
X11280000Y-9470000D02*
X11240000Y-9510000D01*
X11240000Y-9560000D02*
X11280000Y-9600000D01*
X11280000Y-9560000D02*
X11240000Y-9600000D01*
X11309400Y-10377300D02*
X11349400Y-10417300D01*
X11349400Y-10377300D02*
X11309400Y-10417300D01*
X11319800Y-10518800D02*
X11359800Y-10558800D01*
X11359800Y-10518800D02*
X11319800Y-10558800D01*
X11354100Y-8666100D02*
X11394100Y-8706100D01*
X11394100Y-8666100D02*
X11354100Y-8706100D01*
X11354800Y-8817900D02*
X11394800Y-8857900D01*
X11394800Y-8817900D02*
X11354800Y-8857900D01*
X11360000Y-9480000D02*
X11400000Y-9520000D01*
X11400000Y-9480000D02*
X11360000Y-9520000D01*
X11444400Y-10390500D02*
X11484400Y-10430500D01*
X11484400Y-10390500D02*
X11444400Y-10430500D01*
X11492800Y-11240200D02*
X11532800Y-11280200D01*
X11532800Y-11240200D02*
X11492800Y-11280200D01*
X11500100Y-10137300D02*
X11540100Y-10177300D01*
X11540100Y-10137300D02*
X11500100Y-10177300D01*
X11509400Y-10621700D02*
X11549400Y-10661700D01*
X11549400Y-10621700D02*
X11509400Y-10661700D01*
X11521100Y-10255600D02*
X11561100Y-10295600D01*
X11561100Y-10255600D02*
X11521100Y-10295600D01*
X11545800Y-9300000D02*
X11585800Y-9340000D01*
X11585800Y-9300000D02*
X11545800Y-9340000D01*
X11553700Y-9801800D02*
X11593700Y-9841800D01*
X11593700Y-9801800D02*
X11553700Y-9841800D01*
X11580000Y-8655000D02*
X11620000Y-8695000D01*
X11620000Y-8655000D02*
X11580000Y-8695000D01*
X11640000Y-12000000D02*
X11680000Y-12040000D01*
X11680000Y-12000000D02*
X11640000Y-12040000D01*
X11640000Y-12420000D02*
X11680000Y-12460000D01*
X11680000Y-12420000D02*
X11640000Y-12460000D01*
X11661000Y-9700500D02*
X11701000Y-9740500D01*
X11701000Y-9700500D02*
X11661000Y-9740500D01*
X11661500Y-10987500D02*
X11701500Y-11027500D01*
X11701500Y-10987500D02*
X11661500Y-11027500D01*
X11690000Y-8555000D02*
X11730000Y-8595000D01*
X11730000Y-8555000D02*
X11690000Y-8595000D01*
X11760000Y-13340000D02*
X11800000Y-13380000D01*
X11800000Y-13340000D02*
X11760000Y-13380000D01*
X11760000Y-13760000D02*
X11800000Y-13800000D01*
X11800000Y-13760000D02*
X11760000Y-13800000D01*
X11961300Y-9898000D02*
X12001300Y-9938000D01*
X12001300Y-9898000D02*
X11961300Y-9938000D01*
X11999400Y-11087800D02*
X12039400Y-11127800D01*
X12039400Y-11087800D02*
X11999400Y-11127800D01*
X12040000Y-10650000D02*
X12080000Y-10690000D01*
X12080000Y-10650000D02*
X12040000Y-10690000D01*
X12164800Y-10485600D02*
X12204800Y-10525600D01*
X12204800Y-10485600D02*
X12164800Y-10525600D01*
X12355000Y-9245000D02*
X12395000Y-9285000D01*
X12395000Y-9245000D02*
X12355000Y-9285000D01*
X12580000Y-10140000D02*
X12620000Y-10180000D01*
X12620000Y-10140000D02*
X12580000Y-10180000D01*
X12580000Y-10400000D02*
X12620000Y-10440000D01*
X12620000Y-10400000D02*
X12580000Y-10440000D01*
X12580000Y-10620000D02*
X12620000Y-10660000D01*
X12620000Y-10620000D02*
X12580000Y-10660000D01*
X12580000Y-10840000D02*
X12620000Y-10880000D01*
X12620000Y-10840000D02*
X12580000Y-10880000D01*
X12691300Y-9738400D02*
X12731300Y-9778400D01*
X12731300Y-9738400D02*
X12691300Y-9778400D01*
X12692700Y-9954300D02*
X12732700Y-9994300D01*
X12732700Y-9954300D02*
X12692700Y-9994300D01*
X12779300Y-11136000D02*
X12819300Y-11176000D01*
X12819300Y-11136000D02*
X12779300Y-11176000D01*
X12864400Y-10331200D02*
X12904400Y-10371200D01*
X12904400Y-10331200D02*
X12864400Y-10371200D01*
X12940000Y-9120000D02*
X12980000Y-9160000D01*
X12980000Y-9120000D02*
X12940000Y-9160000D01*
X13015300Y-11168700D02*
X13055300Y-11208700D01*
X13055300Y-11168700D02*
X13015300Y-11208700D01*
X13020000Y-14100000D02*
X13060000Y-14140000D01*
X13060000Y-14100000D02*
X13020000Y-14140000D01*
X13049400Y-11988900D02*
X13089400Y-12028900D01*
X13089400Y-11988900D02*
X13049400Y-12028900D01*
X13180000Y-6340000D02*
X13220000Y-6380000D01*
X13220000Y-6340000D02*
X13180000Y-6380000D01*
X13180000Y-6960000D02*
X13220000Y-7000000D01*
X13220000Y-6960000D02*
X13180000Y-7000000D01*
X13197700Y-8667100D02*
X13237700Y-8707100D01*
X13237700Y-8667100D02*
X13197700Y-8707100D01*
X13376400Y-8802200D02*
X13416400Y-8842200D01*
X13416400Y-8802200D02*
X13376400Y-8842200D01*
X13492100Y-8657300D02*
X13532100Y-8697300D01*
X13532100Y-8657300D02*
X13492100Y-8697300D01*
X13647900Y-9911300D02*
X13687900Y-9951300D01*
X13687900Y-9911300D02*
X13647900Y-9951300D01*
X13760000Y-14080000D02*
X13800000Y-14120000D01*
X13800000Y-14080000D02*
X13760000Y-14120000D01*
X13799600Y-9463000D02*
X13839600Y-9503000D01*
X13839600Y-9463000D02*
X13799600Y-9503000D01*
X13832700Y-9209000D02*
X13872700Y-9249000D01*
X13872700Y-9209000D02*
X13832700Y-9249000D01*
X13860000Y-10260000D02*
X13900000Y-10300000D01*
X13900000Y-10260000D02*
X13860000Y-10300000D01*
X13992200Y-10026600D02*
X14032200Y-10066600D01*
X14032200Y-10026600D02*
X13992200Y-10066600D01*
X13993900Y-9159200D02*
X14033900Y-9199200D01*
X14033900Y-9159200D02*
X13993900Y-9199200D01*
X14378300Y-11398300D02*
X14418300Y-11438300D01*
X14418300Y-11398300D02*
X14378300Y-11438300D01*
X14380000Y-12200000D02*
X14420000Y-12240000D01*
X14420000Y-12200000D02*
X14380000Y-12240000D01*
X14380000Y-13000000D02*
X14420000Y-13040000D01*
X14420000Y-13000000D02*
X14380000Y-13040000D01*
X14400000Y-6340000D02*
X14440000Y-6380000D01*
X14440000Y-6340000D02*
X14400000Y-6380000D01*
X14400000Y-6960000D02*
X14440000Y-7000000D01*
X14440000Y-6960000D02*
X14400000Y-7000000D01*
X14400000Y-14080000D02*
X14440000Y-14120000D01*
X14440000Y-14080000D02*
X14400000Y-14120000D01*
X14440000Y-7880000D02*
X14480000Y-7920000D01*
X14480000Y-7880000D02*
X14440000Y-7920000D01*
X14440000Y-9000000D02*
X14480000Y-9040000D01*
X14480000Y-9000000D02*
X14440000Y-9040000D01*
X14440000Y-10240000D02*
X14480000Y-10280000D01*
X14480000Y-10240000D02*
X14440000Y-10280000D01*
D14*
X13032500Y-12749500D02*
G75*
G03*
X13032500Y-12749500I-37500J0D01*
G01*
X13032500Y-12949500D02*
G75*
G03*
X13032500Y-12949500I-37500J0D01*
G01*
D15*
X8887000Y-11443400D02*
X8887000Y-11543400D01*
X8837000Y-11493400D02*
X8937000Y-11493400D01*
X8887000Y-11697400D02*
X8887000Y-11797400D01*
X8837000Y-11747400D02*
X8937000Y-11747400D01*
X9130000Y-12679300D02*
X9130000Y-12779300D01*
X9080000Y-12729300D02*
X9180000Y-12729300D01*
X9130000Y-12933300D02*
X9130000Y-13033300D01*
X9080000Y-12983300D02*
X9180000Y-12983300D01*
X9130000Y-13187300D02*
X9130000Y-13287300D01*
X9080000Y-13237300D02*
X9180000Y-13237300D01*
X9130000Y-13441300D02*
X9130000Y-13541300D01*
X9080000Y-13491300D02*
X9180000Y-13491300D01*
X9141000Y-11443400D02*
X9141000Y-11543400D01*
X9091000Y-11493400D02*
X9191000Y-11493400D01*
X9141000Y-11697400D02*
X9141000Y-11797400D01*
X9091000Y-11747400D02*
X9191000Y-11747400D01*
X9395000Y-11443400D02*
X9395000Y-11543400D01*
X9345000Y-11493400D02*
X9445000Y-11493400D01*
X9395000Y-11697400D02*
X9395000Y-11797400D01*
X9345000Y-11747400D02*
X9445000Y-11747400D01*
X9649000Y-11443400D02*
X9649000Y-11543400D01*
X9599000Y-11493400D02*
X9699000Y-11493400D01*
X9649000Y-11697400D02*
X9649000Y-11797400D01*
X9599000Y-11747400D02*
X9699000Y-11747400D01*
X9696000Y-14069500D02*
X9696000Y-14169500D01*
X9646000Y-14119500D02*
X9746000Y-14119500D01*
X9903000Y-6331000D02*
X9903000Y-6431000D01*
X9853000Y-6381000D02*
X9953000Y-6381000D01*
X9903000Y-6585000D02*
X9903000Y-6685000D01*
X9853000Y-6635000D02*
X9953000Y-6635000D01*
X9903000Y-11443400D02*
X9903000Y-11543400D01*
X9853000Y-11493400D02*
X9953000Y-11493400D01*
X9903000Y-11697400D02*
X9903000Y-11797400D01*
X9853000Y-11747400D02*
X9953000Y-11747400D01*
X9950000Y-14069500D02*
X9950000Y-14169500D01*
X9900000Y-14119500D02*
X10000000Y-14119500D01*
X10157000Y-6331000D02*
X10157000Y-6431000D01*
X10107000Y-6381000D02*
X10207000Y-6381000D01*
X10157000Y-6585000D02*
X10157000Y-6685000D01*
X10107000Y-6635000D02*
X10207000Y-6635000D01*
X10157000Y-11443400D02*
X10157000Y-11543400D01*
X10107000Y-11493400D02*
X10207000Y-11493400D01*
X10157000Y-11697400D02*
X10157000Y-11797400D01*
X10107000Y-11747400D02*
X10207000Y-11747400D01*
X10411000Y-6331000D02*
X10411000Y-6431000D01*
X10361000Y-6381000D02*
X10461000Y-6381000D01*
X10411000Y-6585000D02*
X10411000Y-6685000D01*
X10361000Y-6635000D02*
X10461000Y-6635000D01*
X10411000Y-11443400D02*
X10411000Y-11543400D01*
X10361000Y-11493400D02*
X10461000Y-11493400D01*
X10411000Y-11697400D02*
X10411000Y-11797400D01*
X10361000Y-11747400D02*
X10461000Y-11747400D01*
X10665000Y-6331000D02*
X10665000Y-6431000D01*
X10615000Y-6381000D02*
X10715000Y-6381000D01*
X10665000Y-6585000D02*
X10665000Y-6685000D01*
X10615000Y-6635000D02*
X10715000Y-6635000D01*
X10665000Y-11443400D02*
X10665000Y-11543400D01*
X10615000Y-11493400D02*
X10715000Y-11493400D01*
X10665000Y-11697400D02*
X10665000Y-11797400D01*
X10615000Y-11747400D02*
X10715000Y-11747400D01*
X10680100Y-6948300D02*
X10680100Y-7048300D01*
X10630100Y-6998300D02*
X10730100Y-6998300D01*
X10680100Y-7202300D02*
X10680100Y-7302300D01*
X10630100Y-7252300D02*
X10730100Y-7252300D01*
X10680100Y-7456300D02*
X10680100Y-7556300D01*
X10630100Y-7506300D02*
X10730100Y-7506300D01*
X10680100Y-7710300D02*
X10680100Y-7810300D01*
X10630100Y-7760300D02*
X10730100Y-7760300D01*
X10680100Y-7964300D02*
X10680100Y-8064300D01*
X10630100Y-8014300D02*
X10730100Y-8014300D01*
X10680100Y-8218300D02*
X10680100Y-8318300D01*
X10630100Y-8268300D02*
X10730100Y-8268300D01*
X10919000Y-6331000D02*
X10919000Y-6431000D01*
X10869000Y-6381000D02*
X10969000Y-6381000D01*
X10919000Y-6585000D02*
X10919000Y-6685000D01*
X10869000Y-6635000D02*
X10969000Y-6635000D01*
X10919000Y-11443400D02*
X10919000Y-11543400D01*
X10869000Y-11493400D02*
X10969000Y-11493400D01*
X10919000Y-11697400D02*
X10919000Y-11797400D01*
X10869000Y-11747400D02*
X10969000Y-11747400D01*
X11173000Y-6331000D02*
X11173000Y-6431000D01*
X11123000Y-6381000D02*
X11223000Y-6381000D01*
X11173000Y-6585000D02*
X11173000Y-6685000D01*
X11123000Y-6635000D02*
X11223000Y-6635000D01*
X11173000Y-11443400D02*
X11173000Y-11543400D01*
X11123000Y-11493400D02*
X11223000Y-11493400D01*
X11173000Y-11697400D02*
X11173000Y-11797400D01*
X11123000Y-11747400D02*
X11223000Y-11747400D01*
X11427000Y-6331000D02*
X11427000Y-6431000D01*
X11377000Y-6381000D02*
X11477000Y-6381000D01*
X11427000Y-6585000D02*
X11427000Y-6685000D01*
X11377000Y-6635000D02*
X11477000Y-6635000D01*
X11427000Y-11443400D02*
X11427000Y-11543400D01*
X11377000Y-11493400D02*
X11477000Y-11493400D01*
X11427000Y-11697400D02*
X11427000Y-11797400D01*
X11377000Y-11747400D02*
X11477000Y-11747400D01*
X11530000Y-14069500D02*
X11530000Y-14169500D01*
X11480000Y-14119500D02*
X11580000Y-14119500D01*
X11681000Y-6331000D02*
X11681000Y-6431000D01*
X11631000Y-6381000D02*
X11731000Y-6381000D01*
X11681000Y-6585000D02*
X11681000Y-6685000D01*
X11631000Y-6635000D02*
X11731000Y-6635000D01*
X11681000Y-11443400D02*
X11681000Y-11543400D01*
X11631000Y-11493400D02*
X11731000Y-11493400D01*
X11681000Y-11697400D02*
X11681000Y-11797400D01*
X11631000Y-11747400D02*
X11731000Y-11747400D01*
X11784000Y-14069500D02*
X11784000Y-14169500D01*
X11734000Y-14119500D02*
X11834000Y-14119500D01*
X11919900Y-6948300D02*
X11919900Y-7048300D01*
X11869900Y-6998300D02*
X11969900Y-6998300D01*
X11919900Y-7202300D02*
X11919900Y-7302300D01*
X11869900Y-7252300D02*
X11969900Y-7252300D01*
X11919900Y-7456300D02*
X11919900Y-7556300D01*
X11869900Y-7506300D02*
X11969900Y-7506300D01*
X11919900Y-7710300D02*
X11919900Y-7810300D01*
X11869900Y-7760300D02*
X11969900Y-7760300D01*
X11919900Y-7964300D02*
X11919900Y-8064300D01*
X11869900Y-8014300D02*
X11969900Y-8014300D01*
X11919900Y-8218300D02*
X11919900Y-8318300D01*
X11869900Y-8268300D02*
X11969900Y-8268300D01*
X11935000Y-6331000D02*
X11935000Y-6431000D01*
X11885000Y-6381000D02*
X11985000Y-6381000D01*
X11935000Y-6585000D02*
X11935000Y-6685000D01*
X11885000Y-6635000D02*
X11985000Y-6635000D01*
X11935000Y-11443400D02*
X11935000Y-11543400D01*
X11885000Y-11493400D02*
X11985000Y-11493400D01*
X11935000Y-11697400D02*
X11935000Y-11797400D01*
X11885000Y-11747400D02*
X11985000Y-11747400D01*
X11996000Y-12029500D02*
X11996000Y-12129500D01*
X11946000Y-12079500D02*
X12046000Y-12079500D01*
X12189000Y-6331000D02*
X12189000Y-6431000D01*
X12139000Y-6381000D02*
X12239000Y-6381000D01*
X12189000Y-6585000D02*
X12189000Y-6685000D01*
X12139000Y-6635000D02*
X12239000Y-6635000D01*
X12189000Y-11443400D02*
X12189000Y-11543400D01*
X12139000Y-11493400D02*
X12239000Y-11493400D01*
X12189000Y-11697400D02*
X12189000Y-11797400D01*
X12139000Y-11747400D02*
X12239000Y-11747400D01*
X12250000Y-12029500D02*
X12250000Y-12129500D01*
X12200000Y-12079500D02*
X12300000Y-12079500D01*
X12443000Y-6331000D02*
X12443000Y-6431000D01*
X12393000Y-6381000D02*
X12493000Y-6381000D01*
X12443000Y-6585000D02*
X12443000Y-6685000D01*
X12393000Y-6635000D02*
X12493000Y-6635000D01*
X12443000Y-11443400D02*
X12443000Y-11543400D01*
X12393000Y-11493400D02*
X12493000Y-11493400D01*
X12443000Y-11697400D02*
X12443000Y-11797400D01*
X12393000Y-11747400D02*
X12493000Y-11747400D01*
X12504000Y-12029500D02*
X12504000Y-12129500D01*
X12454000Y-12079500D02*
X12554000Y-12079500D01*
X12697000Y-6331000D02*
X12697000Y-6431000D01*
X12647000Y-6381000D02*
X12747000Y-6381000D01*
X12697000Y-6585000D02*
X12697000Y-6685000D01*
X12647000Y-6635000D02*
X12747000Y-6635000D01*
X12697000Y-11443400D02*
X12697000Y-11543400D01*
X12647000Y-11493400D02*
X12747000Y-11493400D01*
X12697000Y-11697400D02*
X12697000Y-11797400D01*
X12647000Y-11747400D02*
X12747000Y-11747400D01*
X12758000Y-12029500D02*
X12758000Y-12129500D01*
X12708000Y-12079500D02*
X12808000Y-12079500D01*
X12951000Y-11443400D02*
X12951000Y-11543400D01*
X12901000Y-11493400D02*
X13001000Y-11493400D01*
X12951000Y-11697400D02*
X12951000Y-11797400D01*
X12901000Y-11747400D02*
X13001000Y-11747400D01*
X13205000Y-11443400D02*
X13205000Y-11543400D01*
X13155000Y-11493400D02*
X13255000Y-11493400D01*
X13205000Y-11697400D02*
X13205000Y-11797400D01*
X13155000Y-11747400D02*
X13255000Y-11747400D01*
X13233300Y-9178400D02*
X13233300Y-9278400D01*
X13183300Y-9228400D02*
X13283300Y-9228400D01*
X13233300Y-9432400D02*
X13233300Y-9532400D01*
X13183300Y-9482400D02*
X13283300Y-9482400D01*
X13233300Y-9686400D02*
X13233300Y-9786400D01*
X13183300Y-9736400D02*
X13283300Y-9736400D01*
X13233300Y-9940400D02*
X13233300Y-10040400D01*
X13183300Y-9990400D02*
X13283300Y-9990400D01*
X13233300Y-10194400D02*
X13233300Y-10294400D01*
X13183300Y-10244400D02*
X13283300Y-10244400D01*
X13298500Y-7408300D02*
X13298500Y-7508300D01*
X13248500Y-7458300D02*
X13348500Y-7458300D01*
X13298500Y-7662300D02*
X13298500Y-7762300D01*
X13248500Y-7712300D02*
X13348500Y-7712300D01*
X13459000Y-11443400D02*
X13459000Y-11543400D01*
X13409000Y-11493400D02*
X13509000Y-11493400D01*
X13459000Y-11697400D02*
X13459000Y-11797400D01*
X13409000Y-11747400D02*
X13509000Y-11747400D01*
X13475000Y-13345500D02*
X13475000Y-13445500D01*
X13425000Y-13395500D02*
X13525000Y-13395500D01*
X13475000Y-13599500D02*
X13475000Y-13699500D01*
X13425000Y-13649500D02*
X13525000Y-13649500D01*
X13552500Y-7408300D02*
X13552500Y-7508300D01*
X13502500Y-7458300D02*
X13602500Y-7458300D01*
X13552500Y-7662300D02*
X13552500Y-7762300D01*
X13502500Y-7712300D02*
X13602500Y-7712300D01*
X13713000Y-11443400D02*
X13713000Y-11543400D01*
X13663000Y-11493400D02*
X13763000Y-11493400D01*
X13713000Y-11697400D02*
X13713000Y-11797400D01*
X13663000Y-11747400D02*
X13763000Y-11747400D01*
X13806500Y-7408300D02*
X13806500Y-7508300D01*
X13756500Y-7458300D02*
X13856500Y-7458300D01*
X13806500Y-7662300D02*
X13806500Y-7762300D01*
X13756500Y-7712300D02*
X13856500Y-7712300D01*
D12*
X8255119Y-14622976D02*
X8255119Y-14422976D01*
X8302738Y-14422976D01*
X8331309Y-14432500D01*
X8350357Y-14451548D01*
X8359881Y-14470595D01*
X8369405Y-14508690D01*
X8369405Y-14537262D01*
X8359881Y-14575357D01*
X8350357Y-14594405D01*
X8331309Y-14613452D01*
X8302738Y-14622976D01*
X8255119Y-14622976D01*
X8455119Y-14622976D02*
X8455119Y-14489643D01*
X8455119Y-14527738D02*
X8464643Y-14508690D01*
X8474167Y-14499167D01*
X8493214Y-14489643D01*
X8512262Y-14489643D01*
X8578929Y-14622976D02*
X8578929Y-14489643D01*
X8578929Y-14422976D02*
X8569405Y-14432500D01*
X8578929Y-14442024D01*
X8588452Y-14432500D01*
X8578929Y-14422976D01*
X8578929Y-14442024D01*
X8702738Y-14622976D02*
X8683690Y-14613452D01*
X8674167Y-14594405D01*
X8674167Y-14422976D01*
X8807500Y-14622976D02*
X8788452Y-14613452D01*
X8778929Y-14594405D01*
X8778929Y-14422976D01*
X9036071Y-14622976D02*
X9036071Y-14422976D01*
X9102738Y-14565833D01*
X9169405Y-14422976D01*
X9169405Y-14622976D01*
X9350357Y-14622976D02*
X9350357Y-14518214D01*
X9340833Y-14499167D01*
X9321786Y-14489643D01*
X9283690Y-14489643D01*
X9264643Y-14499167D01*
X9350357Y-14613452D02*
X9331310Y-14622976D01*
X9283690Y-14622976D01*
X9264643Y-14613452D01*
X9255119Y-14594405D01*
X9255119Y-14575357D01*
X9264643Y-14556309D01*
X9283690Y-14546786D01*
X9331310Y-14546786D01*
X9350357Y-14537262D01*
X9445595Y-14489643D02*
X9445595Y-14689643D01*
X9445595Y-14499167D02*
X9464643Y-14489643D01*
X9502738Y-14489643D01*
X9521786Y-14499167D01*
X9531310Y-14508690D01*
X9540833Y-14527738D01*
X9540833Y-14584881D01*
X9531310Y-14603928D01*
X9521786Y-14613452D01*
X9502738Y-14622976D01*
X9464643Y-14622976D01*
X9445595Y-14613452D01*
X9626548Y-14603928D02*
X9636071Y-14613452D01*
X9626548Y-14622976D01*
X9617024Y-14613452D01*
X9626548Y-14603928D01*
X9626548Y-14622976D01*
X9626548Y-14499167D02*
X9636071Y-14508690D01*
X9626548Y-14518214D01*
X9617024Y-14508690D01*
X9626548Y-14499167D01*
X9626548Y-14518214D01*
D13*
X7957500Y-14932500D02*
X7997500Y-14972500D01*
X7997500Y-14932500D02*
X7957500Y-14972500D01*
D12*
X8293214Y-14842976D02*
X8312262Y-14842976D01*
X8331309Y-14852500D01*
X8340833Y-14862024D01*
X8350357Y-14881071D01*
X8359881Y-14919167D01*
X8359881Y-14966786D01*
X8350357Y-15004881D01*
X8340833Y-15023928D01*
X8331309Y-15033452D01*
X8312262Y-15042976D01*
X8293214Y-15042976D01*
X8274167Y-15033452D01*
X8264643Y-15023928D01*
X8255119Y-15004881D01*
X8245595Y-14966786D01*
X8245595Y-14919167D01*
X8255119Y-14881071D01*
X8264643Y-14862024D01*
X8274167Y-14852500D01*
X8293214Y-14842976D01*
X8445595Y-15023928D02*
X8455119Y-15033452D01*
X8445595Y-15042976D01*
X8436071Y-15033452D01*
X8445595Y-15023928D01*
X8445595Y-15042976D01*
X8626548Y-14909643D02*
X8626548Y-15042976D01*
X8578929Y-14833452D02*
X8531310Y-14976309D01*
X8655119Y-14976309D01*
X8769405Y-14842976D02*
X8788452Y-14842976D01*
X8807500Y-14852500D01*
X8817024Y-14862024D01*
X8826548Y-14881071D01*
X8836071Y-14919167D01*
X8836071Y-14966786D01*
X8826548Y-15004881D01*
X8817024Y-15023928D01*
X8807500Y-15033452D01*
X8788452Y-15042976D01*
X8769405Y-15042976D01*
X8750357Y-15033452D01*
X8740833Y-15023928D01*
X8731310Y-15004881D01*
X8721786Y-14966786D01*
X8721786Y-14919167D01*
X8731310Y-14881071D01*
X8740833Y-14862024D01*
X8750357Y-14852500D01*
X8769405Y-14842976D01*
X8959881Y-14842976D02*
X8978929Y-14842976D01*
X8997976Y-14852500D01*
X9007500Y-14862024D01*
X9017024Y-14881071D01*
X9026548Y-14919167D01*
X9026548Y-14966786D01*
X9017024Y-15004881D01*
X9007500Y-15023928D01*
X8997976Y-15033452D01*
X8978929Y-15042976D01*
X8959881Y-15042976D01*
X8940833Y-15033452D01*
X8931310Y-15023928D01*
X8921786Y-15004881D01*
X8912262Y-14966786D01*
X8912262Y-14919167D01*
X8921786Y-14881071D01*
X8931310Y-14862024D01*
X8940833Y-14852500D01*
X8959881Y-14842976D01*
X9112262Y-15042976D02*
X9112262Y-14909643D01*
X9112262Y-14928690D02*
X9121786Y-14919167D01*
X9140833Y-14909643D01*
X9169405Y-14909643D01*
X9188452Y-14919167D01*
X9197976Y-14938214D01*
X9197976Y-15042976D01*
X9197976Y-14938214D02*
X9207500Y-14919167D01*
X9226548Y-14909643D01*
X9255119Y-14909643D01*
X9274167Y-14919167D01*
X9283690Y-14938214D01*
X9283690Y-15042976D01*
X9378929Y-15042976D02*
X9378929Y-14909643D01*
X9378929Y-14928690D02*
X9388452Y-14919167D01*
X9407500Y-14909643D01*
X9436071Y-14909643D01*
X9455119Y-14919167D01*
X9464643Y-14938214D01*
X9464643Y-15042976D01*
X9464643Y-14938214D02*
X9474167Y-14919167D01*
X9493214Y-14909643D01*
X9521786Y-14909643D01*
X9540833Y-14919167D01*
X9550357Y-14938214D01*
X9550357Y-15042976D01*
X9940833Y-14833452D02*
X9769405Y-15090595D01*
X10197976Y-14842976D02*
X10217024Y-14842976D01*
X10236071Y-14852500D01*
X10245595Y-14862024D01*
X10255119Y-14881071D01*
X10264643Y-14919167D01*
X10264643Y-14966786D01*
X10255119Y-15004881D01*
X10245595Y-15023928D01*
X10236071Y-15033452D01*
X10217024Y-15042976D01*
X10197976Y-15042976D01*
X10178929Y-15033452D01*
X10169405Y-15023928D01*
X10159881Y-15004881D01*
X10150357Y-14966786D01*
X10150357Y-14919167D01*
X10159881Y-14881071D01*
X10169405Y-14862024D01*
X10178929Y-14852500D01*
X10197976Y-14842976D01*
X10350357Y-15023928D02*
X10359881Y-15033452D01*
X10350357Y-15042976D01*
X10340833Y-15033452D01*
X10350357Y-15023928D01*
X10350357Y-15042976D01*
X10483690Y-14842976D02*
X10502738Y-14842976D01*
X10521786Y-14852500D01*
X10531310Y-14862024D01*
X10540833Y-14881071D01*
X10550357Y-14919167D01*
X10550357Y-14966786D01*
X10540833Y-15004881D01*
X10531310Y-15023928D01*
X10521786Y-15033452D01*
X10502738Y-15042976D01*
X10483690Y-15042976D01*
X10464643Y-15033452D01*
X10455119Y-15023928D01*
X10445595Y-15004881D01*
X10436071Y-14966786D01*
X10436071Y-14919167D01*
X10445595Y-14881071D01*
X10455119Y-14862024D01*
X10464643Y-14852500D01*
X10483690Y-14842976D01*
X10740833Y-15042976D02*
X10626548Y-15042976D01*
X10683690Y-15042976D02*
X10683690Y-14842976D01*
X10664643Y-14871548D01*
X10645595Y-14890595D01*
X10626548Y-14900119D01*
X10921786Y-14842976D02*
X10826548Y-14842976D01*
X10817024Y-14938214D01*
X10826548Y-14928690D01*
X10845595Y-14919167D01*
X10893214Y-14919167D01*
X10912262Y-14928690D01*
X10921786Y-14938214D01*
X10931310Y-14957262D01*
X10931310Y-15004881D01*
X10921786Y-15023928D01*
X10912262Y-15033452D01*
X10893214Y-15042976D01*
X10845595Y-15042976D01*
X10826548Y-15033452D01*
X10817024Y-15023928D01*
X10997976Y-14842976D02*
X11131310Y-14842976D01*
X11045595Y-15042976D01*
X11197976Y-14842976D02*
X11197976Y-14881071D01*
X11274167Y-14842976D02*
X11274167Y-14881071D01*
X11569405Y-15119167D02*
X11559881Y-15109643D01*
X11540833Y-15081071D01*
X11531309Y-15062024D01*
X11521786Y-15033452D01*
X11512262Y-14985833D01*
X11512262Y-14947738D01*
X11521786Y-14900119D01*
X11531309Y-14871548D01*
X11540833Y-14852500D01*
X11559881Y-14823928D01*
X11569405Y-14814405D01*
X11750357Y-15042976D02*
X11636071Y-15042976D01*
X11693214Y-15042976D02*
X11693214Y-14842976D01*
X11674167Y-14871548D01*
X11655119Y-14890595D01*
X11636071Y-14900119D01*
X11817024Y-14842976D02*
X11950357Y-14842976D01*
X11864643Y-15042976D01*
X12112262Y-14842976D02*
X12074167Y-14842976D01*
X12055119Y-14852500D01*
X12045595Y-14862024D01*
X12026548Y-14890595D01*
X12017024Y-14928690D01*
X12017024Y-15004881D01*
X12026548Y-15023928D01*
X12036071Y-15033452D01*
X12055119Y-15042976D01*
X12093214Y-15042976D01*
X12112262Y-15033452D01*
X12121786Y-15023928D01*
X12131309Y-15004881D01*
X12131309Y-14957262D01*
X12121786Y-14938214D01*
X12112262Y-14928690D01*
X12093214Y-14919167D01*
X12055119Y-14919167D01*
X12036071Y-14928690D01*
X12026548Y-14938214D01*
X12017024Y-14957262D01*
X12369405Y-15042976D02*
X12369405Y-14842976D01*
X12455119Y-15042976D02*
X12455119Y-14938214D01*
X12445595Y-14919167D01*
X12426548Y-14909643D01*
X12397976Y-14909643D01*
X12378928Y-14919167D01*
X12369405Y-14928690D01*
X12578928Y-15042976D02*
X12559881Y-15033452D01*
X12550357Y-15023928D01*
X12540833Y-15004881D01*
X12540833Y-14947738D01*
X12550357Y-14928690D01*
X12559881Y-14919167D01*
X12578928Y-14909643D01*
X12607500Y-14909643D01*
X12626548Y-14919167D01*
X12636071Y-14928690D01*
X12645595Y-14947738D01*
X12645595Y-15004881D01*
X12636071Y-15023928D01*
X12626548Y-15033452D01*
X12607500Y-15042976D01*
X12578928Y-15042976D01*
X12759881Y-15042976D02*
X12740833Y-15033452D01*
X12731309Y-15014405D01*
X12731309Y-14842976D01*
X12912262Y-15033452D02*
X12893214Y-15042976D01*
X12855119Y-15042976D01*
X12836071Y-15033452D01*
X12826548Y-15014405D01*
X12826548Y-14938214D01*
X12836071Y-14919167D01*
X12855119Y-14909643D01*
X12893214Y-14909643D01*
X12912262Y-14919167D01*
X12921786Y-14938214D01*
X12921786Y-14957262D01*
X12826548Y-14976309D01*
X12997976Y-15033452D02*
X13017024Y-15042976D01*
X13055119Y-15042976D01*
X13074167Y-15033452D01*
X13083690Y-15014405D01*
X13083690Y-15004881D01*
X13074167Y-14985833D01*
X13055119Y-14976309D01*
X13026548Y-14976309D01*
X13007500Y-14966786D01*
X12997976Y-14947738D01*
X12997976Y-14938214D01*
X13007500Y-14919167D01*
X13026548Y-14909643D01*
X13055119Y-14909643D01*
X13074167Y-14919167D01*
X13150357Y-15119167D02*
X13159881Y-15109643D01*
X13178928Y-15081071D01*
X13188452Y-15062024D01*
X13197976Y-15033452D01*
X13207500Y-14985833D01*
X13207500Y-14947738D01*
X13197976Y-14900119D01*
X13188452Y-14871548D01*
X13178928Y-14852500D01*
X13159881Y-14823928D01*
X13150357Y-14814405D01*
D14*
X7997500Y-15216500D02*
G75*
G03*
X7997500Y-15216500I-37500J0D01*
G01*
D12*
X8293214Y-15106976D02*
X8312262Y-15106976D01*
X8331309Y-15116500D01*
X8340833Y-15126024D01*
X8350357Y-15145071D01*
X8359881Y-15183167D01*
X8359881Y-15230786D01*
X8350357Y-15268881D01*
X8340833Y-15287928D01*
X8331309Y-15297452D01*
X8312262Y-15306976D01*
X8293214Y-15306976D01*
X8274167Y-15297452D01*
X8264643Y-15287928D01*
X8255119Y-15268881D01*
X8245595Y-15230786D01*
X8245595Y-15183167D01*
X8255119Y-15145071D01*
X8264643Y-15126024D01*
X8274167Y-15116500D01*
X8293214Y-15106976D01*
X8445595Y-15287928D02*
X8455119Y-15297452D01*
X8445595Y-15306976D01*
X8436071Y-15297452D01*
X8445595Y-15287928D01*
X8445595Y-15306976D01*
X8521786Y-15106976D02*
X8655119Y-15106976D01*
X8569405Y-15306976D01*
X8826548Y-15106976D02*
X8731310Y-15106976D01*
X8721786Y-15202214D01*
X8731310Y-15192690D01*
X8750357Y-15183167D01*
X8797976Y-15183167D01*
X8817024Y-15192690D01*
X8826548Y-15202214D01*
X8836071Y-15221262D01*
X8836071Y-15268881D01*
X8826548Y-15287928D01*
X8817024Y-15297452D01*
X8797976Y-15306976D01*
X8750357Y-15306976D01*
X8731310Y-15297452D01*
X8721786Y-15287928D01*
X8959881Y-15106976D02*
X8978929Y-15106976D01*
X8997976Y-15116500D01*
X9007500Y-15126024D01*
X9017024Y-15145071D01*
X9026548Y-15183167D01*
X9026548Y-15230786D01*
X9017024Y-15268881D01*
X9007500Y-15287928D01*
X8997976Y-15297452D01*
X8978929Y-15306976D01*
X8959881Y-15306976D01*
X8940833Y-15297452D01*
X8931310Y-15287928D01*
X8921786Y-15268881D01*
X8912262Y-15230786D01*
X8912262Y-15183167D01*
X8921786Y-15145071D01*
X8931310Y-15126024D01*
X8940833Y-15116500D01*
X8959881Y-15106976D01*
X9112262Y-15306976D02*
X9112262Y-15173643D01*
X9112262Y-15192690D02*
X9121786Y-15183167D01*
X9140833Y-15173643D01*
X9169405Y-15173643D01*
X9188452Y-15183167D01*
X9197976Y-15202214D01*
X9197976Y-15306976D01*
X9197976Y-15202214D02*
X9207500Y-15183167D01*
X9226548Y-15173643D01*
X9255119Y-15173643D01*
X9274167Y-15183167D01*
X9283690Y-15202214D01*
X9283690Y-15306976D01*
X9378929Y-15306976D02*
X9378929Y-15173643D01*
X9378929Y-15192690D02*
X9388452Y-15183167D01*
X9407500Y-15173643D01*
X9436071Y-15173643D01*
X9455119Y-15183167D01*
X9464643Y-15202214D01*
X9464643Y-15306976D01*
X9464643Y-15202214D02*
X9474167Y-15183167D01*
X9493214Y-15173643D01*
X9521786Y-15173643D01*
X9540833Y-15183167D01*
X9550357Y-15202214D01*
X9550357Y-15306976D01*
X9940833Y-15097452D02*
X9769405Y-15354595D01*
X10197976Y-15106976D02*
X10217024Y-15106976D01*
X10236071Y-15116500D01*
X10245595Y-15126024D01*
X10255119Y-15145071D01*
X10264643Y-15183167D01*
X10264643Y-15230786D01*
X10255119Y-15268881D01*
X10245595Y-15287928D01*
X10236071Y-15297452D01*
X10217024Y-15306976D01*
X10197976Y-15306976D01*
X10178929Y-15297452D01*
X10169405Y-15287928D01*
X10159881Y-15268881D01*
X10150357Y-15230786D01*
X10150357Y-15183167D01*
X10159881Y-15145071D01*
X10169405Y-15126024D01*
X10178929Y-15116500D01*
X10197976Y-15106976D01*
X10350357Y-15287928D02*
X10359881Y-15297452D01*
X10350357Y-15306976D01*
X10340833Y-15297452D01*
X10350357Y-15287928D01*
X10350357Y-15306976D01*
X10483690Y-15106976D02*
X10502738Y-15106976D01*
X10521786Y-15116500D01*
X10531310Y-15126024D01*
X10540833Y-15145071D01*
X10550357Y-15183167D01*
X10550357Y-15230786D01*
X10540833Y-15268881D01*
X10531310Y-15287928D01*
X10521786Y-15297452D01*
X10502738Y-15306976D01*
X10483690Y-15306976D01*
X10464643Y-15297452D01*
X10455119Y-15287928D01*
X10445595Y-15268881D01*
X10436071Y-15230786D01*
X10436071Y-15183167D01*
X10445595Y-15145071D01*
X10455119Y-15126024D01*
X10464643Y-15116500D01*
X10483690Y-15106976D01*
X10626548Y-15126024D02*
X10636071Y-15116500D01*
X10655119Y-15106976D01*
X10702738Y-15106976D01*
X10721786Y-15116500D01*
X10731310Y-15126024D01*
X10740833Y-15145071D01*
X10740833Y-15164119D01*
X10731310Y-15192690D01*
X10617024Y-15306976D01*
X10740833Y-15306976D01*
X10836071Y-15306976D02*
X10874167Y-15306976D01*
X10893214Y-15297452D01*
X10902738Y-15287928D01*
X10921786Y-15259357D01*
X10931310Y-15221262D01*
X10931310Y-15145071D01*
X10921786Y-15126024D01*
X10912262Y-15116500D01*
X10893214Y-15106976D01*
X10855119Y-15106976D01*
X10836071Y-15116500D01*
X10826548Y-15126024D01*
X10817024Y-15145071D01*
X10817024Y-15192690D01*
X10826548Y-15211738D01*
X10836071Y-15221262D01*
X10855119Y-15230786D01*
X10893214Y-15230786D01*
X10912262Y-15221262D01*
X10921786Y-15211738D01*
X10931310Y-15192690D01*
X11112262Y-15106976D02*
X11017024Y-15106976D01*
X11007500Y-15202214D01*
X11017024Y-15192690D01*
X11036071Y-15183167D01*
X11083690Y-15183167D01*
X11102738Y-15192690D01*
X11112262Y-15202214D01*
X11121786Y-15221262D01*
X11121786Y-15268881D01*
X11112262Y-15287928D01*
X11102738Y-15297452D01*
X11083690Y-15306976D01*
X11036071Y-15306976D01*
X11017024Y-15297452D01*
X11007500Y-15287928D01*
X11197976Y-15106976D02*
X11197976Y-15145071D01*
X11274167Y-15106976D02*
X11274167Y-15145071D01*
X11569405Y-15383167D02*
X11559881Y-15373643D01*
X11540833Y-15345071D01*
X11531309Y-15326024D01*
X11521786Y-15297452D01*
X11512262Y-15249833D01*
X11512262Y-15211738D01*
X11521786Y-15164119D01*
X11531309Y-15135548D01*
X11540833Y-15116500D01*
X11559881Y-15087928D01*
X11569405Y-15078405D01*
X11636071Y-15126024D02*
X11645595Y-15116500D01*
X11664643Y-15106976D01*
X11712262Y-15106976D01*
X11731309Y-15116500D01*
X11740833Y-15126024D01*
X11750357Y-15145071D01*
X11750357Y-15164119D01*
X11740833Y-15192690D01*
X11626548Y-15306976D01*
X11750357Y-15306976D01*
X11988452Y-15306976D02*
X11988452Y-15106976D01*
X12074167Y-15306976D02*
X12074167Y-15202214D01*
X12064643Y-15183167D01*
X12045595Y-15173643D01*
X12017024Y-15173643D01*
X11997976Y-15183167D01*
X11988452Y-15192690D01*
X12197976Y-15306976D02*
X12178928Y-15297452D01*
X12169405Y-15287928D01*
X12159881Y-15268881D01*
X12159881Y-15211738D01*
X12169405Y-15192690D01*
X12178928Y-15183167D01*
X12197976Y-15173643D01*
X12226548Y-15173643D01*
X12245595Y-15183167D01*
X12255119Y-15192690D01*
X12264643Y-15211738D01*
X12264643Y-15268881D01*
X12255119Y-15287928D01*
X12245595Y-15297452D01*
X12226548Y-15306976D01*
X12197976Y-15306976D01*
X12378928Y-15306976D02*
X12359881Y-15297452D01*
X12350357Y-15278405D01*
X12350357Y-15106976D01*
X12531309Y-15297452D02*
X12512262Y-15306976D01*
X12474167Y-15306976D01*
X12455119Y-15297452D01*
X12445595Y-15278405D01*
X12445595Y-15202214D01*
X12455119Y-15183167D01*
X12474167Y-15173643D01*
X12512262Y-15173643D01*
X12531309Y-15183167D01*
X12540833Y-15202214D01*
X12540833Y-15221262D01*
X12445595Y-15240309D01*
X12617024Y-15297452D02*
X12636071Y-15306976D01*
X12674167Y-15306976D01*
X12693214Y-15297452D01*
X12702738Y-15278405D01*
X12702738Y-15268881D01*
X12693214Y-15249833D01*
X12674167Y-15240309D01*
X12645595Y-15240309D01*
X12626548Y-15230786D01*
X12617024Y-15211738D01*
X12617024Y-15202214D01*
X12626548Y-15183167D01*
X12645595Y-15173643D01*
X12674167Y-15173643D01*
X12693214Y-15183167D01*
X12769405Y-15383167D02*
X12778928Y-15373643D01*
X12797976Y-15345071D01*
X12807500Y-15326024D01*
X12817024Y-15297452D01*
X12826548Y-15249833D01*
X12826548Y-15211738D01*
X12817024Y-15164119D01*
X12807500Y-15135548D01*
X12797976Y-15116500D01*
X12778928Y-15087928D01*
X12769405Y-15078405D01*
D15*
X7947500Y-15430500D02*
X7947500Y-15530500D01*
X7897500Y-15480500D02*
X7997500Y-15480500D01*
D12*
X8359881Y-15570976D02*
X8245595Y-15570976D01*
X8302738Y-15570976D02*
X8302738Y-15370976D01*
X8283690Y-15399548D01*
X8264643Y-15418595D01*
X8245595Y-15428119D01*
X8445595Y-15551928D02*
X8455119Y-15561452D01*
X8445595Y-15570976D01*
X8436071Y-15561452D01*
X8445595Y-15551928D01*
X8445595Y-15570976D01*
X8578929Y-15370976D02*
X8597976Y-15370976D01*
X8617024Y-15380500D01*
X8626548Y-15390024D01*
X8636071Y-15409071D01*
X8645595Y-15447167D01*
X8645595Y-15494786D01*
X8636071Y-15532881D01*
X8626548Y-15551928D01*
X8617024Y-15561452D01*
X8597976Y-15570976D01*
X8578929Y-15570976D01*
X8559881Y-15561452D01*
X8550357Y-15551928D01*
X8540833Y-15532881D01*
X8531310Y-15494786D01*
X8531310Y-15447167D01*
X8540833Y-15409071D01*
X8550357Y-15390024D01*
X8559881Y-15380500D01*
X8578929Y-15370976D01*
X8769405Y-15370976D02*
X8788452Y-15370976D01*
X8807500Y-15380500D01*
X8817024Y-15390024D01*
X8826548Y-15409071D01*
X8836071Y-15447167D01*
X8836071Y-15494786D01*
X8826548Y-15532881D01*
X8817024Y-15551928D01*
X8807500Y-15561452D01*
X8788452Y-15570976D01*
X8769405Y-15570976D01*
X8750357Y-15561452D01*
X8740833Y-15551928D01*
X8731310Y-15532881D01*
X8721786Y-15494786D01*
X8721786Y-15447167D01*
X8731310Y-15409071D01*
X8740833Y-15390024D01*
X8750357Y-15380500D01*
X8769405Y-15370976D01*
X8959881Y-15370976D02*
X8978929Y-15370976D01*
X8997976Y-15380500D01*
X9007500Y-15390024D01*
X9017024Y-15409071D01*
X9026548Y-15447167D01*
X9026548Y-15494786D01*
X9017024Y-15532881D01*
X9007500Y-15551928D01*
X8997976Y-15561452D01*
X8978929Y-15570976D01*
X8959881Y-15570976D01*
X8940833Y-15561452D01*
X8931310Y-15551928D01*
X8921786Y-15532881D01*
X8912262Y-15494786D01*
X8912262Y-15447167D01*
X8921786Y-15409071D01*
X8931310Y-15390024D01*
X8940833Y-15380500D01*
X8959881Y-15370976D01*
X9112262Y-15570976D02*
X9112262Y-15437643D01*
X9112262Y-15456690D02*
X9121786Y-15447167D01*
X9140833Y-15437643D01*
X9169405Y-15437643D01*
X9188452Y-15447167D01*
X9197976Y-15466214D01*
X9197976Y-15570976D01*
X9197976Y-15466214D02*
X9207500Y-15447167D01*
X9226548Y-15437643D01*
X9255119Y-15437643D01*
X9274167Y-15447167D01*
X9283690Y-15466214D01*
X9283690Y-15570976D01*
X9378929Y-15570976D02*
X9378929Y-15437643D01*
X9378929Y-15456690D02*
X9388452Y-15447167D01*
X9407500Y-15437643D01*
X9436071Y-15437643D01*
X9455119Y-15447167D01*
X9464643Y-15466214D01*
X9464643Y-15570976D01*
X9464643Y-15466214D02*
X9474167Y-15447167D01*
X9493214Y-15437643D01*
X9521786Y-15437643D01*
X9540833Y-15447167D01*
X9550357Y-15466214D01*
X9550357Y-15570976D01*
X9940833Y-15361452D02*
X9769405Y-15618595D01*
X10197976Y-15370976D02*
X10217024Y-15370976D01*
X10236071Y-15380500D01*
X10245595Y-15390024D01*
X10255119Y-15409071D01*
X10264643Y-15447167D01*
X10264643Y-15494786D01*
X10255119Y-15532881D01*
X10245595Y-15551928D01*
X10236071Y-15561452D01*
X10217024Y-15570976D01*
X10197976Y-15570976D01*
X10178929Y-15561452D01*
X10169405Y-15551928D01*
X10159881Y-15532881D01*
X10150357Y-15494786D01*
X10150357Y-15447167D01*
X10159881Y-15409071D01*
X10169405Y-15390024D01*
X10178929Y-15380500D01*
X10197976Y-15370976D01*
X10350357Y-15551928D02*
X10359881Y-15561452D01*
X10350357Y-15570976D01*
X10340833Y-15561452D01*
X10350357Y-15551928D01*
X10350357Y-15570976D01*
X10483690Y-15370976D02*
X10502738Y-15370976D01*
X10521786Y-15380500D01*
X10531310Y-15390024D01*
X10540833Y-15409071D01*
X10550357Y-15447167D01*
X10550357Y-15494786D01*
X10540833Y-15532881D01*
X10531310Y-15551928D01*
X10521786Y-15561452D01*
X10502738Y-15570976D01*
X10483690Y-15570976D01*
X10464643Y-15561452D01*
X10455119Y-15551928D01*
X10445595Y-15532881D01*
X10436071Y-15494786D01*
X10436071Y-15447167D01*
X10445595Y-15409071D01*
X10455119Y-15390024D01*
X10464643Y-15380500D01*
X10483690Y-15370976D01*
X10617024Y-15370976D02*
X10740833Y-15370976D01*
X10674167Y-15447167D01*
X10702738Y-15447167D01*
X10721786Y-15456690D01*
X10731310Y-15466214D01*
X10740833Y-15485262D01*
X10740833Y-15532881D01*
X10731310Y-15551928D01*
X10721786Y-15561452D01*
X10702738Y-15570976D01*
X10645595Y-15570976D01*
X10626548Y-15561452D01*
X10617024Y-15551928D01*
X10836071Y-15570976D02*
X10874167Y-15570976D01*
X10893214Y-15561452D01*
X10902738Y-15551928D01*
X10921786Y-15523357D01*
X10931310Y-15485262D01*
X10931310Y-15409071D01*
X10921786Y-15390024D01*
X10912262Y-15380500D01*
X10893214Y-15370976D01*
X10855119Y-15370976D01*
X10836071Y-15380500D01*
X10826548Y-15390024D01*
X10817024Y-15409071D01*
X10817024Y-15456690D01*
X10826548Y-15475738D01*
X10836071Y-15485262D01*
X10855119Y-15494786D01*
X10893214Y-15494786D01*
X10912262Y-15485262D01*
X10921786Y-15475738D01*
X10931310Y-15456690D01*
X11102738Y-15437643D02*
X11102738Y-15570976D01*
X11055119Y-15361452D02*
X11007500Y-15504309D01*
X11131310Y-15504309D01*
X11197976Y-15370976D02*
X11197976Y-15409071D01*
X11274167Y-15370976D02*
X11274167Y-15409071D01*
X11569405Y-15647167D02*
X11559881Y-15637643D01*
X11540833Y-15609071D01*
X11531309Y-15590024D01*
X11521786Y-15561452D01*
X11512262Y-15513833D01*
X11512262Y-15475738D01*
X11521786Y-15428119D01*
X11531309Y-15399548D01*
X11540833Y-15380500D01*
X11559881Y-15351928D01*
X11569405Y-15342405D01*
X11750357Y-15570976D02*
X11636071Y-15570976D01*
X11693214Y-15570976D02*
X11693214Y-15370976D01*
X11674167Y-15399548D01*
X11655119Y-15418595D01*
X11636071Y-15428119D01*
X11874167Y-15370976D02*
X11893214Y-15370976D01*
X11912262Y-15380500D01*
X11921786Y-15390024D01*
X11931309Y-15409071D01*
X11940833Y-15447167D01*
X11940833Y-15494786D01*
X11931309Y-15532881D01*
X11921786Y-15551928D01*
X11912262Y-15561452D01*
X11893214Y-15570976D01*
X11874167Y-15570976D01*
X11855119Y-15561452D01*
X11845595Y-15551928D01*
X11836071Y-15532881D01*
X11826548Y-15494786D01*
X11826548Y-15447167D01*
X11836071Y-15409071D01*
X11845595Y-15390024D01*
X11855119Y-15380500D01*
X11874167Y-15370976D01*
X12131309Y-15570976D02*
X12017024Y-15570976D01*
X12074167Y-15570976D02*
X12074167Y-15370976D01*
X12055119Y-15399548D01*
X12036071Y-15418595D01*
X12017024Y-15428119D01*
X12369405Y-15570976D02*
X12369405Y-15370976D01*
X12455119Y-15570976D02*
X12455119Y-15466214D01*
X12445595Y-15447167D01*
X12426548Y-15437643D01*
X12397976Y-15437643D01*
X12378928Y-15447167D01*
X12369405Y-15456690D01*
X12578928Y-15570976D02*
X12559881Y-15561452D01*
X12550357Y-15551928D01*
X12540833Y-15532881D01*
X12540833Y-15475738D01*
X12550357Y-15456690D01*
X12559881Y-15447167D01*
X12578928Y-15437643D01*
X12607500Y-15437643D01*
X12626548Y-15447167D01*
X12636071Y-15456690D01*
X12645595Y-15475738D01*
X12645595Y-15532881D01*
X12636071Y-15551928D01*
X12626548Y-15561452D01*
X12607500Y-15570976D01*
X12578928Y-15570976D01*
X12759881Y-15570976D02*
X12740833Y-15561452D01*
X12731309Y-15542405D01*
X12731309Y-15370976D01*
X12912262Y-15561452D02*
X12893214Y-15570976D01*
X12855119Y-15570976D01*
X12836071Y-15561452D01*
X12826548Y-15542405D01*
X12826548Y-15466214D01*
X12836071Y-15447167D01*
X12855119Y-15437643D01*
X12893214Y-15437643D01*
X12912262Y-15447167D01*
X12921786Y-15466214D01*
X12921786Y-15485262D01*
X12826548Y-15504309D01*
X12997976Y-15561452D02*
X13017024Y-15570976D01*
X13055119Y-15570976D01*
X13074167Y-15561452D01*
X13083690Y-15542405D01*
X13083690Y-15532881D01*
X13074167Y-15513833D01*
X13055119Y-15504309D01*
X13026548Y-15504309D01*
X13007500Y-15494786D01*
X12997976Y-15475738D01*
X12997976Y-15466214D01*
X13007500Y-15447167D01*
X13026548Y-15437643D01*
X13055119Y-15437643D01*
X13074167Y-15447167D01*
X13150357Y-15647167D02*
X13159881Y-15637643D01*
X13178928Y-15609071D01*
X13188452Y-15590024D01*
X13197976Y-15561452D01*
X13207500Y-15513833D01*
X13207500Y-15475738D01*
X13197976Y-15428119D01*
X13188452Y-15399548D01*
X13178928Y-15380500D01*
X13159881Y-15351928D01*
X13150357Y-15342405D01*
M02*
