%TF.GenerationSoftware,KiCad,Pcbnew,(6.0.0-0)*%
%TF.CreationDate,2022-06-01T09:22:49+02:00*%
%TF.ProjectId,Zumo_PiZero,5a756d6f-5f50-4695-9a65-726f2e6b6963,rev?*%
%TF.SameCoordinates,Original*%
%TF.FileFunction,Soldermask,Top*%
%TF.FilePolarity,Negative*%
%FSLAX46Y46*%
G04 Gerber Fmt 4.6, Leading zero omitted, Abs format (unit mm)*
G04 Created by KiCad (PCBNEW (6.0.0-0)) date 2022-06-01 09:22:49*
%MOMM*%
%LPD*%
G01*
G04 APERTURE LIST*
G04 Aperture macros list*
%AMRoundRect*
0 Rectangle with rounded corners*
0 $1 Rounding radius*
0 $2 $3 $4 $5 $6 $7 $8 $9 X,Y pos of 4 corners*
0 Add a 4 corners polygon primitive as box body*
4,1,4,$2,$3,$4,$5,$6,$7,$8,$9,$2,$3,0*
0 Add four circle primitives for the rounded corners*
1,1,$1+$1,$2,$3*
1,1,$1+$1,$4,$5*
1,1,$1+$1,$6,$7*
1,1,$1+$1,$8,$9*
0 Add four rect primitives between the rounded corners*
20,1,$1+$1,$2,$3,$4,$5,0*
20,1,$1+$1,$4,$5,$6,$7,0*
20,1,$1+$1,$6,$7,$8,$9,0*
20,1,$1+$1,$8,$9,$2,$3,0*%
G04 Aperture macros list end*
%ADD10RoundRect,0.075000X-0.350000X-0.075000X0.350000X-0.075000X0.350000X0.075000X-0.350000X0.075000X0*%
%ADD11RoundRect,0.075000X0.075000X-0.350000X0.075000X0.350000X-0.075000X0.350000X-0.075000X-0.350000X0*%
%ADD12RoundRect,0.135000X-0.185000X0.135000X-0.185000X-0.135000X0.185000X-0.135000X0.185000X0.135000X0*%
%ADD13RoundRect,0.150000X-0.650000X-0.150000X0.650000X-0.150000X0.650000X0.150000X-0.650000X0.150000X0*%
%ADD14R,1.700000X1.700000*%
%ADD15RoundRect,0.250000X-0.625000X0.350000X-0.625000X-0.350000X0.625000X-0.350000X0.625000X0.350000X0*%
%ADD16C,3.800000*%
%ADD17RoundRect,0.140000X-0.140000X-0.170000X0.140000X-0.170000X0.140000X0.170000X-0.140000X0.170000X0*%
%ADD18RoundRect,0.135000X0.135000X0.185000X-0.135000X0.185000X-0.135000X-0.185000X0.135000X-0.185000X0*%
%ADD19RoundRect,0.101600X-0.674370X0.299720X-0.674370X-0.299720X0.674370X-0.299720X0.674370X0.299720X0*%
%ADD20RoundRect,0.101600X-0.999490X0.599440X-0.999490X-0.599440X0.999490X-0.599440X0.999490X0.599440X0*%
%ADD21R,0.449999X1.400000*%
%ADD22R,2.560000X2.460000*%
%ADD23RoundRect,0.140000X0.170000X-0.140000X0.170000X0.140000X-0.170000X0.140000X-0.170000X-0.140000X0*%
%ADD24RoundRect,0.140000X0.140000X0.170000X-0.140000X0.170000X-0.140000X-0.170000X0.140000X-0.170000X0*%
%ADD25R,1.200000X1.400000*%
%ADD26R,2.000000X2.000000*%
%ADD27O,1.700000X1.700000*%
%ADD28RoundRect,0.150000X0.150000X-0.512500X0.150000X0.512500X-0.150000X0.512500X-0.150000X-0.512500X0*%
%ADD29R,1.420000X0.610000*%
%ADD30R,3.910000X3.750000*%
%ADD31RoundRect,0.250000X-0.250000X-0.475000X0.250000X-0.475000X0.250000X0.475000X-0.250000X0.475000X0*%
%ADD32RoundRect,0.140000X-0.170000X0.140000X-0.170000X-0.140000X0.170000X-0.140000X0.170000X0.140000X0*%
%ADD33R,1.000000X1.000000*%
%ADD34C,0.900000*%
%ADD35R,1.000000X0.800000*%
%ADD36R,0.700000X1.500000*%
%ADD37RoundRect,0.135000X-0.135000X-0.185000X0.135000X-0.185000X0.135000X0.185000X-0.135000X0.185000X0*%
%ADD38RoundRect,0.135000X0.185000X-0.135000X0.185000X0.135000X-0.185000X0.135000X-0.185000X-0.135000X0*%
%ADD39RoundRect,0.218750X-0.256250X0.218750X-0.256250X-0.218750X0.256250X-0.218750X0.256250X0.218750X0*%
%ADD40RoundRect,0.075000X0.662500X0.075000X-0.662500X0.075000X-0.662500X-0.075000X0.662500X-0.075000X0*%
%ADD41RoundRect,0.075000X0.075000X0.662500X-0.075000X0.662500X-0.075000X-0.662500X0.075000X-0.662500X0*%
%ADD42R,1.000000X1.500000*%
%ADD43R,1.800000X1.000000*%
%ADD44R,0.800000X1.000000*%
%ADD45R,1.500000X0.700000*%
G04 APERTURE END LIST*
D10*
%TO.C,U6*%
X92466000Y-86244000D03*
X92466000Y-86744000D03*
X92466000Y-87244000D03*
X92466000Y-87744000D03*
X92466000Y-88244000D03*
X92466000Y-88744000D03*
D11*
X93166000Y-89444000D03*
X93666000Y-89444000D03*
X94166000Y-89444000D03*
X94666000Y-89444000D03*
X95166000Y-89444000D03*
X95666000Y-89444000D03*
D10*
X96366000Y-88744000D03*
X96366000Y-88244000D03*
X96366000Y-87744000D03*
X96366000Y-87244000D03*
X96366000Y-86744000D03*
X96366000Y-86244000D03*
D11*
X95666000Y-85544000D03*
X95166000Y-85544000D03*
X94666000Y-85544000D03*
X94166000Y-85544000D03*
X93666000Y-85544000D03*
X93166000Y-85544000D03*
%TD*%
D12*
%TO.C,R1*%
X89000000Y-135500000D03*
X89000000Y-136520000D03*
%TD*%
D13*
%TO.C,U5*%
X94922000Y-108213000D03*
X94922000Y-109483000D03*
X94922000Y-110753000D03*
X94922000Y-112023000D03*
X102122000Y-112023000D03*
X102122000Y-110753000D03*
X102122000Y-109483000D03*
X102122000Y-108213000D03*
%TD*%
D12*
%TO.C,R6*%
X121349000Y-97173000D03*
X121349000Y-98193000D03*
%TD*%
D14*
%TO.C,U1*%
X134750000Y-136495000D03*
X134750000Y-133955000D03*
D15*
X129950000Y-129495000D03*
X129950000Y-127495000D03*
D14*
X127580000Y-120795000D03*
X125040000Y-120795000D03*
X122500000Y-120795000D03*
X119960000Y-120795000D03*
X91300000Y-127293000D03*
X91300000Y-129833000D03*
X91300000Y-132373000D03*
X91300000Y-134913000D03*
X96960000Y-141195000D03*
X99500000Y-141195000D03*
X115300000Y-141195000D03*
X117840000Y-141195000D03*
%TD*%
D16*
%TO.C,H1*%
X88000000Y-66400000D03*
%TD*%
%TO.C,H3*%
X140500000Y-129400000D03*
%TD*%
D12*
%TO.C,R3*%
X143957000Y-112049000D03*
X143957000Y-113069000D03*
%TD*%
D16*
%TO.C,H2*%
X138000000Y-66400000D03*
%TD*%
D17*
%TO.C,C5*%
X123163993Y-111403940D03*
X124123993Y-111403940D03*
%TD*%
%TO.C,C16*%
X114080000Y-92104999D03*
X115040000Y-92104999D03*
%TD*%
D18*
%TO.C,R13*%
X141160000Y-92919000D03*
X140140000Y-92919000D03*
%TD*%
D19*
%TO.C,J3*%
X85013285Y-101185400D03*
X85013285Y-102186160D03*
X85013285Y-103181840D03*
X85013285Y-104182600D03*
D20*
X81340445Y-105483080D03*
X81340445Y-99884920D03*
%TD*%
D21*
%TO.C,U7*%
X115174999Y-84625001D03*
X114524998Y-84625001D03*
X113874999Y-84625001D03*
X113224998Y-84625001D03*
X112574999Y-84625001D03*
X111924998Y-84625001D03*
X111274999Y-84625001D03*
X110624998Y-84625001D03*
X110624998Y-90525002D03*
X111274999Y-90525002D03*
X111924998Y-90525002D03*
X112574999Y-90525002D03*
X113224998Y-90525002D03*
X113874999Y-90525002D03*
X114524998Y-90525002D03*
X115174999Y-90525002D03*
D22*
X112900000Y-87575000D03*
%TD*%
D23*
%TO.C,C12*%
X103822000Y-108206000D03*
X103822000Y-107246000D03*
%TD*%
%TO.C,C1*%
X103250000Y-135750000D03*
X103250000Y-134790000D03*
%TD*%
D12*
%TO.C,R11*%
X95800000Y-101490000D03*
X95800000Y-102510000D03*
%TD*%
D24*
%TO.C,C13*%
X93175000Y-90747000D03*
X92215000Y-90747000D03*
%TD*%
D25*
%TO.C,Y1*%
X124205521Y-103376790D03*
X124205521Y-101176790D03*
X122505521Y-101176790D03*
X122505521Y-103376790D03*
%TD*%
D26*
%TO.C,SW5*%
X129603000Y-86855000D03*
X137603000Y-86855000D03*
%TD*%
D12*
%TO.C,R10*%
X94000000Y-101490000D03*
X94000000Y-102510000D03*
%TD*%
D24*
%TO.C,C8*%
X124513608Y-106254082D03*
X123553608Y-106254082D03*
%TD*%
D14*
%TO.C,J5*%
X106801000Y-69983000D03*
D27*
X106801000Y-72523000D03*
X106801000Y-75063000D03*
X106801000Y-77603000D03*
X106801000Y-80143000D03*
X106801000Y-82683000D03*
%TD*%
D28*
%TO.C,U2*%
X104650000Y-135637500D03*
X105600000Y-135637500D03*
X106550000Y-135637500D03*
X106550000Y-133362500D03*
X104650000Y-133362500D03*
%TD*%
D29*
%TO.C,D1*%
X94470000Y-133095000D03*
X94470000Y-134365000D03*
X94470000Y-135635000D03*
X94470000Y-136905000D03*
X99960000Y-136905000D03*
X99960000Y-135630000D03*
X99960000Y-134365000D03*
X99960000Y-133095000D03*
D30*
X97875000Y-135000000D03*
%TD*%
D31*
%TO.C,C14*%
X112500000Y-93641999D03*
X114400000Y-93641999D03*
%TD*%
D14*
%TO.C,J6*%
X119199000Y-69983000D03*
D27*
X119199000Y-72523000D03*
X119199000Y-75063000D03*
X119199000Y-77603000D03*
X119199000Y-80143000D03*
X119199000Y-82683000D03*
%TD*%
D32*
%TO.C,C15*%
X97608000Y-88738000D03*
X97608000Y-89698000D03*
%TD*%
D17*
%TO.C,C7*%
X124057097Y-99570692D03*
X125017097Y-99570692D03*
%TD*%
D33*
%TO.C,TP3*%
X117675000Y-90525000D03*
%TD*%
D17*
%TO.C,C19*%
X111629000Y-92110999D03*
X112589000Y-92110999D03*
%TD*%
D34*
%TO.C,SW2*%
X125300000Y-141330000D03*
X122300000Y-141330000D03*
D35*
X127450000Y-142430000D03*
X120150000Y-142430000D03*
X120150000Y-140220000D03*
X127450000Y-140220000D03*
D36*
X121550000Y-139570000D03*
X124550000Y-139570000D03*
X126050000Y-139570000D03*
%TD*%
D37*
%TO.C,R16*%
X121380000Y-92550000D03*
X122400000Y-92550000D03*
%TD*%
D26*
%TO.C,SW3*%
X141756000Y-111913000D03*
X141756000Y-103913000D03*
%TD*%
D24*
%TO.C,C4*%
X132333000Y-89784000D03*
X131373000Y-89784000D03*
%TD*%
D38*
%TO.C,R2*%
X102000000Y-127510000D03*
X102000000Y-126490000D03*
%TD*%
D18*
%TO.C,R12*%
X141160000Y-99269000D03*
X140140000Y-99269000D03*
%TD*%
D24*
%TO.C,C6*%
X124206000Y-104967000D03*
X123246000Y-104967000D03*
%TD*%
D39*
%TO.C,D3*%
X97600000Y-98675000D03*
X97600000Y-100250000D03*
%TD*%
D40*
%TO.C,U4*%
X117162500Y-107050000D03*
X117162500Y-106550000D03*
X117162500Y-106050000D03*
X117162500Y-105550000D03*
X117162500Y-105050000D03*
X117162500Y-104550000D03*
X117162500Y-104050000D03*
X117162500Y-103550000D03*
X117162500Y-103050000D03*
X117162500Y-102550000D03*
X117162500Y-102050000D03*
X117162500Y-101550000D03*
D41*
X115750000Y-100137500D03*
X115250000Y-100137500D03*
X114750000Y-100137500D03*
X114250000Y-100137500D03*
X113750000Y-100137500D03*
X113250000Y-100137500D03*
X112750000Y-100137500D03*
X112250000Y-100137500D03*
X111750000Y-100137500D03*
X111250000Y-100137500D03*
X110750000Y-100137500D03*
X110250000Y-100137500D03*
D40*
X108837500Y-101550000D03*
X108837500Y-102050000D03*
X108837500Y-102550000D03*
X108837500Y-103050000D03*
X108837500Y-103550000D03*
X108837500Y-104050000D03*
X108837500Y-104550000D03*
X108837500Y-105050000D03*
X108837500Y-105550000D03*
X108837500Y-106050000D03*
X108837500Y-106550000D03*
X108837500Y-107050000D03*
D41*
X110250000Y-108462500D03*
X110750000Y-108462500D03*
X111250000Y-108462500D03*
X111750000Y-108462500D03*
X112250000Y-108462500D03*
X112750000Y-108462500D03*
X113250000Y-108462500D03*
X113750000Y-108462500D03*
X114250000Y-108462500D03*
X114750000Y-108462500D03*
X115250000Y-108462500D03*
X115750000Y-108462500D03*
%TD*%
D37*
%TO.C,R4*%
X87280000Y-91100000D03*
X88300000Y-91100000D03*
%TD*%
D38*
%TO.C,R7*%
X120247000Y-98182000D03*
X120247000Y-97162000D03*
%TD*%
D14*
%TO.C,J1*%
X138065000Y-74583000D03*
D27*
X138065000Y-77123000D03*
X135525000Y-74583000D03*
X135525000Y-77123000D03*
X132985000Y-74583000D03*
X132985000Y-77123000D03*
%TD*%
D24*
%TO.C,C18*%
X95750000Y-84150000D03*
X94790000Y-84150000D03*
%TD*%
D34*
%TO.C,SW1*%
X108600000Y-141300000D03*
D35*
X110750000Y-142400000D03*
X103450000Y-140190000D03*
D34*
X105600000Y-141300000D03*
D35*
X110750000Y-140190000D03*
X103450000Y-142400000D03*
D36*
X104850000Y-139540000D03*
X107850000Y-139540000D03*
X109350000Y-139540000D03*
%TD*%
D42*
%TO.C,JP5*%
X136685000Y-92284000D03*
X135385000Y-92284000D03*
%TD*%
%TO.C,JP1*%
X140000000Y-97364000D03*
X141300000Y-97364000D03*
%TD*%
D23*
%TO.C,C9*%
X120682500Y-104630000D03*
X120682500Y-103670000D03*
%TD*%
D16*
%TO.C,H4*%
X85500000Y-129400000D03*
%TD*%
D14*
%TO.C,U3*%
X88870000Y-117474000D03*
D27*
X88870000Y-114934000D03*
X91410000Y-117474000D03*
X91410000Y-114934000D03*
X93950000Y-117474000D03*
X93950000Y-114934000D03*
X96490000Y-117474000D03*
X96490000Y-114934000D03*
X99030000Y-117474000D03*
X99030000Y-114934000D03*
X101570000Y-117474000D03*
X101570000Y-114934000D03*
X104110000Y-117474000D03*
X104110000Y-114934000D03*
X106650000Y-117474000D03*
X106650000Y-114934000D03*
X109190000Y-117474000D03*
X109190000Y-114934000D03*
X111730000Y-117474000D03*
X111730000Y-114934000D03*
X114270000Y-117474000D03*
X114270000Y-114934000D03*
X116810000Y-117474000D03*
X116810000Y-114934000D03*
X119350000Y-117474000D03*
X119350000Y-114934000D03*
X121890000Y-117474000D03*
X121890000Y-114934000D03*
X124430000Y-117474000D03*
X124430000Y-114934000D03*
X126970000Y-117474000D03*
X126970000Y-114934000D03*
X129510000Y-117474000D03*
X129510000Y-114934000D03*
X132050000Y-117474000D03*
X132050000Y-114934000D03*
X134590000Y-117474000D03*
X134590000Y-114934000D03*
X137130000Y-117474000D03*
X137130000Y-114934000D03*
%TD*%
D32*
%TO.C,C2*%
X108100000Y-133250000D03*
X108100000Y-134210000D03*
%TD*%
D29*
%TO.C,D2*%
X99994500Y-130300036D03*
X99994500Y-129030036D03*
X99994500Y-127760036D03*
X99994500Y-126490036D03*
X94504500Y-126490036D03*
X94504500Y-127765036D03*
X94504500Y-129030036D03*
X94504500Y-130300036D03*
D30*
X96589500Y-128395036D03*
%TD*%
D43*
%TO.C,Y2*%
X123784000Y-110073000D03*
X123784000Y-107573000D03*
%TD*%
D42*
%TO.C,JP4*%
X136685000Y-94824000D03*
X135385000Y-94824000D03*
%TD*%
D14*
%TO.C,J4*%
X132333000Y-102444000D03*
D27*
X132333000Y-99904000D03*
X132333000Y-97364000D03*
X132333000Y-94824000D03*
X132333000Y-92284000D03*
%TD*%
D12*
%TO.C,R14*%
X87879000Y-102219000D03*
X87879000Y-103239000D03*
%TD*%
D37*
%TO.C,R5*%
X133812000Y-89784000D03*
X134832000Y-89784000D03*
%TD*%
D33*
%TO.C,TP2*%
X108125000Y-92625000D03*
%TD*%
D39*
%TO.C,D4*%
X94000000Y-98675000D03*
X94000000Y-100250000D03*
%TD*%
D33*
%TO.C,TP1*%
X117675000Y-92625000D03*
%TD*%
D42*
%TO.C,JP2*%
X140000000Y-94824000D03*
X141300000Y-94824000D03*
%TD*%
D33*
%TO.C,TP4*%
X108125000Y-90525000D03*
%TD*%
D23*
%TO.C,C10*%
X119620000Y-104630000D03*
X119620000Y-103670000D03*
%TD*%
D44*
%TO.C,SW6*%
X122694000Y-91133000D03*
X124904000Y-83833000D03*
X122694000Y-83833000D03*
D34*
X123804000Y-85983000D03*
X123804000Y-88983000D03*
D44*
X124904000Y-91133000D03*
D45*
X122044000Y-89733000D03*
X122044000Y-86733000D03*
X122044000Y-85233000D03*
%TD*%
D33*
%TO.C,TP5*%
X108125000Y-86600000D03*
%TD*%
D26*
%TO.C,SW4*%
X87300000Y-88700000D03*
X87300000Y-80700000D03*
%TD*%
D17*
%TO.C,C17*%
X94918000Y-90703000D03*
X95878000Y-90703000D03*
%TD*%
D12*
%TO.C,R15*%
X89189000Y-103217000D03*
X89189000Y-104237000D03*
%TD*%
D17*
%TO.C,C3*%
X104663000Y-131646000D03*
X105623000Y-131646000D03*
%TD*%
D18*
%TO.C,R8*%
X123094068Y-99582006D03*
X122074068Y-99582006D03*
%TD*%
D17*
%TO.C,C11*%
X119620000Y-105634000D03*
X120580000Y-105634000D03*
%TD*%
D42*
%TO.C,JP3*%
X136685000Y-97364000D03*
X135385000Y-97364000D03*
%TD*%
D12*
%TO.C,R9*%
X97600000Y-101490000D03*
X97600000Y-102510000D03*
%TD*%
D39*
%TO.C,D5*%
X95800000Y-98675000D03*
X95800000Y-100250000D03*
%TD*%
D14*
%TO.C,J2*%
X99030000Y-66350000D03*
D27*
X99030000Y-63810000D03*
X101570000Y-66350000D03*
X101570000Y-63810000D03*
X104110000Y-66350000D03*
X104110000Y-63810000D03*
X106650000Y-66350000D03*
X106650000Y-63810000D03*
X109190000Y-66350000D03*
X109190000Y-63810000D03*
X111730000Y-66350000D03*
X111730000Y-63810000D03*
X114270000Y-66350000D03*
X114270000Y-63810000D03*
X116810000Y-66350000D03*
X116810000Y-63810000D03*
X119350000Y-66350000D03*
X119350000Y-63810000D03*
X121890000Y-66350000D03*
X121890000Y-63810000D03*
X124430000Y-66350000D03*
X124430000Y-63810000D03*
X126970000Y-66350000D03*
X126970000Y-63810000D03*
%TD*%
M02*
