%TF.GenerationSoftware,KiCad,Pcbnew,(6.0.0-0)*%
%TF.CreationDate,2022-06-01T09:02:52+02:00*%
%TF.ProjectId,Zumo_PiZero,5a756d6f-5f50-4695-9a65-726f2e6b6963,rev?*%
%TF.SameCoordinates,Original*%
%TF.FileFunction,Profile,NP*%
%FSLAX46Y46*%
G04 Gerber Fmt 4.6, Leading zero omitted, Abs format (unit mm)*
G04 Created by KiCad (PCBNEW (6.0.0-0)) date 2022-06-01 09:02:52*
%MOMM*%
%LPD*%
G01*
G04 APERTURE LIST*
%TA.AperFunction,Profile*%
%ADD10C,0.050000*%
%TD*%
%TA.AperFunction,Profile*%
%ADD11C,0.100000*%
%TD*%
G04 APERTURE END LIST*
D10*
X103701000Y-81900000D02*
G75*
G03*
X104701000Y-80900000I-3J1000003D01*
G01*
D11*
X131200000Y-130495000D02*
X128700000Y-130495000D01*
X128700000Y-130495000D02*
X128700000Y-126495000D01*
X128700000Y-126495000D02*
X131200000Y-126495000D01*
X131200000Y-126495000D02*
X131200000Y-130495000D01*
D10*
X122299000Y-81900000D02*
X127599000Y-81900000D01*
X122299000Y-69300000D02*
G75*
G03*
X121299000Y-70300000I3J-1000003D01*
G01*
X103701000Y-69300000D02*
X98401000Y-69300000D01*
X104701000Y-80900000D02*
X104701000Y-70300000D01*
X128599000Y-80900000D02*
X128599000Y-70300000D01*
X97401000Y-80900000D02*
G75*
G03*
X98401000Y-81900000I1000003J3D01*
G01*
X80000000Y-143100000D02*
X80000000Y-60000000D01*
X104701000Y-70300000D02*
G75*
G03*
X103701000Y-69300000I-1000003J-3D01*
G01*
D11*
X138400000Y-108700000D02*
G75*
G03*
X138400000Y-108700000I-2900000J0D01*
G01*
D10*
X128599000Y-70300000D02*
G75*
G03*
X127599000Y-69300000I-1000003J-3D01*
G01*
X122299000Y-69300000D02*
X127599000Y-69300000D01*
X121299000Y-80900000D02*
G75*
G03*
X122299000Y-81900000I1000003J3D01*
G01*
X98401000Y-69300000D02*
G75*
G03*
X97401000Y-70300000I3J-1000003D01*
G01*
X146000000Y-143100000D02*
X80000000Y-143100000D01*
X121299000Y-70300000D02*
X121299000Y-80900000D01*
X146000000Y-60000000D02*
X146000000Y-143100000D01*
X97401000Y-70300000D02*
X97401000Y-80900000D01*
X98401000Y-81900000D02*
X103701000Y-81900000D01*
X127599000Y-81900000D02*
G75*
G03*
X128599000Y-80900000I-3J1000003D01*
G01*
X80000000Y-60000000D02*
X146000000Y-60000000D01*
M02*
